<?xml version="1.0" encoding="UTF-8" standalone="no"?>
<!-- Created with Inkscape (http://www.inkscape.org/) -->

<svg
   width="642.77258mm"
   height="143.0881mm"
   viewBox="0 0 642.77259 143.08811"
   version="1.1"
   id="svg8"
   inkscape:version="1.2.2 (1:1.2.2+202212051550+b0a8486541)"
   sodipodi:docname="icon.svg"
   inkscape:export-filename="/home/apatrizi/RL_ws/hhcm/src/SharsorIPCpp/docs/icon.png"
   inkscape:export-xdpi="20"
   inkscape:export-ydpi="20"
   xmlns:inkscape="http://www.inkscape.org/namespaces/inkscape"
   xmlns:sodipodi="http://sodipodi.sourceforge.net/DTD/sodipodi-0.dtd"
   xmlns:xlink="http://www.w3.org/1999/xlink"
   xmlns="http://www.w3.org/2000/svg"
   xmlns:svg="http://www.w3.org/2000/svg"
   xmlns:rdf="http://www.w3.org/1999/02/22-rdf-syntax-ns#"
   xmlns:cc="http://creativecommons.org/ns#"
   xmlns:dc="http://purl.org/dc/elements/1.1/"
   xmlns:osb="http://www.openswatchbook.org/uri/2009/osb">
  <defs
     id="defs2">
    <marker
       inkscape:stockid="Arrow1Mstart"
       orient="auto"
       refY="0.0"
       refX="0.0"
       id="Arrow1Mstart"
       style="overflow:visible"
       inkscape:isstock="true">
      <path
         id="path1988"
         d="M 0.0,0.0 L 5.0,-5.0 L -12.5,0.0 L 5.0,5.0 L 0.0,0.0 z "
         style="fill-rule:evenodd;stroke:#000000;stroke-width:1pt;stroke-opacity:1;fill:#000000;fill-opacity:1"
         transform="scale(0.4) translate(10,0)" />
    </marker>
    <linearGradient
       id="linearGradient2291"
       osb:paint="solid">
      <stop
         style="stop-color:#d48b8b;stop-opacity:0;"
         offset="0"
         id="stop2289" />
    </linearGradient>
    <linearGradient
       inkscape:collect="always"
       xlink:href="#linearGradient2291"
       id="linearGradient2915"
       gradientUnits="userSpaceOnUse"
       gradientTransform="matrix(1.125,0,0,1.075,-14.045969,-3.0108032)"
       x1="76.729164"
       y1="96.445831"
       x2="119.0625"
       y2="96.445831" />
  </defs>
  <sodipodi:namedview
     id="base"
     pagecolor="#ffffff"
     bordercolor="#666666"
     borderopacity="1.0"
     inkscape:pageopacity="0.0"
     inkscape:pageshadow="2"
     inkscape:zoom="1.0363922"
     inkscape:cx="1225.4049"
     inkscape:cy="331.43824"
     inkscape:document-units="mm"
     inkscape:current-layer="g2913"
     showgrid="true"
     inkscape:window-width="1920"
     inkscape:window-height="1020"
     inkscape:window-x="0"
     inkscape:window-y="0"
     inkscape:window-maximized="1"
     inkscape:snap-global="true"
     showguides="false"
     inkscape:showpageshadow="0"
     inkscape:pagecheckerboard="0"
     inkscape:deskcolor="#d1d1d1">
    <inkscape:grid
       type="xygrid"
       id="grid815"
       originx="151.95938"
       originy="-131.93701" />
  </sodipodi:namedview>
  <metadata
     id="metadata5">
    <rdf:RDF>
      <cc:Work
         rdf:about="">
        <dc:format>image/svg+xml</dc:format>
        <dc:type
           rdf:resource="http://purl.org/dc/dcmitype/StillImage" />
        <dc:title />
      </cc:Work>
    </rdf:RDF>
  </metadata>
  <g
     inkscape:label="Layer 1"
     inkscape:groupmode="layer"
     id="layer1"
     transform="translate(151.95938,-21.974895)">
    <g
       id="g2701"
       transform="matrix(0,1,1,0,1.8097813,-3.6934667)">
      <g
         id="g2697"
         transform="matrix(-0.12201588,0,0,0.12201588,119.77522,-14.312618)">
        <path
           style="opacity:1;fill:#93da6a;fill-opacity:1;fill-rule:nonzero;stroke:#000000;stroke-width:5.39932537;stroke-linecap:square;stroke-linejoin:round;stroke-miterlimit:4;stroke-dasharray:none;stroke-dashoffset:0;stroke-opacity:1;paint-order:stroke fill markers"
           d=""
           id="path2713"
           inkscape:connector-curvature="0"
           transform="matrix(0,2.1684336,-2.1684336,0,951.36595,102.46893)" />
        <path
           style="opacity:1;fill:#93da6a;fill-opacity:1;fill-rule:nonzero;stroke:#000000;stroke-width:5.39932537;stroke-linecap:square;stroke-linejoin:round;stroke-miterlimit:4;stroke-dasharray:none;stroke-dashoffset:0;stroke-opacity:1;paint-order:stroke fill markers"
           d=""
           id="path2723"
           inkscape:connector-curvature="0"
           transform="matrix(0,2.1684336,-2.1684336,0,951.36595,102.46893)" />
      </g>
      <g
         id="g989"
         transform="translate(0,71.279881)">
        <g
           transform="translate(0.16313259,0.25120688)"
           id="g2913">
          <rect
             transform="matrix(0,1,1,0,0,0)"
             style="opacity:1;fill:url(#linearGradient2915);fill-opacity:1;fill-rule:nonzero;stroke:#000000;stroke-width:2;stroke-linecap:square;stroke-linejoin:round;stroke-miterlimit:4;stroke-dasharray:none;stroke-dashoffset:0;stroke-opacity:1;paint-order:stroke fill markers"
             id="rect829"
             width="47.624996"
             height="44.979164"
             x="72.274338"
             y="78.443466"
             ry="7.9639578" />
          <path
             style="fill:none;stroke:#009e9f;stroke-width:2;stroke-linecap:butt;stroke-linejoin:miter;stroke-miterlimit:4;stroke-dasharray:2, 2;stroke-dashoffset:0;stroke-opacity:1"
             d="m 100.99256,70.950636 v -15.875"
             id="path2314"
             inkscape:connector-curvature="0"
             sodipodi:nodetypes="cc" />
          <path
             style="fill:none;stroke:#009e9f;stroke-width:3;stroke-linecap:butt;stroke-linejoin:miter;stroke-miterlimit:4;stroke-dasharray:none;stroke-opacity:1"
             d="m 80.697917,69.458333 h -11.90625 v 11.90625"
             id="path2322"
             inkscape:connector-curvature="0"
             transform="matrix(0,1,1,0,3.6934667,-1.8097813)" />
          <path
             inkscape:connector-curvature="0"
             id="path2324"
             d="M 80.697917,125.02083 H 68.791667 V 113.11458"
             style="fill:none;stroke:#009e9f;stroke-width:3;stroke-linecap:butt;stroke-linejoin:miter;stroke-miterlimit:4;stroke-dasharray:none;stroke-opacity:1"
             transform="matrix(0,1,1,0,3.6934667,-1.8097813)" />
          <path
             transform="matrix(0,1,1,0,3.6934667,-1.8097813)"
             style="fill:none;stroke:#009e9f;stroke-width:3;stroke-linecap:butt;stroke-linejoin:miter;stroke-miterlimit:4;stroke-dasharray:none;stroke-opacity:1"
             d="M 115.09375,125.02083 H 127 v -11.90625"
             id="path2326"
             inkscape:connector-curvature="0" />
          <path
             transform="matrix(0,1,1,0,3.6934667,-1.8097813)"
             inkscape:connector-curvature="0"
             id="path2328"
             d="M 115.09375,69.458333 H 127 v 11.90625"
             style="fill:none;stroke:#009e9f;stroke-width:3;stroke-linecap:butt;stroke-linejoin:miter;stroke-miterlimit:4;stroke-dasharray:none;stroke-opacity:1" />
          <g
             id="g2612"
             transform="matrix(0,-0.12201588,0.12201588,0,-9.4828597,116.25114)">
            <g
               id="g2602"
               transform="translate(-955.50313,414.76302)">
              <g
                 transform="matrix(0.40313754,0,0,0.40313754,594.92982,393.90235)"
                 id="g2592">
                <g
                   id="g2590">
                  <path
                     inkscape:connector-curvature="0"
                     style="fill:#231f20"
                     d="M 240,480 C 107.664,480 0,372.336 0,240 0,107.664 107.664,0 240,0 372.336,0 480,107.664 480,240 480,372.336 372.336,480 240,480 Z M 240,20 C 118.691,20 20,118.691 20,240 20,361.309 118.691,460 240,460 361.309,460 460,361.309 460,240 460,118.691 361.309,20 240,20 Z"
                     id="path2588" />
                </g>
              </g>
              <g
                 transform="matrix(0.40313754,0,0,0.40313754,594.92981,393.90235)"
                 id="g2600">
                <g
                   id="g2598">
                  <g
                     id="g2596">
                    <path
                       inkscape:connector-curvature="0"
                       style="fill:#231f20"
                       d="m 265,430 h -50 c -11.028,0 -20,-8.972 -20,-20 v -27.057 c -8.439,-2.644 -16.56,-6 -24.271,-10.03 l -19.158,19.158 c -3.775,3.775 -8.79,5.854 -14.121,5.854 -5.332,0 -10.347,-2.079 -14.122,-5.854 L 87.929,356.672 c -3.774,-3.774 -5.854,-8.789 -5.854,-14.121 0,-5.331 2.078,-10.346 5.854,-14.121 l 19.158,-19.158 c -4.03,-7.711 -7.387,-15.831 -10.03,-24.271 H 70 c -11.028,0 -20,-8.972 -20,-20 v -50 c 0,-11.028 8.972,-20 20,-20 h 27.057 c 2.644,-8.439 6,-16.56 10.03,-24.271 L 87.929,151.572 c -3.775,-3.775 -5.854,-8.79 -5.854,-14.121 0,-5.332 2.079,-10.347 5.854,-14.122 L 123.328,87.93 c 3.774,-3.774 8.789,-5.854 14.121,-5.854 5.331,0 10.346,2.078 14.121,5.854 l 19.158,19.158 c 7.711,-4.03 15.831,-7.387 24.271,-10.03 V 70 c 0,-11.028 8.972,-20 20,-20 h 50 c 11.028,0 20,8.972 20,20 v 27.057 c 8.439,2.644 16.56,6 24.271,10.03 l 19.158,-19.158 c 3.775,-3.775 8.79,-5.854 14.121,-5.854 5.332,0 10.347,2.079 14.122,5.854 l 35.399,35.399 c 3.774,3.774 5.854,8.789 5.854,14.121 0,5.331 -2.078,10.346 -5.854,14.121 l -19.158,19.158 c 4.03,7.711 7.387,15.831 10.03,24.271 H 410 c 11.028,0 20,8.972 20,20 v 50 c 0,11.028 -8.972,20 -20,20 h -27.057 c -2.644,8.439 -6,16.56 -10.03,24.271 l 19.158,19.158 c 3.775,3.775 5.854,8.79 5.854,14.121 0,5.332 -2.079,10.347 -5.854,14.122 l -35.399,35.399 c -3.774,3.774 -8.789,5.854 -14.121,5.854 -5.331,0 -10.346,-2.078 -14.121,-5.854 l -19.158,-19.158 c -7.711,4.03 -15.831,7.387 -24.271,10.03 V 410 C 285,421.028 276.028,430 265,430 Z m -95.997,-79.5 c 1.754,0 3.52,0.46 5.107,1.404 10.254,6.097 21.486,10.744 33.387,13.813 4.417,1.14 7.503,5.122 7.503,9.684 V 410 h 50 v -34.6 c 0,-4.562 3.086,-8.544 7.503,-9.684 11.9,-3.068 23.133,-7.716 33.387,-13.813 3.929,-2.336 8.946,-1.711 12.182,1.524 l 24.5,24.5 35.357,-35.4 -24.5,-24.457 c -3.234,-3.234 -3.861,-8.251 -1.524,-12.182 6.097,-10.254 10.744,-21.486 13.813,-33.387 1.14,-4.417 5.122,-7.503 9.684,-7.503 H 410 v -50 h -34.6 c -4.562,0 -8.544,-3.086 -9.684,-7.503 -3.068,-11.9 -7.716,-23.133 -13.813,-33.387 -2.337,-3.931 -1.71,-8.947 1.524,-12.182 l 24.5,-24.5 -35.4,-35.357 -24.457,24.5 c -3.235,3.233 -8.253,3.861 -12.182,1.524 -10.254,-6.097 -21.486,-10.744 -33.387,-13.813 -4.417,-1.14 -7.503,-5.122 -7.503,-9.684 V 70 h -50 v 34.6 c 0,4.562 -3.086,8.544 -7.503,9.684 -11.9,3.068 -23.133,7.716 -33.387,13.813 -3.929,2.337 -8.946,1.711 -12.182,-1.524 l -24.5,-24.5 -35.357,35.4 24.5,24.457 c 3.234,3.234 3.861,8.251 1.524,12.182 -6.097,10.254 -10.744,21.486 -13.813,33.387 -1.14,4.417 -5.122,7.503 -9.684,7.503 H 70 v 50 h 34.6 c 4.562,0 8.544,3.086 9.684,7.503 3.068,11.9 7.716,23.133 13.813,33.387 2.337,3.931 1.71,8.947 -1.524,12.182 l -24.5,24.5 35.4,35.357 24.457,-24.5 c 1.926,-1.929 4.487,-2.931 7.073,-2.931 z"
                       id="path2594" />
                  </g>
                </g>
              </g>
            </g>
            <g
               transform="translate(129.34229,299.96343)"
               id="g2610">
              <path
                 inkscape:connector-curvature="0"
                 id="path2604"
                 d="m -410.51006,583.63372 -21.68434,21.68433 21.68434,21.68433"
                 style="fill:none;stroke:#000000;stroke-width:8.19565;stroke-linecap:butt;stroke-linejoin:miter;stroke-miterlimit:4;stroke-dasharray:none;stroke-opacity:1" />
              <path
                 sodipodi:nodetypes="cc"
                 inkscape:connector-curvature="0"
                 id="path2606"
                 d="m -401.26671,643.2106 13.19636,-75.51131"
                 style="fill:none;stroke:#000000;stroke-width:4.09783;stroke-linecap:butt;stroke-linejoin:miter;stroke-miterlimit:4;stroke-dasharray:none;stroke-opacity:1" />
              <path
                 style="fill:none;stroke:#000000;stroke-width:8.19565;stroke-linecap:butt;stroke-linejoin:miter;stroke-miterlimit:4;stroke-dasharray:none;stroke-opacity:1"
                 d="m -375.81513,583.63372 21.68434,21.68433 -21.68434,21.68433"
                 id="path2608"
                 inkscape:connector-curvature="0" />
            </g>
          </g>
          <path
             style="fill:none;stroke:#009e9f;stroke-width:2;stroke-linecap:butt;stroke-linejoin:miter;stroke-miterlimit:4;stroke-dasharray:2, 2;stroke-dashoffset:0;stroke-opacity:1"
             d="m 100.91581,121.22147 v 15.875"
             id="path2586"
             inkscape:connector-curvature="0"
             sodipodi:nodetypes="cc" />
          <g
             transform="matrix(0.12201588,0,0,0.12201588,82.09088,-14.388583)"
             id="g2667">
            <g
               transform="translate(-955.50313,414.76302)"
               id="g2657">
              <g
                 id="g2647"
                 transform="matrix(0.40313754,0,0,0.40313754,594.92982,393.90235)">
                <g
                   id="g2645">
                  <path
                     id="path2643"
                     d="M 240,480 C 107.664,480 0,372.336 0,240 0,107.664 107.664,0 240,0 372.336,0 480,107.664 480,240 480,372.336 372.336,480 240,480 Z M 240,20 C 118.691,20 20,118.691 20,240 20,361.309 118.691,460 240,460 361.309,460 460,361.309 460,240 460,118.691 361.309,20 240,20 Z"
                     style="fill:#231f20"
                     inkscape:connector-curvature="0" />
                </g>
              </g>
              <g
                 id="g2655"
                 transform="matrix(0.40313754,0,0,0.40313754,594.92981,393.90235)">
                <g
                   id="g2653">
                  <g
                     id="g2651">
                    <path
                       id="path2649"
                       d="m 265,430 h -50 c -11.028,0 -20,-8.972 -20,-20 v -27.057 c -8.439,-2.644 -16.56,-6 -24.271,-10.03 l -19.158,19.158 c -3.775,3.775 -8.79,5.854 -14.121,5.854 -5.332,0 -10.347,-2.079 -14.122,-5.854 L 87.929,356.672 c -3.774,-3.774 -5.854,-8.789 -5.854,-14.121 0,-5.331 2.078,-10.346 5.854,-14.121 l 19.158,-19.158 c -4.03,-7.711 -7.387,-15.831 -10.03,-24.271 H 70 c -11.028,0 -20,-8.972 -20,-20 v -50 c 0,-11.028 8.972,-20 20,-20 h 27.057 c 2.644,-8.439 6,-16.56 10.03,-24.271 L 87.929,151.572 c -3.775,-3.775 -5.854,-8.79 -5.854,-14.121 0,-5.332 2.079,-10.347 5.854,-14.122 L 123.328,87.93 c 3.774,-3.774 8.789,-5.854 14.121,-5.854 5.331,0 10.346,2.078 14.121,5.854 l 19.158,19.158 c 7.711,-4.03 15.831,-7.387 24.271,-10.03 V 70 c 0,-11.028 8.972,-20 20,-20 h 50 c 11.028,0 20,8.972 20,20 v 27.057 c 8.439,2.644 16.56,6 24.271,10.03 l 19.158,-19.158 c 3.775,-3.775 8.79,-5.854 14.121,-5.854 5.332,0 10.347,2.079 14.122,5.854 l 35.399,35.399 c 3.774,3.774 5.854,8.789 5.854,14.121 0,5.331 -2.078,10.346 -5.854,14.121 l -19.158,19.158 c 4.03,7.711 7.387,15.831 10.03,24.271 H 410 c 11.028,0 20,8.972 20,20 v 50 c 0,11.028 -8.972,20 -20,20 h -27.057 c -2.644,8.439 -6,16.56 -10.03,24.271 l 19.158,19.158 c 3.775,3.775 5.854,8.79 5.854,14.121 0,5.332 -2.079,10.347 -5.854,14.122 l -35.399,35.399 c -3.774,3.774 -8.789,5.854 -14.121,5.854 -5.331,0 -10.346,-2.078 -14.121,-5.854 l -19.158,-19.158 c -7.711,4.03 -15.831,7.387 -24.271,10.03 V 410 C 285,421.028 276.028,430 265,430 Z m -95.997,-79.5 c 1.754,0 3.52,0.46 5.107,1.404 10.254,6.097 21.486,10.744 33.387,13.813 4.417,1.14 7.503,5.122 7.503,9.684 V 410 h 50 v -34.6 c 0,-4.562 3.086,-8.544 7.503,-9.684 11.9,-3.068 23.133,-7.716 33.387,-13.813 3.929,-2.336 8.946,-1.711 12.182,1.524 l 24.5,24.5 35.357,-35.4 -24.5,-24.457 c -3.234,-3.234 -3.861,-8.251 -1.524,-12.182 6.097,-10.254 10.744,-21.486 13.813,-33.387 1.14,-4.417 5.122,-7.503 9.684,-7.503 H 410 v -50 h -34.6 c -4.562,0 -8.544,-3.086 -9.684,-7.503 -3.068,-11.9 -7.716,-23.133 -13.813,-33.387 -2.337,-3.931 -1.71,-8.947 1.524,-12.182 l 24.5,-24.5 -35.4,-35.357 -24.457,24.5 c -3.235,3.233 -8.253,3.861 -12.182,1.524 -10.254,-6.097 -21.486,-10.744 -33.387,-13.813 -4.417,-1.14 -7.503,-5.122 -7.503,-9.684 V 70 h -50 v 34.6 c 0,4.562 -3.086,8.544 -7.503,9.684 -11.9,3.068 -23.133,7.716 -33.387,13.813 -3.929,2.337 -8.946,1.711 -12.182,-1.524 l -24.5,-24.5 -35.357,35.4 24.5,24.457 c 3.234,3.234 3.861,8.251 1.524,12.182 -6.097,10.254 -10.744,21.486 -13.813,33.387 -1.14,4.417 -5.122,7.503 -9.684,7.503 H 70 v 50 h 34.6 c 4.562,0 8.544,3.086 9.684,7.503 3.068,11.9 7.716,23.133 13.813,33.387 2.337,3.931 1.71,8.947 -1.524,12.182 l -24.5,24.5 35.4,35.357 24.457,-24.5 c 1.926,-1.929 4.487,-2.931 7.073,-2.931 z"
                       style="fill:#231f20"
                       inkscape:connector-curvature="0" />
                  </g>
                </g>
              </g>
            </g>
            <g
               id="g2665"
               transform="rotate(-90,-178.50974,690.76552)">
              <path
                 style="fill:none;stroke:#000000;stroke-width:8.19565;stroke-linecap:butt;stroke-linejoin:miter;stroke-miterlimit:4;stroke-dasharray:none;stroke-opacity:1"
                 d="m -410.51006,583.63372 -21.68434,21.68433 21.68434,21.68433"
                 id="path2659"
                 inkscape:connector-curvature="0" />
              <path
                 style="fill:none;stroke:#000000;stroke-width:4.09783;stroke-linecap:butt;stroke-linejoin:miter;stroke-miterlimit:4;stroke-dasharray:none;stroke-opacity:1"
                 d="m -401.26671,643.2106 13.19636,-75.51131"
                 id="path2661"
                 inkscape:connector-curvature="0"
                 sodipodi:nodetypes="cc" />
              <path
                 inkscape:connector-curvature="0"
                 id="path2663"
                 d="m -375.81513,583.63372 21.68434,21.68433 -21.68434,21.68433"
                 style="fill:none;stroke:#000000;stroke-width:8.19565;stroke-linecap:butt;stroke-linejoin:miter;stroke-miterlimit:4;stroke-dasharray:none;stroke-opacity:1" />
            </g>
          </g>
          <path
             sodipodi:nodetypes="cc"
             inkscape:connector-curvature="0"
             id="path2669"
             d="m 77.12055,96.010087 h -15.875"
             style="fill:none;stroke:#009e9f;stroke-width:2;stroke-linecap:butt;stroke-linejoin:miter;stroke-miterlimit:4;stroke-dasharray:2, 2;stroke-dashoffset:0;stroke-opacity:1" />
          <g
             id="g4578"
             transform="matrix(-1,0,0,1,201.8661,-0.07596476)" />
          <g
             transform="matrix(-0.04918918,0,0,0.04918918,163.77088,84.3574)"
             id="g2677">
            <g
               id="g2675">
              <path
                 inkscape:connector-curvature="0"
                 style="fill:#231f20"
                 d="M 240,480 C 107.664,480 0,372.336 0,240 0,107.664 107.664,0 240,0 372.336,0 480,107.664 480,240 480,372.336 372.336,480 240,480 Z M 240,20 C 118.691,20 20,118.691 20,240 20,361.309 118.691,460 240,460 361.309,460 460,361.309 460,240 460,118.691 361.309,20 240,20 Z"
                 id="path2673" />
            </g>
          </g>
          <g
             transform="matrix(-0.04918918,0,0,0.04918918,163.77089,84.3574)"
             id="g2685">
            <g
               id="g2683">
              <g
                 id="g2681">
                <path
                   inkscape:connector-curvature="0"
                   style="fill:#231f20"
                   d="m 265,430 h -50 c -11.028,0 -20,-8.972 -20,-20 v -27.057 c -8.439,-2.644 -16.56,-6 -24.271,-10.03 l -19.158,19.158 c -3.775,3.775 -8.79,5.854 -14.121,5.854 -5.332,0 -10.347,-2.079 -14.122,-5.854 L 87.929,356.672 c -3.774,-3.774 -5.854,-8.789 -5.854,-14.121 0,-5.331 2.078,-10.346 5.854,-14.121 l 19.158,-19.158 c -4.03,-7.711 -7.387,-15.831 -10.03,-24.271 H 70 c -11.028,0 -20,-8.972 -20,-20 v -50 c 0,-11.028 8.972,-20 20,-20 h 27.057 c 2.644,-8.439 6,-16.56 10.03,-24.271 L 87.929,151.572 c -3.775,-3.775 -5.854,-8.79 -5.854,-14.121 0,-5.332 2.079,-10.347 5.854,-14.122 L 123.328,87.93 c 3.774,-3.774 8.789,-5.854 14.121,-5.854 5.331,0 10.346,2.078 14.121,5.854 l 19.158,19.158 c 7.711,-4.03 15.831,-7.387 24.271,-10.03 V 70 c 0,-11.028 8.972,-20 20,-20 h 50 c 11.028,0 20,8.972 20,20 v 27.057 c 8.439,2.644 16.56,6 24.271,10.03 l 19.158,-19.158 c 3.775,-3.775 8.79,-5.854 14.121,-5.854 5.332,0 10.347,2.079 14.122,5.854 l 35.399,35.399 c 3.774,3.774 5.854,8.789 5.854,14.121 0,5.331 -2.078,10.346 -5.854,14.121 l -19.158,19.158 c 4.03,7.711 7.387,15.831 10.03,24.271 H 410 c 11.028,0 20,8.972 20,20 v 50 c 0,11.028 -8.972,20 -20,20 h -27.057 c -2.644,8.439 -6,16.56 -10.03,24.271 l 19.158,19.158 c 3.775,3.775 5.854,8.79 5.854,14.121 0,5.332 -2.079,10.347 -5.854,14.122 l -35.399,35.399 c -3.774,3.774 -8.789,5.854 -14.121,5.854 -5.331,0 -10.346,-2.078 -14.121,-5.854 l -19.158,-19.158 c -7.711,4.03 -15.831,7.387 -24.271,10.03 V 410 C 285,421.028 276.028,430 265,430 Z m -95.997,-79.5 c 1.754,0 3.52,0.46 5.107,1.404 10.254,6.097 21.486,10.744 33.387,13.813 4.417,1.14 7.503,5.122 7.503,9.684 V 410 h 50 v -34.6 c 0,-4.562 3.086,-8.544 7.503,-9.684 11.9,-3.068 23.133,-7.716 33.387,-13.813 3.929,-2.336 8.946,-1.711 12.182,1.524 l 24.5,24.5 35.357,-35.4 -24.5,-24.457 c -3.234,-3.234 -3.861,-8.251 -1.524,-12.182 6.097,-10.254 10.744,-21.486 13.813,-33.387 1.14,-4.417 5.122,-7.503 9.684,-7.503 H 410 v -50 h -34.6 c -4.562,0 -8.544,-3.086 -9.684,-7.503 -3.068,-11.9 -7.716,-23.133 -13.813,-33.387 -2.337,-3.931 -1.71,-8.947 1.524,-12.182 l 24.5,-24.5 -35.4,-35.357 -24.457,24.5 c -3.235,3.233 -8.253,3.861 -12.182,1.524 -10.254,-6.097 -21.486,-10.744 -33.387,-13.813 -4.417,-1.14 -7.503,-5.122 -7.503,-9.684 V 70 h -50 v 34.6 c 0,4.562 -3.086,8.544 -7.503,9.684 -11.9,3.068 -23.133,7.716 -33.387,13.813 -3.929,2.337 -8.946,1.711 -12.182,-1.524 l -24.5,-24.5 -35.357,35.4 24.5,24.457 c 3.234,3.234 3.861,8.251 1.524,12.182 -6.097,10.254 -10.744,21.486 -13.813,33.387 -1.14,4.417 -5.122,7.503 -9.684,7.503 H 70 v 50 h 34.6 c 4.562,0 8.544,3.086 9.684,7.503 3.068,11.9 7.716,23.133 13.813,33.387 2.337,3.931 1.71,8.947 -1.524,12.182 l -24.5,24.5 35.4,35.357 24.457,-24.5 c 1.926,-1.929 4.487,-2.931 7.073,-2.931 z"
                   id="path2679" />
              </g>
            </g>
          </g>
          <path
             inkscape:connector-curvature="0"
             id="path2689"
             d="m 149.30295,94.046134 2.64583,-2.645834 2.64584,2.645834"
             style="fill:none;stroke:#000000;stroke-width:0.999999;stroke-linecap:butt;stroke-linejoin:miter;stroke-miterlimit:4;stroke-dasharray:none;stroke-opacity:1" />
          <path
             sodipodi:nodetypes="cc"
             inkscape:connector-curvature="0"
             id="path2691"
             d="m 156.57228,95.173969 -9.21358,1.610166"
             style="fill:none;stroke:#000000;stroke-width:0.5;stroke-linecap:butt;stroke-linejoin:miter;stroke-miterlimit:4;stroke-dasharray:none;stroke-opacity:1" />
          <path
             style="fill:none;stroke:#000000;stroke-width:0.999999;stroke-linecap:butt;stroke-linejoin:miter;stroke-miterlimit:4;stroke-dasharray:none;stroke-opacity:1"
             d="m 149.30295,98.279466 2.64583,2.645834 2.64584,-2.645834"
             id="path2693"
             inkscape:connector-curvature="0" />
          <path
             style="opacity:1;fill:#bc9e9f;fill-opacity:1;fill-rule:nonzero;stroke:#ffffff;stroke-width:1.42857146;stroke-linecap:square;stroke-linejoin:round;stroke-miterlimit:4;stroke-dasharray:none;stroke-dashoffset:0;stroke-opacity:1;paint-order:stroke fill markers"
             d="m 122.24843,79.362553 c -0.19437,-1.456756 -0.7775,-2.661967 -1.83491,-3.792429 -1.02501,-1.095811 -2.15077,-1.731552 -3.61719,-2.042694 -0.69338,-0.147122 -5.60874,-0.212495 -15.97703,-0.212495 -12.915897,0 -15.130206,0.04028 -16.100065,0.292899 -2.071703,0.539613 -3.738644,1.958811 -4.66817,3.974388 l -0.428837,0.929887 v 17.575892 c 0,17.562919 2.64e-4,17.576519 0.404061,18.426339 0.649811,1.36769 1.508641,2.40561 2.572091,3.10845 1.906326,1.25989 1.591321,1.2386 18.27747,1.23532 16.21112,-0.003 16.32011,-0.009 18.01464,-1.00231 1.17987,-0.69145 2.49118,-2.21406 3.00767,-3.49234 l 0.43538,-1.07754 0.0268,-16.441968 c 0.0147,-9.043079 -0.0356,-16.909708 -0.1119,-17.481399 z"
             id="path2703"
             inkscape:connector-curvature="0" />
          <g
             transform="matrix(0,0.12201588,0.12201588,0,-9.9842709,63.360216)"
             id="g2433">
            <g
               transform="matrix(0.40313754,0,0,0.40313754,626.8277,476.86503)"
               id="XMLID_77_" />
            <g
               transform="translate(102.9436,4.1093924)"
               id="g2584">
              <g
                 transform="translate(-955.50313,414.76302)"
                 id="g2519">
                <g
                   id="g2509"
                   transform="matrix(0.40313754,0,0,0.40313754,594.92982,393.90235)">
                  <g
                     id="g2507">
                    <path
                       id="path2505"
                       d="M 240,480 C 107.664,480 0,372.336 0,240 0,107.664 107.664,0 240,0 372.336,0 480,107.664 480,240 480,372.336 372.336,480 240,480 Z M 240,20 C 118.691,20 20,118.691 20,240 20,361.309 118.691,460 240,460 361.309,460 460,361.309 460,240 460,118.691 361.309,20 240,20 Z"
                       style="fill:#231f20"
                       inkscape:connector-curvature="0" />
                  </g>
                </g>
                <g
                   id="g2517"
                   transform="matrix(0.40313754,0,0,0.40313754,594.92981,393.90235)">
                  <g
                     id="g2515">
                    <g
                       id="g2513">
                      <path
                         id="path2511"
                         d="m 265,430 h -50 c -11.028,0 -20,-8.972 -20,-20 v -27.057 c -8.439,-2.644 -16.56,-6 -24.271,-10.03 l -19.158,19.158 c -3.775,3.775 -8.79,5.854 -14.121,5.854 -5.332,0 -10.347,-2.079 -14.122,-5.854 L 87.929,356.672 c -3.774,-3.774 -5.854,-8.789 -5.854,-14.121 0,-5.331 2.078,-10.346 5.854,-14.121 l 19.158,-19.158 c -4.03,-7.711 -7.387,-15.831 -10.03,-24.271 H 70 c -11.028,0 -20,-8.972 -20,-20 v -50 c 0,-11.028 8.972,-20 20,-20 h 27.057 c 2.644,-8.439 6,-16.56 10.03,-24.271 L 87.929,151.572 c -3.775,-3.775 -5.854,-8.79 -5.854,-14.121 0,-5.332 2.079,-10.347 5.854,-14.122 L 123.328,87.93 c 3.774,-3.774 8.789,-5.854 14.121,-5.854 5.331,0 10.346,2.078 14.121,5.854 l 19.158,19.158 c 7.711,-4.03 15.831,-7.387 24.271,-10.03 V 70 c 0,-11.028 8.972,-20 20,-20 h 50 c 11.028,0 20,8.972 20,20 v 27.057 c 8.439,2.644 16.56,6 24.271,10.03 l 19.158,-19.158 c 3.775,-3.775 8.79,-5.854 14.121,-5.854 5.332,0 10.347,2.079 14.122,5.854 l 35.399,35.399 c 3.774,3.774 5.854,8.789 5.854,14.121 0,5.331 -2.078,10.346 -5.854,14.121 l -19.158,19.158 c 4.03,7.711 7.387,15.831 10.03,24.271 H 410 c 11.028,0 20,8.972 20,20 v 50 c 0,11.028 -8.972,20 -20,20 h -27.057 c -2.644,8.439 -6,16.56 -10.03,24.271 l 19.158,19.158 c 3.775,3.775 5.854,8.79 5.854,14.121 0,5.332 -2.079,10.347 -5.854,14.122 l -35.399,35.399 c -3.774,3.774 -8.789,5.854 -14.121,5.854 -5.331,0 -10.346,-2.078 -14.121,-5.854 l -19.158,-19.158 c -7.711,4.03 -15.831,7.387 -24.271,10.03 V 410 C 285,421.028 276.028,430 265,430 Z m -95.997,-79.5 c 1.754,0 3.52,0.46 5.107,1.404 10.254,6.097 21.486,10.744 33.387,13.813 4.417,1.14 7.503,5.122 7.503,9.684 V 410 h 50 v -34.6 c 0,-4.562 3.086,-8.544 7.503,-9.684 11.9,-3.068 23.133,-7.716 33.387,-13.813 3.929,-2.336 8.946,-1.711 12.182,1.524 l 24.5,24.5 35.357,-35.4 -24.5,-24.457 c -3.234,-3.234 -3.861,-8.251 -1.524,-12.182 6.097,-10.254 10.744,-21.486 13.813,-33.387 1.14,-4.417 5.122,-7.503 9.684,-7.503 H 410 v -50 h -34.6 c -4.562,0 -8.544,-3.086 -9.684,-7.503 -3.068,-11.9 -7.716,-23.133 -13.813,-33.387 -2.337,-3.931 -1.71,-8.947 1.524,-12.182 l 24.5,-24.5 -35.4,-35.357 -24.457,24.5 c -3.235,3.233 -8.253,3.861 -12.182,1.524 -10.254,-6.097 -21.486,-10.744 -33.387,-13.813 -4.417,-1.14 -7.503,-5.122 -7.503,-9.684 V 70 h -50 v 34.6 c 0,4.562 -3.086,8.544 -7.503,9.684 -11.9,3.068 -23.133,7.716 -33.387,13.813 -3.929,2.337 -8.946,1.711 -12.182,-1.524 l -24.5,-24.5 -35.357,35.4 24.5,24.457 c 3.234,3.234 3.861,8.251 1.524,12.182 -6.097,10.254 -10.744,21.486 -13.813,33.387 -1.14,4.417 -5.122,7.503 -9.684,7.503 H 70 v 50 h 34.6 c 4.562,0 8.544,3.086 9.684,7.503 3.068,11.9 7.716,23.133 13.813,33.387 2.337,3.931 1.71,8.947 -1.524,12.182 l -24.5,24.5 35.4,35.357 24.457,-24.5 c 1.926,-1.929 4.487,-2.931 7.073,-2.931 z"
                         style="fill:#231f20"
                         inkscape:connector-curvature="0" />
                    </g>
                  </g>
                </g>
              </g>
              <g
                 id="g2554"
                 transform="translate(129.34229,299.96343)">
                <path
                   style="fill:none;stroke:#000000;stroke-width:8.19565;stroke-linecap:butt;stroke-linejoin:miter;stroke-miterlimit:4;stroke-dasharray:none;stroke-opacity:1"
                   d="m -410.51006,583.63372 -21.68434,21.68433 21.68434,21.68433"
                   id="path2548"
                   inkscape:connector-curvature="0" />
                <path
                   style="fill:none;stroke:#000000;stroke-width:4.09783;stroke-linecap:butt;stroke-linejoin:miter;stroke-miterlimit:4;stroke-dasharray:none;stroke-opacity:1"
                   d="m -401.26671,643.2106 13.19636,-75.51131"
                   id="path2550"
                   inkscape:connector-curvature="0"
                   sodipodi:nodetypes="cc" />
                <path
                   inkscape:connector-curvature="0"
                   id="path2552"
                   d="m -375.81513,583.63372 21.68434,21.68433 -21.68434,21.68433"
                   style="fill:none;stroke:#000000;stroke-width:8.19565;stroke-linecap:butt;stroke-linejoin:miter;stroke-miterlimit:4;stroke-dasharray:none;stroke-opacity:1" />
              </g>
            </g>
          </g>
          <path
             inkscape:connector-curvature="0"
             id="path2705"
             d="m 111.11443,40.336512 c -1.51917,-4.451289 -5.44762,-7.276041 -10.11897,-7.276041 -4.583153,0 -8.538576,2.830277 -10.186477,7.288863 -0.568167,1.537242 -0.604163,4.941853 -0.06949,6.572287 1.034679,3.15513 3.649678,5.817044 6.832179,6.954758 1.569519,0.561089 4.318718,0.683141 5.925188,0.263057 2.6018,-0.680361 4.74811,-2.154608 6.24966,-4.292748 1.93283,-2.752241 2.44916,-6.341984 1.3679,-9.510176 z m -1.07377,5.300258 c -0.33331,0.333309 -0.67054,0.463881 -1.19809,0.463881 -0.61102,0 -0.77253,0.08411 -0.96263,0.501332 -0.20672,0.453713 -0.1737,0.557784 0.34765,1.095679 0.85772,0.884944 0.75971,1.325827 -0.59966,2.697382 -1.34917,1.361268 -1.72567,1.448136 -2.67268,0.616644 -0.55485,-0.487159 -0.71995,-0.542552 -1.14051,-0.382654 -0.42184,0.160382 -0.49175,0.299701 -0.49175,0.979958 0,1.283608 -0.32013,1.484218 -2.3685,1.484218 -2.004908,0 -2.160623,-0.09658 -2.311322,-1.43359 -0.07547,-0.669575 -0.197173,-0.911762 -0.535673,-1.065993 -0.373279,-0.170076 -0.537932,-0.111842 -1.114112,0.394052 -0.371856,0.326496 -0.857407,0.593625 -1.079,0.593625 -0.53815,0 -2.796747,-2.258597 -2.796747,-2.796747 0,-0.221593 0.267132,-0.707143 0.593625,-1.078999 0.519557,-0.591744 0.567224,-0.734045 0.382026,-1.140503 -0.170669,-0.374584 -0.350456,-0.464404 -0.92955,-0.464404 -0.394872,0 -0.906965,-0.13239 -1.137978,-0.294199 -0.383318,-0.268485 -0.420029,-0.449238 -0.420029,-2.068152 0,-1.618914 0.03671,-1.799667 0.420029,-2.068153 0.231013,-0.161811 0.743106,-0.294198 1.137978,-0.294198 0.579094,0 0.758881,-0.08982 0.92955,-0.464405 0.185198,-0.40646 0.137531,-0.548761 -0.382026,-1.140505 -0.326493,-0.371856 -0.593625,-0.850593 -0.593625,-1.063857 0,-0.217837 0.510035,-0.918909 1.163884,-1.599825 1.353473,-1.409501 1.810911,-1.51689 2.717683,-0.638013 0.503616,0.488124 0.663692,0.546894 1.069449,0.392626 0.389543,-0.148106 0.495086,-0.340281 0.574678,-1.046417 0.150098,-1.331672 0.309967,-1.432166 2.27832,-1.432166 2.06839,0 2.40134,0.20124 2.40134,1.45138 0,0.715629 0.0656,0.850784 0.49175,1.012796 0.42056,0.159898 0.58566,0.104505 1.14051,-0.382654 0.35681,-0.313287 0.83486,-0.569616 1.06231,-0.569616 0.25399,0 0.8713,0.453665 1.59983,1.175716 1.37621,1.363977 1.47743,1.813171 0.6102,2.707928 -0.52135,0.537893 -0.55437,0.641964 -0.34765,1.09568 0.1901,0.417221 0.35161,0.501332 0.96263,0.501332 0.52755,0 0.86478,0.130569 1.19809,0.463878 0.41104,0.411036 0.46388,0.627309 0.46388,1.898473 0,1.271161 -0.0528,1.487437 -0.46388,1.89847 z"
             style="fill:#3f7acd;fill-opacity:1;fill-rule:nonzero;stroke:#000000;stroke-width:1.42857;stroke-linecap:square;stroke-linejoin:round;stroke-miterlimit:4;stroke-dasharray:none;stroke-dashoffset:0;stroke-opacity:1;paint-order:stroke fill markers" />
          <path
             inkscape:connector-curvature="0"
             id="path2709"
             d="m 108.2343,42.509876 h -0.94732 l -0.47009,-1.06295 c -0.25855,-0.584623 -0.47009,-1.155089 -0.47009,-1.267701 0,-0.112614 0.29764,-0.509563 0.66143,-0.88211 l 0.66142,-0.67736 -0.81187,-0.796784 -0.81186,-0.796788 -0.64259,0.662977 c -0.35342,0.364638 -0.74288,0.662977 -0.86547,0.662977 -0.12259,0 -0.70122,-0.211537 -1.28585,-0.470085 l -1.06295,-0.470088 v -0.947325 -0.947322 h -1.13392 -1.133934 l -0.0029,0.803199 c -0.0016,0.441761 -0.06538,0.889042 -0.141742,0.99396 -0.143444,0.197075 -2.088732,1.037661 -2.401359,1.037661 -0.09698,0 -0.458472,-0.273455 -0.803301,-0.607676 l -0.626965,-0.607677 -0.792911,0.792912 -0.792909,0.792908 0.607677,0.626965 c 0.334222,0.344829 0.607676,0.699227 0.607676,0.787551 0,0.08832 -0.181483,0.658325 -0.403299,1.266671 l -0.403299,1.106085 h -1.014111 -1.014111 v 1.228424 1.228421 h 1.014111 1.014111 l 0.403299,1.106085 c 0.221816,0.608348 0.403299,1.178351 0.403299,1.266674 0,0.08832 -0.273454,0.442719 -0.607676,0.787551 l -0.607677,0.626962 0.792909,0.792911 0.792911,0.792909 0.660342,-0.640027 0.660342,-0.64003 1.076357,0.363082 c 1.379434,0.465315 1.579218,0.680315 1.579218,1.699496 v 0.836948 h 1.133922 1.13393 v -0.947325 -0.947324 l 1.06295,-0.470085 c 0.58463,-0.258549 1.15509,-0.470088 1.26771,-0.470088 0.11261,0 0.50956,0.29764 0.8821,0.661424 l 0.67736,0.661424 0.79679,-0.811866 0.79678,-0.811866 -0.66297,-0.642583 c -0.36464,-0.353423 -0.66298,-0.742887 -0.66298,-0.865476 0,-0.122592 0.21154,-0.701223 0.47009,-1.285846 l 0.47008,-1.06295 h 0.94733 0.94732 V 43.7383 42.509876 Z m -2.53677,0.566965 c -0.0453,0 -2.01732,0.340178 -4.38232,0.755952 -4.820504,0.847458 -4.984775,0.86347 -4.984775,0.48587 0,-0.304239 0.308782,-0.375732 5.431275,-1.257514 1.8958,-0.32634 3.57543,-0.544026 3.73252,-0.483746 0.25263,0.09694 0.41647,0.499438 0.2033,0.499438 z m -2.4456,-1.13393 c -0.1108,0 -0.67436,-0.467965 -1.25235,-1.039921 l -1.05089,-1.039923 -1.027,1.039923 c -0.564853,0.571956 -1.10826,1.039921 -1.207569,1.039921 -0.09931,0 -0.339386,-0.143734 -0.533505,-0.31941 -0.339749,-0.307467 -0.294532,-0.378126 1.209479,-1.889993 l 1.562425,-1.570582 1.55811,1.550019 c 1.46504,1.457428 1.53974,1.570326 1.25044,1.889993 -0.16922,0.186986 -0.39833,0.339973 -0.50914,0.339973 z m -3.842492,5.819537 -1.559321,-1.551223 0.411474,-0.437994 0.411475,-0.437996 1.149292,1.139076 1.149292,1.139076 1.11949,-1.131295 1.11949,-1.131294 0.43948,0.412871 0.43948,0.412875 -1.56041,1.568563 -1.56042,1.568567 z"
             style="fill:#da8f6a;fill-opacity:1;fill-rule:nonzero;stroke:#000000;stroke-width:1.42857;stroke-linecap:square;stroke-linejoin:round;stroke-miterlimit:4;stroke-dasharray:none;stroke-dashoffset:0;stroke-opacity:1;paint-order:stroke fill markers" />
          <path
             style="opacity:1;fill:#3f7acd;fill-opacity:1;fill-rule:nonzero;stroke:#000000;stroke-width:1.42857146;stroke-linecap:square;stroke-linejoin:round;stroke-miterlimit:4;stroke-dasharray:none;stroke-dashoffset:0;stroke-opacity:1;paint-order:stroke fill markers"
             d="m 162.38978,93.637086 c -1.22006,-5.031571 -6.21134,-8.675883 -11.24217,-8.208317 -4.51805,0.419907 -8.23536,3.487478 -9.51908,7.855265 -0.38628,1.31431 -0.39248,4.1207 -0.0123,5.58024 0.45207,1.735596 1.37379,3.287526 2.82319,4.753486 2.13054,2.1549 4.55004,3.16811 7.56526,3.16811 2.93835,0 5.48489,-1.06937 7.55953,-3.17447 2.57816,-2.61602 3.67284,-6.480227 2.82558,-9.974314 z m -1.36127,4.436639 c -0.18209,0.16479 -0.70701,0.326797 -1.16649,0.360021 -0.72088,0.05212 -0.85917,0.132091 -1.00865,0.583285 -0.148,0.44672 -0.0882,0.619715 0.41054,1.187749 0.32107,0.36568 0.58376,0.80846 0.58376,0.98394 0,0.17549 -0.52907,0.85289 -1.17571,1.50533 -1.35978,1.37197 -1.8141,1.47653 -2.69707,0.62072 -0.54256,-0.52586 -0.62606,-0.54947 -1.19018,-0.33654 -0.55778,0.21054 -0.60668,0.29682 -0.60668,1.07038 0,1.31132 -0.31801,1.5326 -2.20265,1.5326 -1.92787,0 -2.33306,-0.27578 -2.33306,-1.58791 0,-0.74793 -0.0553,-0.85125 -0.54752,-1.02283 -0.48389,-0.16868 -0.6088,-0.1269 -1.07479,0.35949 -0.86487,0.90272 -1.51181,0.77066 -2.79015,-0.56955 -1.24817,-1.30858 -1.33357,-1.7775 -0.49721,-2.73006 0.50949,-0.580284 0.54693,-0.703103 0.34764,-1.140504 -0.18814,-0.412922 -0.34692,-0.490189 -1.00734,-0.490189 -1.27866,0 -1.50239,-0.291798 -1.58289,-2.064512 -0.0927,-2.04089 0.16303,-2.471203 1.46848,-2.471203 0.86674,0 0.93471,-0.03617 1.13215,-0.602554 0.19218,-0.55128 0.16159,-0.652563 -0.35949,-1.190172 -0.87398,-0.901719 -0.76513,-1.361335 0.64253,-2.71303 0.66663,-0.640138 1.34675,-1.163886 1.51136,-1.163886 0.16461,0 0.61845,0.282228 1.00854,0.627174 0.62332,0.551182 0.77222,0.604006 1.22897,0.435985 0.45093,-0.16588 0.51972,-0.293349 0.51972,-0.963096 0,-0.424551 0.13239,-0.960925 0.2942,-1.19194 0.26591,-0.37964 0.45323,-0.420026 1.94825,-0.420026 2.01289,0 2.25744,0.147071 2.3323,1.402635 0.0496,0.831501 0.11202,0.94892 0.58868,1.106935 0.42926,0.142301 0.61351,0.103725 0.94494,-0.197845 0.78555,-0.714761 1.20627,-0.83843 1.80284,-0.529931 0.72626,0.375563 2.29414,2.137984 2.29414,2.578796 0,0.193026 -0.26269,0.650152 -0.58376,1.015833 -0.49891,0.568224 -0.55855,0.740881 -0.41027,1.187752 0.15315,0.461552 0.28938,0.534693 1.16149,0.623633 0.56854,0.05798 1.06243,0.218451 1.16333,0.377976 0.0964,0.152471 0.17663,1.008181 0.17823,1.901576 0.002,1.310111 -0.0612,1.682319 -0.32818,1.923968 z"
             id="path2715"
             inkscape:connector-curvature="0" />
          <path
             inkscape:connector-curvature="0"
             id="path2717"
             d="m 111.18267,145.1265 c -1.38952,-4.31336 -5.55232,-7.36662 -10.04365,-7.36662 -4.29091,0 -7.932151,2.28407 -9.791679,6.14211 -2.895121,6.00663 0.529658,13.22885 7.081752,14.93409 1.789437,0.46571 4.571987,0.30805 6.307937,-0.35741 3.25832,-1.24907 5.76256,-4.00279 6.64052,-7.30207 0.43817,-1.64658 0.3509,-4.35587 -0.19488,-6.0501 z m -1.12222,5.20967 c -0.33331,0.33331 -0.67054,0.46388 -1.19809,0.46388 -0.61102,0 -0.77253,0.0841 -0.96263,0.50134 -0.20672,0.45371 -0.1737,0.55778 0.34765,1.09567 0.85772,0.88495 0.75971,1.32583 -0.59966,2.69739 -1.34917,1.36127 -1.72567,1.44813 -2.67268,0.61664 -0.55485,-0.48716 -0.71995,-0.54255 -1.14051,-0.38265 -0.42184,0.16038 -0.49175,0.2997 -0.49175,0.97996 0,1.2836 -0.32013,1.48421 -2.3685,1.48421 -2.004569,0 -2.160636,-0.0967 -2.31116,-1.43216 -0.07884,-0.69949 -0.186571,-0.89886 -0.563017,-1.04198 -0.388099,-0.14756 -0.573408,-0.0823 -1.114275,0.39262 -0.356817,0.31329 -0.844928,0.56962 -1.084693,0.56962 -0.549135,0 -2.763708,-2.25318 -2.763708,-2.81189 0,-0.21327 0.267131,-0.692 0.593624,-1.06386 0.519557,-0.59174 0.567225,-0.73404 0.382027,-1.1405 -0.17067,-0.37459 -0.350457,-0.46441 -0.92955,-0.46441 -0.394872,0 -0.906965,-0.13239 -1.137978,-0.2942 -0.383318,-0.26848 -0.420029,-0.44923 -0.420029,-2.06815 0,-1.61891 0.03671,-1.79966 0.420029,-2.06815 0.231013,-0.16181 0.743106,-0.2942 1.137978,-0.2942 0.579093,0 0.75888,-0.0898 0.92955,-0.4644 0.185198,-0.40646 0.13753,-0.54876 -0.382027,-1.14051 -0.326493,-0.37185 -0.593624,-0.8574 -0.593624,-1.079 0,-0.53815 2.258597,-2.79674 2.796746,-2.79674 0.221594,0 0.707144,0.26713 1.079,0.59362 0.576181,0.5059 0.740833,0.56413 1.114113,0.39405 0.3385,-0.15423 0.4602,-0.39641 0.535673,-1.06599 0.150272,-1.33322 0.309792,-1.43359 2.278481,-1.43359 2.06839,0 2.40134,0.20124 2.40134,1.45138 0,0.71563 0.0656,0.85078 0.49175,1.0128 0.42056,0.15989 0.58566,0.1045 1.14051,-0.38266 0.35681,-0.31329 0.83486,-0.56961 1.06231,-0.56961 0.25399,0 0.8713,0.45366 1.59983,1.17571 1.37621,1.36398 1.47743,1.81317 0.6102,2.70793 -0.52135,0.53789 -0.55437,0.64197 -0.34765,1.09568 0.1901,0.41722 0.35161,0.50133 0.96263,0.50133 0.52755,0 0.86478,0.13057 1.19809,0.46388 0.41104,0.41103 0.46388,0.62731 0.46388,1.89847 0,1.27117 -0.0528,1.48744 -0.46388,1.89847 z"
             style="fill:#3f7acd;fill-opacity:1;fill-rule:nonzero;stroke:#000000;stroke-width:1.42857;stroke-linecap:square;stroke-linejoin:round;stroke-miterlimit:4;stroke-dasharray:none;stroke-dashoffset:0;stroke-opacity:1;paint-order:stroke fill markers" />
          <path
             inkscape:connector-curvature="0"
             id="path2719"
             d="m 108.25409,147.20928 h -0.94732 l -0.47009,-1.06295 c -0.25855,-0.58462 -0.47009,-1.15509 -0.47009,-1.2677 0,-0.11261 0.29764,-0.50956 0.66143,-0.88211 l 0.66142,-0.67736 -0.81187,-0.79679 -0.81186,-0.79678 -0.64259,0.66297 c -0.35342,0.36464 -0.74288,0.66298 -0.86547,0.66298 -0.12259,0 -0.70122,-0.21154 -1.28585,-0.47009 l -1.06295,-0.47008 v -0.94733 -0.94732 h -1.13392 -1.133933 l -0.0029,0.8032 c -0.0016,0.44176 -0.06538,0.89228 -0.141743,1.00116 -0.148082,0.21113 -2.037003,1.03046 -2.375662,1.03046 -0.11112,0 -0.484169,-0.27345 -0.828998,-0.60767 l -0.626964,-0.60768 -0.792912,0.79291 -0.792908,0.79291 0.607676,0.62696 c 0.334222,0.34483 0.607677,0.69923 0.607677,0.78755 0,0.0883 -0.181483,0.65833 -0.403299,1.26668 l -0.403299,1.10608 H 93.77357 92.759459 v 1.22842 1.22843 h 1.014111 1.014111 l 0.403299,1.10608 c 0.221816,0.60835 0.403299,1.17835 0.403299,1.26667 0,0.0883 -0.273455,0.44272 -0.607677,0.78755 l -0.607676,0.62697 0.792908,0.79291 0.792912,0.79291 0.626964,-0.60768 c 0.344829,-0.33422 0.706316,-0.60768 0.803302,-0.60768 0.312626,0 2.257914,0.84059 2.401358,1.03767 0.07637,0.10491 0.14015,0.55219 0.141743,0.99396 l 0.0029,0.80319 h 1.133937 1.13392 v -0.94732 -0.94732 l 1.06295,-0.47009 c 0.58463,-0.25855 1.15509,-0.47009 1.26771,-0.47009 0.11261,0 0.50956,0.29764 0.88211,0.66143 l 0.67736,0.66142 0.79678,-0.81187 0.79679,-0.81186 -0.66298,-0.64259 c -0.36464,-0.35342 -0.66298,-0.74288 -0.66298,-0.86547 0,-0.12259 0.21154,-0.70122 0.47009,-1.28584 l 0.47009,-1.06295 h 0.94732 0.94732 v -1.22843 -1.22842 z m -2.74306,2.39047 c -0.23234,0.0891 -7.059151,-0.99479 -8.735582,-1.38702 -0.519676,-0.12158 -0.567553,-0.62547 -0.05943,-0.62547 0.201186,0 2.300795,0.34017 4.665792,0.75595 2.36501,0.41577 4.32652,0.75595 4.35891,0.75595 0.19682,0 0.009,0.40892 -0.22969,0.50059 z m -2.2393,-2.95743 c -0.11081,0 -0.67437,-0.46797 -1.25236,-1.03993 l -1.05089,-1.03992 -1.026999,1.03992 c -0.564854,0.57196 -1.10826,1.03993 -1.207569,1.03993 -0.09931,0 -0.339386,-0.14374 -0.533506,-0.31941 -0.339749,-0.30747 -0.294531,-0.37813 1.209479,-1.89 l 1.562425,-1.57058 1.55811,1.55002 c 1.46504,1.45743 1.53974,1.57032 1.25044,1.88999 -0.16922,0.18699 -0.39833,0.33998 -0.50913,0.33998 z m -3.841289,5.82074 c -1.465038,-1.45743 -1.539735,-1.57033 -1.25044,-1.89 0.16922,-0.18698 0.403704,-0.33997 0.521073,-0.33997 0.11737,0 0.675553,0.46796 1.240407,1.03992 l 1.026999,1.03992 1.05089,-1.03992 c 0.57799,-0.57196 1.12677,-1.03992 1.21952,-1.03992 0.0927,0 0.32745,0.14373 0.52157,0.31941 0.33975,0.30747 0.29453,0.37813 -1.20948,1.88999 l -1.56243,1.57059 z"
             style="fill:#da8f6a;fill-opacity:1;fill-rule:nonzero;stroke:#000000;stroke-width:1.42857;stroke-linecap:square;stroke-linejoin:round;stroke-miterlimit:4;stroke-dasharray:none;stroke-dashoffset:0;stroke-opacity:1;paint-order:stroke fill markers" />
          <path
             style="opacity:1;fill:#da8f6a;fill-opacity:1;fill-rule:nonzero;stroke:#000000;stroke-width:1.42857146;stroke-linecap:square;stroke-linejoin:round;stroke-miterlimit:4;stroke-dasharray:none;stroke-dashoffset:0;stroke-opacity:1;paint-order:stroke fill markers"
             d="M 159.27833,94.952915 H 158.331 l -0.47008,-1.06295 c -0.60336,-1.364295 -0.59325,-1.532318 0.13758,-2.286346 l 0.60768,-0.626965 -0.78485,-0.784855 -0.78486,-0.784857 -0.75203,0.679413 -0.75203,0.679415 -1.00792,-0.413202 c -1.46601,-0.600996 -1.48039,-0.616998 -1.48039,-1.647415 v -0.933786 h -1.13393 -1.13393 v 1.020948 c 0,0.941927 -0.0402,1.035582 -0.51971,1.210035 -0.28585,0.103999 -0.83864,0.326072 -1.22843,0.493495 l -0.70871,0.304409 -0.7087,-0.653103 -0.7087,-0.653106 -0.80317,0.784376 -0.80316,0.784373 0.68554,0.702054 0.68553,0.702053 -0.44756,1.101267 c -0.24616,0.605695 -0.53341,1.163746 -0.63833,1.240113 -0.10491,0.07636 -0.55219,0.140147 -0.99396,0.14174 l -0.80319,0.0029 v 1.12405 1.124054 l 0.9574,0.05712 0.9574,0.05712 0.48088,1.199086 0.48087,1.199084 -0.68229,0.698725 -0.68229,0.69873 0.8083,0.79329 0.80829,0.79328 0.68187,-0.68187 0.68187,-0.68186 1.20288,0.48248 1.20288,0.48249 0.0567,1.05181 0.0567,1.05181 h 1.11462 1.11462 l 0.0571,-0.97272 c 0.0613,-1.04303 0.0454,-1.02549 1.53391,-1.69494 l 0.90982,-0.40918 0.74692,0.72935 0.74692,0.72935 0.79357,-0.79358 0.79357,-0.79357 -0.63218,-0.65225 c -0.67017,-0.691434 -0.68296,-0.854502 -0.17181,-2.190081 0.40768,-1.065223 0.49794,-1.133928 1.48967,-1.133928 h 0.93379 v -1.13393 -1.133927 z m -7.22112,1.267005 c -4.43207,0.769435 -4.85216,0.790549 -4.86885,0.244692 -0.002,-0.05209 1.88935,-0.422441 4.2021,-0.823015 2.31274,-0.400571 4.43886,-0.772549 4.7247,-0.826614 0.41723,-0.07892 0.51962,-0.02843 0.51921,0.25605 -5.3e-4,0.314796 -0.51138,0.443043 -4.57716,1.148887 z m 2.53589,-2.151022 c -0.32036,0.289922 -0.40819,0.240469 -1.45915,-0.821571 l -1.11827,-1.130065 -1.18679,1.176237 -1.18678,1.176234 -0.42178,-0.421775 -0.42178,-0.421777 1.55431,-1.554305 1.5543,-1.554306 1.51341,1.504532 c 0.83238,0.827495 1.51341,1.557134 1.51341,1.62142 0,0.06428 -0.15339,0.255704 -0.34088,0.425376 z m -1.17253,6.082682 -1.51341,1.50454 -1.5543,-1.55431 -1.55431,-1.554302 0.42155,-0.421548 0.42155,-0.421547 1.13426,1.122426 1.13426,1.122428 1.12758,-1.115808 c 1.10893,-1.09736 1.13392,-1.110057 1.5119,-0.767991 0.21138,0.191297 0.38433,0.400413 0.38433,0.464699 0,0.06429 -0.68103,0.793924 -1.51341,1.621413 z"
             id="path2721"
             inkscape:connector-curvature="0" />
          <path
             inkscape:connector-curvature="0"
             id="path2711"
             d="m 60.343281,93.715174 c -0.649713,-2.990127 -2.922108,-5.827704 -5.761976,-7.195071 -4.342509,-2.090872 -9.019479,-1.252842 -12.417761,2.225045 -1.875221,1.919145 -2.917272,4.553416 -2.917272,7.374758 0,3.006865 0.970441,5.332034 3.124369,7.485964 2.158617,2.15861 4.574075,3.16811 7.580456,3.16811 4.113791,0 7.75122,-2.2802 9.521758,-5.96891 1.145765,-2.387067 1.415278,-4.582352 0.870426,-7.089896 z m -1.368345,4.346657 c -0.182086,0.164791 -0.712039,0.326798 -1.177666,0.360021 -0.722773,0.05157 -0.872471,0.134409 -1.023493,0.566375 -0.151159,0.432351 -0.0898,0.605171 0.421714,1.187753 0.329237,0.37498 0.598612,0.81375 0.598612,0.97504 0,0.1613 -0.523748,0.8387 -1.163883,1.50533 -1.350111,1.406 -1.811671,1.51616 -2.708902,0.64653 -0.542552,-0.52586 -0.626058,-0.54948 -1.190176,-0.33654 -0.557778,0.21053 -0.606681,0.29681 -0.606681,1.07037 0,1.31133 -0.318011,1.5326 -2.202654,1.5326 -1.918097,0 -2.333061,-0.27835 -2.333061,-1.56496 0,-0.72067 -0.06034,-0.83179 -0.552548,-1.01758 -0.497158,-0.18766 -0.604899,-0.15392 -1.074793,0.33654 -0.836393,0.87301 -1.45986,0.75206 -2.761152,-0.53566 -1.27825,-1.26491 -1.383025,-1.78398 -0.552998,-2.73966 0.457176,-0.526389 0.51226,-0.699823 0.362228,-1.140508 -0.157223,-0.461809 -0.269941,-0.519718 -1.011634,-0.519718 -1.294488,0 -1.590652,-0.41442 -1.590652,-2.225805 0,-1.93099 0.24674,-2.30991 1.504136,-2.30991 0.859591,0 0.928613,-0.03694 1.125788,-0.602555 0.192175,-0.55128 0.161584,-0.652563 -0.359489,-1.190172 -0.87398,-0.901719 -0.765127,-1.361334 0.642525,-2.71303 0.666636,-0.640138 1.346747,-1.163886 1.511361,-1.163886 0.16461,0 0.618455,0.282229 1.008544,0.627174 0.623318,0.551182 0.772218,0.604006 1.228968,0.435985 0.461132,-0.169632 0.519716,-0.286583 0.519716,-1.037513 0,-1.325787 0.311279,-1.53811 2.2499,-1.534657 0.893397,0.0016 1.749105,0.08179 1.901576,0.178226 0.159525,0.100893 0.319998,0.594788 0.377976,1.163325 0.08956,0.878213 0.160192,1.007716 0.635659,1.1655 0.450379,0.149461 0.614624,0.102921 1.039434,-0.294539 0.975109,-0.912326 1.228455,-0.861129 2.681795,0.541954 0.725459,0.70037 1.319017,1.42658 1.319017,1.613797 0,0.187216 -0.262694,0.639588 -0.583766,1.005268 -0.498909,0.568225 -0.558546,0.740881 -0.410266,1.187752 0.153152,0.461552 0.289378,0.534694 1.161495,0.623633 0.568534,0.05798 1.062429,0.218451 1.163322,0.377976 0.09643,0.152472 0.176636,1.008182 0.178226,1.901576 0.0024,1.310111 -0.06115,1.682319 -0.328178,1.923968 z"
             style="fill:#3f7acd;fill-opacity:1;fill-rule:nonzero;stroke:#000000;stroke-width:1.42857;stroke-linecap:square;stroke-linejoin:round;stroke-miterlimit:4;stroke-dasharray:none;stroke-dashoffset:0;stroke-opacity:1;paint-order:stroke fill markers" />
          <path
             inkscape:connector-curvature="0"
             id="path2725"
             d="m 57.238293,94.985979 c -0.991727,0 -1.081987,-0.0687 -1.48967,-1.13393 -0.511152,-1.33558 -0.498359,-1.498648 0.171802,-2.190081 l 0.632187,-0.652251 -0.784857,-0.784855 -0.784858,-0.784857 -0.752028,0.679413 -0.75203,0.679416 -1.00792,-0.413203 C 51.004911,89.784636 50.990531,89.768634 50.990531,88.738216 V 87.80443 h -1.133928 -1.133927 v 1.020948 c 0,0.941927 -0.04023,1.035582 -0.519719,1.210035 -0.285845,0.104 -0.838636,0.326072 -1.228428,0.493495 l -0.708711,0.304409 -0.708699,-0.653103 -0.7087,-0.653105 -0.803164,0.784375 -0.803166,0.784374 0.685538,0.702053 0.685538,0.702053 -0.447567,1.101268 c -0.24616,0.605694 -0.533408,1.163745 -0.638325,1.240112 -0.104918,0.07636 -0.59472,0.140147 -1.088451,0.14174 l -0.897694,0.0029 v 1.124498 1.124497 l 1.051808,0.05668 1.051812,0.05668 0.480959,1.199086 0.480962,1.199084 -0.682289,0.698731 -0.682291,0.69873 0.808299,0.79328 0.808297,0.79328 0.681866,-0.68186 0.681868,-0.68187 1.20288,0.48248 1.202881,0.48249 0.05668,1.05181 0.05668,1.05181 h 1.124498 1.124495 v -0.9218 c 0,-1.02403 0.04405,-1.07561 1.468845,-1.71995 l 0.996375,-0.45059 0.754859,0.7371 0.754857,0.7371 0.793572,-0.79357 0.793573,-0.79358 -0.607676,-0.62696 c -0.699924,-0.722135 -0.719749,-0.859462 -0.291653,-2.02006 0.45471,-1.232749 0.570632,-1.329234 1.596996,-1.329234 h 0.9218 v -1.133931 -1.133927 z m -3.082211,2.39786 c -0.233873,-0.05498 -2.296205,-0.418047 -4.582961,-0.806818 -2.286757,-0.38877 -4.23853,-0.778232 -4.337278,-0.865468 -0.11271,-0.09957 -0.106315,-0.231835 0.0172,-0.355335 0.136308,-0.136308 1.598941,0.04815 4.7625,0.600607 4.109537,0.717661 4.565774,0.833789 4.565774,1.162153 0,0.281959 -0.09658,0.342117 -0.425222,0.264861 z m -1.660001,-3.242556 c -0.377978,0.342064 -0.402973,0.329369 -1.511906,-0.767993 l -1.127572,-1.115808 -1.134263,1.122428 -1.134264,1.122429 -0.421547,-0.421548 -0.421547,-0.421547 1.554305,-1.554305 1.554305,-1.554306 1.513412,1.504532 c 0.832373,0.827495 1.513408,1.557134 1.513408,1.62142 0,0.06429 -0.172947,0.273399 -0.384331,0.464698 z m -1.129077,6.043367 -1.513412,1.50453 -1.554305,-1.5543 -1.554305,-1.554309 0.421547,-0.421548 0.421547,-0.421547 1.134264,1.122426 1.134263,1.122429 1.127572,-1.115809 c 1.108933,-1.09736 1.133928,-1.110057 1.511906,-0.76799 0.211384,0.191296 0.384331,0.400412 0.384331,0.464698 0,0.06429 -0.681035,0.793925 -1.513408,1.62142 z"
             style="fill:#da8f6a;fill-opacity:1;fill-rule:nonzero;stroke:#000000;stroke-width:1.42857;stroke-linecap:square;stroke-linejoin:round;stroke-miterlimit:4;stroke-dasharray:none;stroke-dashoffset:0;stroke-opacity:1;paint-order:stroke fill markers" />
          <path
             style="fill:none;stroke:#009e9f;stroke-width:2;stroke-linecap:butt;stroke-linejoin:miter;stroke-miterlimit:4;stroke-dasharray:2, 2;stroke-dashoffset:0;stroke-opacity:1"
             d="m 124.74555,96.086052 h 15.875"
             id="path2699"
             inkscape:connector-curvature="0"
             sodipodi:nodetypes="cc" />
          <g
             id="g1957"
             transform="matrix(0,0.12201588,0.12201588,0,-9.9842709,115.71635)">
            <g
               id="g1929"
               transform="matrix(0.40313754,0,0,0.40313754,626.8277,476.86503)" />
            <g
               id="g1955"
               transform="translate(102.9436,4.1093924)">
              <g
                 id="g1945"
                 transform="translate(-955.50313,414.76302)">
                <g
                   transform="matrix(0.40313754,0,0,0.40313754,594.92982,393.90235)"
                   id="g1935">
                  <g
                     id="g1933">
                    <path
                       inkscape:connector-curvature="0"
                       style="fill:#231f20"
                       d="M 240,480 C 107.664,480 0,372.336 0,240 0,107.664 107.664,0 240,0 372.336,0 480,107.664 480,240 480,372.336 372.336,480 240,480 Z M 240,20 C 118.691,20 20,118.691 20,240 20,361.309 118.691,460 240,460 361.309,460 460,361.309 460,240 460,118.691 361.309,20 240,20 Z"
                       id="path1931" />
                  </g>
                </g>
                <g
                   transform="matrix(0.40313754,0,0,0.40313754,594.92981,393.90235)"
                   id="g1943">
                  <g
                     id="g1941">
                    <g
                       id="g1939">
                      <path
                         inkscape:connector-curvature="0"
                         style="fill:#231f20"
                         d="m 265,430 h -50 c -11.028,0 -20,-8.972 -20,-20 v -27.057 c -8.439,-2.644 -16.56,-6 -24.271,-10.03 l -19.158,19.158 c -3.775,3.775 -8.79,5.854 -14.121,5.854 -5.332,0 -10.347,-2.079 -14.122,-5.854 L 87.929,356.672 c -3.774,-3.774 -5.854,-8.789 -5.854,-14.121 0,-5.331 2.078,-10.346 5.854,-14.121 l 19.158,-19.158 c -4.03,-7.711 -7.387,-15.831 -10.03,-24.271 H 70 c -11.028,0 -20,-8.972 -20,-20 v -50 c 0,-11.028 8.972,-20 20,-20 h 27.057 c 2.644,-8.439 6,-16.56 10.03,-24.271 L 87.929,151.572 c -3.775,-3.775 -5.854,-8.79 -5.854,-14.121 0,-5.332 2.079,-10.347 5.854,-14.122 L 123.328,87.93 c 3.774,-3.774 8.789,-5.854 14.121,-5.854 5.331,0 10.346,2.078 14.121,5.854 l 19.158,19.158 c 7.711,-4.03 15.831,-7.387 24.271,-10.03 V 70 c 0,-11.028 8.972,-20 20,-20 h 50 c 11.028,0 20,8.972 20,20 v 27.057 c 8.439,2.644 16.56,6 24.271,10.03 l 19.158,-19.158 c 3.775,-3.775 8.79,-5.854 14.121,-5.854 5.332,0 10.347,2.079 14.122,5.854 l 35.399,35.399 c 3.774,3.774 5.854,8.789 5.854,14.121 0,5.331 -2.078,10.346 -5.854,14.121 l -19.158,19.158 c 4.03,7.711 7.387,15.831 10.03,24.271 H 410 c 11.028,0 20,8.972 20,20 v 50 c 0,11.028 -8.972,20 -20,20 h -27.057 c -2.644,8.439 -6,16.56 -10.03,24.271 l 19.158,19.158 c 3.775,3.775 5.854,8.79 5.854,14.121 0,5.332 -2.079,10.347 -5.854,14.122 l -35.399,35.399 c -3.774,3.774 -8.789,5.854 -14.121,5.854 -5.331,0 -10.346,-2.078 -14.121,-5.854 l -19.158,-19.158 c -7.711,4.03 -15.831,7.387 -24.271,10.03 V 410 C 285,421.028 276.028,430 265,430 Z m -95.997,-79.5 c 1.754,0 3.52,0.46 5.107,1.404 10.254,6.097 21.486,10.744 33.387,13.813 4.417,1.14 7.503,5.122 7.503,9.684 V 410 h 50 v -34.6 c 0,-4.562 3.086,-8.544 7.503,-9.684 11.9,-3.068 23.133,-7.716 33.387,-13.813 3.929,-2.336 8.946,-1.711 12.182,1.524 l 24.5,24.5 35.357,-35.4 -24.5,-24.457 c -3.234,-3.234 -3.861,-8.251 -1.524,-12.182 6.097,-10.254 10.744,-21.486 13.813,-33.387 1.14,-4.417 5.122,-7.503 9.684,-7.503 H 410 v -50 h -34.6 c -4.562,0 -8.544,-3.086 -9.684,-7.503 -3.068,-11.9 -7.716,-23.133 -13.813,-33.387 -2.337,-3.931 -1.71,-8.947 1.524,-12.182 l 24.5,-24.5 -35.4,-35.357 -24.457,24.5 c -3.235,3.233 -8.253,3.861 -12.182,1.524 -10.254,-6.097 -21.486,-10.744 -33.387,-13.813 -4.417,-1.14 -7.503,-5.122 -7.503,-9.684 V 70 h -50 v 34.6 c 0,4.562 -3.086,8.544 -7.503,9.684 -11.9,3.068 -23.133,7.716 -33.387,13.813 -3.929,2.337 -8.946,1.711 -12.182,-1.524 l -24.5,-24.5 -35.357,35.4 24.5,24.457 c 3.234,3.234 3.861,8.251 1.524,12.182 -6.097,10.254 -10.744,21.486 -13.813,33.387 -1.14,4.417 -5.122,7.503 -9.684,7.503 H 70 v 50 h 34.6 c 4.562,0 8.544,3.086 9.684,7.503 3.068,11.9 7.716,23.133 13.813,33.387 2.337,3.931 1.71,8.947 -1.524,12.182 l -24.5,24.5 35.4,35.357 24.457,-24.5 c 1.926,-1.929 4.487,-2.931 7.073,-2.931 z"
                         id="path1937" />
                    </g>
                  </g>
                </g>
              </g>
              <g
                 transform="translate(129.34229,299.96343)"
                 id="g1953">
                <path
                   inkscape:connector-curvature="0"
                   id="path1947"
                   d="m -410.51006,583.63372 -21.68434,21.68433 21.68434,21.68433"
                   style="fill:none;stroke:#000000;stroke-width:8.19565;stroke-linecap:butt;stroke-linejoin:miter;stroke-miterlimit:4;stroke-dasharray:none;stroke-opacity:1" />
                <path
                   sodipodi:nodetypes="cc"
                   inkscape:connector-curvature="0"
                   id="path1949"
                   d="m -401.26671,643.2106 13.19636,-75.51131"
                   style="fill:none;stroke:#000000;stroke-width:4.09783;stroke-linecap:butt;stroke-linejoin:miter;stroke-miterlimit:4;stroke-dasharray:none;stroke-opacity:1" />
                <path
                   style="fill:none;stroke:#000000;stroke-width:8.19565;stroke-linecap:butt;stroke-linejoin:miter;stroke-miterlimit:4;stroke-dasharray:none;stroke-opacity:1"
                   d="m -375.81513,583.63372 21.68434,21.68433 -21.68434,21.68433"
                   id="path1951"
                   inkscape:connector-curvature="0" />
              </g>
            </g>
          </g>
          <path
             style="fill:#3f7acd;fill-opacity:1;fill-rule:nonzero;stroke:#000000;stroke-width:1.42857;stroke-linecap:square;stroke-linejoin:round;stroke-miterlimit:4;stroke-dasharray:none;stroke-dashoffset:0;stroke-opacity:1;paint-order:stroke fill markers"
             d="m 111.11443,92.692647 c -1.51917,-4.45129 -5.44761,-7.276042 -10.11897,-7.276042 -4.583153,0 -8.538576,2.830277 -10.186478,7.288863 -0.568166,1.537243 -0.604163,4.941853 -0.06949,6.572287 1.03468,3.155125 3.649679,5.817045 6.83218,6.954755 1.569518,0.56109 4.318718,0.68314 5.925188,0.26306 2.6018,-0.68036 4.74811,-2.15461 6.24967,-4.29275 1.93282,-2.752239 2.44915,-6.341981 1.36789,-9.510173 z m -1.07377,5.300257 c -0.33331,0.333309 -0.67054,0.463881 -1.19809,0.463881 -0.61102,0 -0.77253,0.08411 -0.96262,0.501332 -0.20673,0.453713 -0.17371,0.557784 0.34764,1.095683 0.85772,0.88494 0.75971,1.32582 -0.59966,2.69738 -1.34916,1.36127 -1.72567,1.44813 -2.67268,0.61664 -0.55485,-0.48716 -0.71994,-0.54255 -1.14051,-0.38265 -0.42184,0.16038 -0.49174,0.2997 -0.49174,0.97996 0,1.2836 -0.32014,1.48421 -2.36851,1.48421 -2.004908,0 -2.160624,-0.0966 -2.311322,-1.43359 -0.07547,-0.66957 -0.197173,-0.91176 -0.535673,-1.06599 -0.37328,-0.17008 -0.537932,-0.11184 -1.114113,0.39405 -0.371856,0.3265 -0.857406,0.59363 -1.079,0.59363 -0.538149,0 -2.796746,-2.2586 -2.796746,-2.79675 0,-0.22159 0.267131,-0.70714 0.593624,-1.079 0.519557,-0.591741 0.567225,-0.734042 0.382027,-1.1405 -0.17067,-0.374584 -0.350457,-0.464405 -0.92955,-0.464405 -0.394872,0 -0.906965,-0.13239 -1.137978,-0.294198 -0.383318,-0.268486 -0.420029,-0.449239 -0.420029,-2.068153 0,-1.618914 0.03671,-1.799667 0.420029,-2.068153 0.231013,-0.161811 0.743106,-0.294198 1.137978,-0.294198 0.579093,0 0.75888,-0.08982 0.92955,-0.464404 0.185198,-0.406461 0.13753,-0.548762 -0.382027,-1.140505 -0.326493,-0.371856 -0.593624,-0.850593 -0.593624,-1.063858 0,-0.217837 0.510034,-0.918909 1.163883,-1.599824 1.353474,-1.409502 1.810912,-1.516891 2.717684,-0.638014 0.503616,0.488125 0.663691,0.546894 1.069448,0.392626 0.389544,-0.148106 0.495086,-0.340281 0.574678,-1.046417 0.150098,-1.331671 0.309967,-1.432165 2.278331,-1.432165 2.06838,0 2.40134,0.201239 2.40134,1.451379 0,0.71563 0.0656,0.850784 0.49174,1.012796 0.42057,0.159899 0.58566,0.104505 1.14051,-0.382653 0.35681,-0.313288 0.83486,-0.569616 1.06232,-0.569616 0.25398,0 0.87129,0.453665 1.59982,1.175715 1.37621,1.363978 1.47743,1.813171 0.6102,2.707929 -0.52135,0.537892 -0.55437,0.641963 -0.34764,1.095679 0.19009,0.417221 0.3516,0.501332 0.96262,0.501332 0.52755,0 0.86478,0.13057 1.19809,0.463878 0.41104,0.411036 0.46388,0.627309 0.46388,1.898473 0,1.271162 -0.0528,1.487437 -0.46388,1.89847 z"
             id="path1959"
             inkscape:connector-curvature="0" />
          <path
             style="fill:#da8f6a;fill-opacity:1;fill-rule:nonzero;stroke:#000000;stroke-width:1.42857;stroke-linecap:square;stroke-linejoin:round;stroke-miterlimit:4;stroke-dasharray:none;stroke-dashoffset:0;stroke-opacity:1;paint-order:stroke fill markers"
             d="m 108.2343,94.866011 h -0.94732 l -0.47009,-1.062951 c -0.25855,-0.584623 -0.47008,-1.155088 -0.47008,-1.2677 0,-0.112615 0.29764,-0.509564 0.66142,-0.882111 l 0.66142,-0.677359 -0.81187,-0.796785 -0.81186,-0.796787 -0.64258,0.662977 c -0.35342,0.364638 -0.74289,0.662977 -0.86548,0.662977 -0.12259,0 -0.70122,-0.211537 -1.28584,-0.470086 l -1.06295,-0.470087 v -0.947325 -0.947322 h -1.13393 -1.133934 l -0.0029,0.803198 c -0.0016,0.441762 -0.06538,0.889042 -0.141743,0.99396 -0.143444,0.197075 -2.088732,1.037662 -2.401358,1.037662 -0.09699,0 -0.458473,-0.273455 -0.803302,-0.607677 l -0.626964,-0.607676 -0.792912,0.792911 -0.792908,0.792909 0.607676,0.626964 c 0.334222,0.344829 0.607677,0.699228 0.607677,0.787551 0,0.08832 -0.181483,0.658326 -0.403299,1.266671 l -0.403299,1.106086 h -1.014111 -1.014111 v 1.228423 1.228421 h 1.014111 1.014111 l 0.403299,1.106085 c 0.221816,0.608349 0.403299,1.178351 0.403299,1.266674 0,0.08832 -0.273455,0.442716 -0.607677,0.787556 l -0.607676,0.62696 0.792908,0.79291 0.792912,0.79291 0.660342,-0.64003 0.660341,-0.64003 1.076357,0.36308 c 1.379434,0.46532 1.579219,0.68032 1.579219,1.6995 v 0.83695 h 1.133932 1.13392 v -0.94733 -0.94732 l 1.06295,-0.47009 c 0.58463,-0.25855 1.15509,-0.47009 1.26771,-0.47009 0.11261,0 0.50956,0.29764 0.88211,0.66143 l 0.67736,0.66142 0.79678,-0.81186 0.79679,-0.81187 -0.66298,-0.64258 c -0.36464,-0.35343 -0.66298,-0.74289 -0.66298,-0.865479 0,-0.122592 0.21154,-0.701223 0.47009,-1.285846 l 0.47009,-1.06295 h 0.94732 0.94732 v -1.228421 -1.228423 z m -2.53677,0.566965 c -0.0453,0 -2.01731,0.340177 -4.38232,0.755951 -4.820504,0.847458 -4.984776,0.863471 -4.984776,0.485871 0,-0.304239 0.308782,-0.375732 5.431276,-1.257515 1.8958,-0.326339 3.57543,-0.544025 3.73252,-0.483745 0.25264,0.09694 0.41647,0.499438 0.2033,0.499438 z m -2.44559,-1.13393 c -0.11081,0 -0.67437,-0.467966 -1.25236,-1.039921 l -1.05088,-1.039924 -1.02701,1.039924 c -0.564854,0.571955 -1.10826,1.039921 -1.207569,1.039921 -0.09931,0 -0.339386,-0.143735 -0.533506,-0.319411 -0.339749,-0.307467 -0.294531,-0.378126 1.209479,-1.889992 l 1.562426,-1.570583 1.55812,1.550019 c 1.46504,1.457428 1.53973,1.570326 1.25043,1.889993 -0.16921,0.186986 -0.39833,0.339974 -0.50913,0.339974 z m -3.842502,5.819534 -1.559322,-1.55122 0.411475,-0.437994 0.411475,-0.437997 1.149291,1.139076 1.149293,1.139077 1.11949,-1.131295 1.11949,-1.131295 0.43949,0.412872 0.43948,0.412874 -1.56042,1.568562 -1.56041,1.56857 z"
             id="path1961"
             inkscape:connector-curvature="0" />
        </g>
      </g>
    </g>
  </g>
</svg>
