<?xml version="1.0" encoding="UTF-8" standalone="no"?>
<!-- Created with Inkscape (http://www.inkscape.org/) -->

<svg
   xmlns:osb="http://www.openswatchbook.org/uri/2009/osb"
   xmlns:dc="http://purl.org/dc/elements/1.1/"
   xmlns:cc="http://creativecommons.org/ns#"
   xmlns:rdf="http://www.w3.org/1999/02/22-rdf-syntax-ns#"
   xmlns:svg="http://www.w3.org/2000/svg"
   xmlns="http://www.w3.org/2000/svg"
   xmlns:xlink="http://www.w3.org/1999/xlink"
   xmlns:sodipodi="http://sodipodi.sourceforge.net/DTD/sodipodi-0.dtd"
   xmlns:inkscape="http://www.inkscape.org/namespaces/inkscape"
   width="642.77258mm"
   height="143.0881mm"
   viewBox="0 0 642.77259 143.08811"
   version="1.1"
   id="svg8"
   inkscape:version="0.92.5 (2060ec1f9f, 2020-04-08)"
   sodipodi:docname="icon.svg"
   inkscape:export-filename="/home/apatrizi/RL_ws/hhcm/src/SharsorIPCpp/docs/icon.png"
   inkscape:export-xdpi="20"
   inkscape:export-ydpi="20">
  <defs
     id="defs2">
    <marker
       inkscape:stockid="Arrow1Mstart"
       orient="auto"
       refY="0.0"
       refX="0.0"
       id="Arrow1Mstart"
       style="overflow:visible"
       inkscape:isstock="true">
      <path
         id="path1988"
         d="M 0.0,0.0 L 5.0,-5.0 L -12.5,0.0 L 5.0,5.0 L 0.0,0.0 z "
         style="fill-rule:evenodd;stroke:#000000;stroke-width:1pt;stroke-opacity:1;fill:#000000;fill-opacity:1"
         transform="scale(0.4) translate(10,0)" />
    </marker>
    <linearGradient
       id="linearGradient2291"
       osb:paint="solid">
      <stop
         style="stop-color:#d48b8b;stop-opacity:0;"
         offset="0"
         id="stop2289" />
    </linearGradient>
    <linearGradient
       inkscape:collect="always"
       xlink:href="#linearGradient2291"
       id="linearGradient2915"
       gradientUnits="userSpaceOnUse"
       gradientTransform="matrix(1.125,0,0,1.075,-14.045969,-3.0108032)"
       x1="76.729164"
       y1="96.445831"
       x2="119.0625"
       y2="96.445831" />
  </defs>
  <sodipodi:namedview
     id="base"
     pagecolor="#ffffff"
     bordercolor="#666666"
     borderopacity="1.0"
     inkscape:pageopacity="0.0"
     inkscape:pageshadow="2"
     inkscape:zoom="0.7"
     inkscape:cx="1171.5197"
     inkscape:cy="198.74466"
     inkscape:document-units="mm"
     inkscape:current-layer="g2913"
     showgrid="true"
     inkscape:window-width="1848"
     inkscape:window-height="1016"
     inkscape:window-x="72"
     inkscape:window-y="27"
     inkscape:window-maximized="1"
     inkscape:snap-global="true"
     showguides="false">
    <inkscape:grid
       type="xygrid"
       id="grid815"
       originx="151.95938"
       originy="-131.93701" />
  </sodipodi:namedview>
  <metadata
     id="metadata5">
    <rdf:RDF>
      <cc:Work
         rdf:about="">
        <dc:format>image/svg+xml</dc:format>
        <dc:type
           rdf:resource="http://purl.org/dc/dcmitype/StillImage" />
        <dc:title></dc:title>
      </cc:Work>
    </rdf:RDF>
  </metadata>
  <g
     inkscape:label="Layer 1"
     inkscape:groupmode="layer"
     id="layer1"
     transform="translate(151.95938,-21.974895)">
    <g
       id="g2701"
       transform="matrix(0,1,1,0,1.8097813,-3.6934667)">
      <g
         id="g2697"
         transform="matrix(-0.12201588,0,0,0.12201588,119.77522,-14.312618)">
        <path
           style="opacity:1;fill:#93da6a;fill-opacity:1;fill-rule:nonzero;stroke:#000000;stroke-width:5.39932537;stroke-linecap:square;stroke-linejoin:round;stroke-miterlimit:4;stroke-dasharray:none;stroke-dashoffset:0;stroke-opacity:1;paint-order:stroke fill markers"
           d=""
           id="path2713"
           inkscape:connector-curvature="0"
           transform="matrix(0,2.1684336,-2.1684336,0,951.36595,102.46893)" />
        <path
           style="opacity:1;fill:#93da6a;fill-opacity:1;fill-rule:nonzero;stroke:#000000;stroke-width:5.39932537;stroke-linecap:square;stroke-linejoin:round;stroke-miterlimit:4;stroke-dasharray:none;stroke-dashoffset:0;stroke-opacity:1;paint-order:stroke fill markers"
           d=""
           id="path2723"
           inkscape:connector-curvature="0"
           transform="matrix(0,2.1684336,-2.1684336,0,951.36595,102.46893)" />
      </g>
      <g
         id="g989"
         transform="translate(0,71.279881)">
        <g
           transform="translate(0.16313259,0.25120688)"
           id="g2913">
          <rect
             transform="matrix(0,1,1,0,0,0)"
             style="opacity:1;fill:url(#linearGradient2915);fill-opacity:1;fill-rule:nonzero;stroke:#000000;stroke-width:2;stroke-linecap:square;stroke-linejoin:round;stroke-miterlimit:4;stroke-dasharray:none;stroke-dashoffset:0;stroke-opacity:1;paint-order:stroke fill markers"
             id="rect829"
             width="47.624996"
             height="44.979164"
             x="72.274338"
             y="78.443466"
             ry="7.9639578" />
          <path
             style="fill:none;stroke:#3f7acd;stroke-width:2;stroke-linecap:butt;stroke-linejoin:miter;stroke-miterlimit:4;stroke-dasharray:2, 2;stroke-dashoffset:0;stroke-opacity:1"
             d="m 100.99256,70.950636 v -15.875"
             id="path2314"
             inkscape:connector-curvature="0"
             sodipodi:nodetypes="cc" />
          <path
             style="fill:none;stroke:#3f7acd;stroke-width:3;stroke-linecap:butt;stroke-linejoin:miter;stroke-miterlimit:4;stroke-dasharray:none;stroke-opacity:1"
             d="m 80.697917,69.458333 h -11.90625 v 11.90625"
             id="path2322"
             inkscape:connector-curvature="0"
             transform="matrix(0,1,1,0,3.6934667,-1.8097813)" />
          <path
             inkscape:connector-curvature="0"
             id="path2324"
             d="M 80.697917,125.02083 H 68.791667 V 113.11458"
             style="fill:none;stroke:#3f7acd;stroke-width:3;stroke-linecap:butt;stroke-linejoin:miter;stroke-miterlimit:4;stroke-dasharray:none;stroke-opacity:1"
             transform="matrix(0,1,1,0,3.6934667,-1.8097813)" />
          <path
             transform="matrix(0,1,1,0,3.6934667,-1.8097813)"
             style="fill:none;stroke:#3f7acd;stroke-width:3;stroke-linecap:butt;stroke-linejoin:miter;stroke-miterlimit:4;stroke-dasharray:none;stroke-opacity:1"
             d="M 115.09375,125.02083 H 127 v -11.90625"
             id="path2326"
             inkscape:connector-curvature="0" />
          <path
             transform="matrix(0,1,1,0,3.6934667,-1.8097813)"
             inkscape:connector-curvature="0"
             id="path2328"
             d="M 115.09375,69.458333 H 127 v 11.90625"
             style="fill:none;stroke:#3f7acd;stroke-width:3;stroke-linecap:butt;stroke-linejoin:miter;stroke-miterlimit:4;stroke-dasharray:none;stroke-opacity:1" />
          <g
             id="g2641"
             transform="matrix(0,1,1,0,4.8297583,-3.5240813)">
            <g
               id="g2612"
               transform="matrix(-0.12201588,0,0,0.12201588,119.77522,-14.312618)">
              <g
                 id="g2602"
                 transform="translate(-955.50313,414.76302)">
                <g
                   transform="matrix(0.40313754,0,0,0.40313754,594.92982,393.90235)"
                   id="g2592">
                  <g
                     id="g2590">
                    <path
                       inkscape:connector-curvature="0"
                       style="fill:#231f20"
                       d="M 240,480 C 107.664,480 0,372.336 0,240 0,107.664 107.664,0 240,0 372.336,0 480,107.664 480,240 480,372.336 372.336,480 240,480 Z M 240,20 C 118.691,20 20,118.691 20,240 20,361.309 118.691,460 240,460 361.309,460 460,361.309 460,240 460,118.691 361.309,20 240,20 Z"
                       id="path2588" />
                  </g>
                </g>
                <g
                   transform="matrix(0.40313754,0,0,0.40313754,594.92981,393.90235)"
                   id="g2600">
                  <g
                     id="g2598">
                    <g
                       id="g2596">
                      <path
                         inkscape:connector-curvature="0"
                         style="fill:#231f20"
                         d="m 265,430 h -50 c -11.028,0 -20,-8.972 -20,-20 v -27.057 c -8.439,-2.644 -16.56,-6 -24.271,-10.03 l -19.158,19.158 c -3.775,3.775 -8.79,5.854 -14.121,5.854 -5.332,0 -10.347,-2.079 -14.122,-5.854 L 87.929,356.672 c -3.774,-3.774 -5.854,-8.789 -5.854,-14.121 0,-5.331 2.078,-10.346 5.854,-14.121 l 19.158,-19.158 c -4.03,-7.711 -7.387,-15.831 -10.03,-24.271 H 70 c -11.028,0 -20,-8.972 -20,-20 v -50 c 0,-11.028 8.972,-20 20,-20 h 27.057 c 2.644,-8.439 6,-16.56 10.03,-24.271 L 87.929,151.572 c -3.775,-3.775 -5.854,-8.79 -5.854,-14.121 0,-5.332 2.079,-10.347 5.854,-14.122 L 123.328,87.93 c 3.774,-3.774 8.789,-5.854 14.121,-5.854 5.331,0 10.346,2.078 14.121,5.854 l 19.158,19.158 c 7.711,-4.03 15.831,-7.387 24.271,-10.03 V 70 c 0,-11.028 8.972,-20 20,-20 h 50 c 11.028,0 20,8.972 20,20 v 27.057 c 8.439,2.644 16.56,6 24.271,10.03 l 19.158,-19.158 c 3.775,-3.775 8.79,-5.854 14.121,-5.854 5.332,0 10.347,2.079 14.122,5.854 l 35.399,35.399 c 3.774,3.774 5.854,8.789 5.854,14.121 0,5.331 -2.078,10.346 -5.854,14.121 l -19.158,19.158 c 4.03,7.711 7.387,15.831 10.03,24.271 H 410 c 11.028,0 20,8.972 20,20 v 50 c 0,11.028 -8.972,20 -20,20 h -27.057 c -2.644,8.439 -6,16.56 -10.03,24.271 l 19.158,19.158 c 3.775,3.775 5.854,8.79 5.854,14.121 0,5.332 -2.079,10.347 -5.854,14.122 l -35.399,35.399 c -3.774,3.774 -8.789,5.854 -14.121,5.854 -5.331,0 -10.346,-2.078 -14.121,-5.854 l -19.158,-19.158 c -7.711,4.03 -15.831,7.387 -24.271,10.03 V 410 C 285,421.028 276.028,430 265,430 Z m -95.997,-79.5 c 1.754,0 3.52,0.46 5.107,1.404 10.254,6.097 21.486,10.744 33.387,13.813 4.417,1.14 7.503,5.122 7.503,9.684 V 410 h 50 v -34.6 c 0,-4.562 3.086,-8.544 7.503,-9.684 11.9,-3.068 23.133,-7.716 33.387,-13.813 3.929,-2.336 8.946,-1.711 12.182,1.524 l 24.5,24.5 35.357,-35.4 -24.5,-24.457 c -3.234,-3.234 -3.861,-8.251 -1.524,-12.182 6.097,-10.254 10.744,-21.486 13.813,-33.387 1.14,-4.417 5.122,-7.503 9.684,-7.503 H 410 v -50 h -34.6 c -4.562,0 -8.544,-3.086 -9.684,-7.503 -3.068,-11.9 -7.716,-23.133 -13.813,-33.387 -2.337,-3.931 -1.71,-8.947 1.524,-12.182 l 24.5,-24.5 -35.4,-35.357 -24.457,24.5 c -3.235,3.233 -8.253,3.861 -12.182,1.524 -10.254,-6.097 -21.486,-10.744 -33.387,-13.813 -4.417,-1.14 -7.503,-5.122 -7.503,-9.684 V 70 h -50 v 34.6 c 0,4.562 -3.086,8.544 -7.503,9.684 -11.9,3.068 -23.133,7.716 -33.387,13.813 -3.929,2.337 -8.946,1.711 -12.182,-1.524 l -24.5,-24.5 -35.357,35.4 24.5,24.457 c 3.234,3.234 3.861,8.251 1.524,12.182 -6.097,10.254 -10.744,21.486 -13.813,33.387 -1.14,4.417 -5.122,7.503 -9.684,7.503 H 70 v 50 h 34.6 c 4.562,0 8.544,3.086 9.684,7.503 3.068,11.9 7.716,23.133 13.813,33.387 2.337,3.931 1.71,8.947 -1.524,12.182 l -24.5,24.5 35.4,35.357 24.457,-24.5 c 1.926,-1.929 4.487,-2.931 7.073,-2.931 z"
                         id="path2594" />
                    </g>
                  </g>
                </g>
              </g>
              <g
                 transform="translate(129.34229,299.96343)"
                 id="g2610">
                <path
                   inkscape:connector-curvature="0"
                   id="path2604"
                   d="m -410.51006,583.63372 -21.68434,21.68433 21.68434,21.68433"
                   style="fill:none;stroke:#000000;stroke-width:8.19565487;stroke-linecap:butt;stroke-linejoin:miter;stroke-miterlimit:4;stroke-dasharray:none;stroke-opacity:1" />
                <path
                   sodipodi:nodetypes="cc"
                   inkscape:connector-curvature="0"
                   id="path2606"
                   d="m -401.26671,643.2106 13.19636,-75.51131"
                   style="fill:none;stroke:#000000;stroke-width:4.09782743;stroke-linecap:butt;stroke-linejoin:miter;stroke-miterlimit:4;stroke-dasharray:none;stroke-opacity:1" />
                <path
                   style="fill:none;stroke:#000000;stroke-width:8.19565487;stroke-linecap:butt;stroke-linejoin:miter;stroke-miterlimit:4;stroke-dasharray:none;stroke-opacity:1"
                   d="m -375.81513,583.63372 21.68434,21.68433 -21.68434,21.68433"
                   id="path2608"
                   inkscape:connector-curvature="0" />
              </g>
            </g>
            <path
               style="fill:none;stroke:#3f7acd;stroke-width:2;stroke-linecap:butt;stroke-linejoin:miter;stroke-miterlimit:4;stroke-dasharray:2, 2;stroke-dashoffset:0;stroke-opacity:1"
               d="m 124.74555,96.086052 h 15.875"
               id="path2586"
               inkscape:connector-curvature="0"
               sodipodi:nodetypes="cc" />
          </g>
          <g
             transform="matrix(-1,0,0,1,201.8661,-0.07596476)"
             id="g2671">
            <g
               transform="matrix(-0.12201588,0,0,0.12201588,119.77522,-14.312618)"
               id="g2667">
              <g
                 transform="translate(-955.50313,414.76302)"
                 id="g2657">
                <g
                   id="g2647"
                   transform="matrix(0.40313754,0,0,0.40313754,594.92982,393.90235)">
                  <g
                     id="g2645">
                    <path
                       id="path2643"
                       d="M 240,480 C 107.664,480 0,372.336 0,240 0,107.664 107.664,0 240,0 372.336,0 480,107.664 480,240 480,372.336 372.336,480 240,480 Z M 240,20 C 118.691,20 20,118.691 20,240 20,361.309 118.691,460 240,460 361.309,460 460,361.309 460,240 460,118.691 361.309,20 240,20 Z"
                       style="fill:#231f20"
                       inkscape:connector-curvature="0" />
                  </g>
                </g>
                <g
                   id="g2655"
                   transform="matrix(0.40313754,0,0,0.40313754,594.92981,393.90235)">
                  <g
                     id="g2653">
                    <g
                       id="g2651">
                      <path
                         id="path2649"
                         d="m 265,430 h -50 c -11.028,0 -20,-8.972 -20,-20 v -27.057 c -8.439,-2.644 -16.56,-6 -24.271,-10.03 l -19.158,19.158 c -3.775,3.775 -8.79,5.854 -14.121,5.854 -5.332,0 -10.347,-2.079 -14.122,-5.854 L 87.929,356.672 c -3.774,-3.774 -5.854,-8.789 -5.854,-14.121 0,-5.331 2.078,-10.346 5.854,-14.121 l 19.158,-19.158 c -4.03,-7.711 -7.387,-15.831 -10.03,-24.271 H 70 c -11.028,0 -20,-8.972 -20,-20 v -50 c 0,-11.028 8.972,-20 20,-20 h 27.057 c 2.644,-8.439 6,-16.56 10.03,-24.271 L 87.929,151.572 c -3.775,-3.775 -5.854,-8.79 -5.854,-14.121 0,-5.332 2.079,-10.347 5.854,-14.122 L 123.328,87.93 c 3.774,-3.774 8.789,-5.854 14.121,-5.854 5.331,0 10.346,2.078 14.121,5.854 l 19.158,19.158 c 7.711,-4.03 15.831,-7.387 24.271,-10.03 V 70 c 0,-11.028 8.972,-20 20,-20 h 50 c 11.028,0 20,8.972 20,20 v 27.057 c 8.439,2.644 16.56,6 24.271,10.03 l 19.158,-19.158 c 3.775,-3.775 8.79,-5.854 14.121,-5.854 5.332,0 10.347,2.079 14.122,5.854 l 35.399,35.399 c 3.774,3.774 5.854,8.789 5.854,14.121 0,5.331 -2.078,10.346 -5.854,14.121 l -19.158,19.158 c 4.03,7.711 7.387,15.831 10.03,24.271 H 410 c 11.028,0 20,8.972 20,20 v 50 c 0,11.028 -8.972,20 -20,20 h -27.057 c -2.644,8.439 -6,16.56 -10.03,24.271 l 19.158,19.158 c 3.775,3.775 5.854,8.79 5.854,14.121 0,5.332 -2.079,10.347 -5.854,14.122 l -35.399,35.399 c -3.774,3.774 -8.789,5.854 -14.121,5.854 -5.331,0 -10.346,-2.078 -14.121,-5.854 l -19.158,-19.158 c -7.711,4.03 -15.831,7.387 -24.271,10.03 V 410 C 285,421.028 276.028,430 265,430 Z m -95.997,-79.5 c 1.754,0 3.52,0.46 5.107,1.404 10.254,6.097 21.486,10.744 33.387,13.813 4.417,1.14 7.503,5.122 7.503,9.684 V 410 h 50 v -34.6 c 0,-4.562 3.086,-8.544 7.503,-9.684 11.9,-3.068 23.133,-7.716 33.387,-13.813 3.929,-2.336 8.946,-1.711 12.182,1.524 l 24.5,24.5 35.357,-35.4 -24.5,-24.457 c -3.234,-3.234 -3.861,-8.251 -1.524,-12.182 6.097,-10.254 10.744,-21.486 13.813,-33.387 1.14,-4.417 5.122,-7.503 9.684,-7.503 H 410 v -50 h -34.6 c -4.562,0 -8.544,-3.086 -9.684,-7.503 -3.068,-11.9 -7.716,-23.133 -13.813,-33.387 -2.337,-3.931 -1.71,-8.947 1.524,-12.182 l 24.5,-24.5 -35.4,-35.357 -24.457,24.5 c -3.235,3.233 -8.253,3.861 -12.182,1.524 -10.254,-6.097 -21.486,-10.744 -33.387,-13.813 -4.417,-1.14 -7.503,-5.122 -7.503,-9.684 V 70 h -50 v 34.6 c 0,4.562 -3.086,8.544 -7.503,9.684 -11.9,3.068 -23.133,7.716 -33.387,13.813 -3.929,2.337 -8.946,1.711 -12.182,-1.524 l -24.5,-24.5 -35.357,35.4 24.5,24.457 c 3.234,3.234 3.861,8.251 1.524,12.182 -6.097,10.254 -10.744,21.486 -13.813,33.387 -1.14,4.417 -5.122,7.503 -9.684,7.503 H 70 v 50 h 34.6 c 4.562,0 8.544,3.086 9.684,7.503 3.068,11.9 7.716,23.133 13.813,33.387 2.337,3.931 1.71,8.947 -1.524,12.182 l -24.5,24.5 35.4,35.357 24.457,-24.5 c 1.926,-1.929 4.487,-2.931 7.073,-2.931 z"
                         style="fill:#231f20"
                         inkscape:connector-curvature="0" />
                    </g>
                  </g>
                </g>
              </g>
              <g
                 id="g2665"
                 transform="rotate(-90,-178.50974,690.76552)">
                <path
                   style="fill:none;stroke:#000000;stroke-width:8.19565487;stroke-linecap:butt;stroke-linejoin:miter;stroke-miterlimit:4;stroke-dasharray:none;stroke-opacity:1"
                   d="m -410.51006,583.63372 -21.68434,21.68433 21.68434,21.68433"
                   id="path2659"
                   inkscape:connector-curvature="0" />
                <path
                   style="fill:none;stroke:#000000;stroke-width:4.09782743;stroke-linecap:butt;stroke-linejoin:miter;stroke-miterlimit:4;stroke-dasharray:none;stroke-opacity:1"
                   d="m -401.26671,643.2106 13.19636,-75.51131"
                   id="path2661"
                   inkscape:connector-curvature="0"
                   sodipodi:nodetypes="cc" />
                <path
                   inkscape:connector-curvature="0"
                   id="path2663"
                   d="m -375.81513,583.63372 21.68434,21.68433 -21.68434,21.68433"
                   style="fill:none;stroke:#000000;stroke-width:8.19565487;stroke-linecap:butt;stroke-linejoin:miter;stroke-miterlimit:4;stroke-dasharray:none;stroke-opacity:1" />
              </g>
            </g>
            <path
               sodipodi:nodetypes="cc"
               inkscape:connector-curvature="0"
               id="path2669"
               d="m 124.74555,96.086052 h 15.875"
               style="fill:none;stroke:#3f7acd;stroke-width:2;stroke-linecap:butt;stroke-linejoin:miter;stroke-miterlimit:4;stroke-dasharray:2, 2;stroke-dashoffset:0;stroke-opacity:1" />
            <g
               id="g4578" />
          </g>
          <g
             id="g2687"
             transform="matrix(-0.12201588,0,0,0.12201588,236.36177,36.295058)">
            <g
               transform="matrix(0.40313754,0,0,0.40313754,594.92982,393.90235)"
               id="g2677">
              <g
                 id="g2675">
                <path
                   inkscape:connector-curvature="0"
                   style="fill:#231f20"
                   d="M 240,480 C 107.664,480 0,372.336 0,240 0,107.664 107.664,0 240,0 372.336,0 480,107.664 480,240 480,372.336 372.336,480 240,480 Z M 240,20 C 118.691,20 20,118.691 20,240 20,361.309 118.691,460 240,460 361.309,460 460,361.309 460,240 460,118.691 361.309,20 240,20 Z"
                   id="path2673" />
              </g>
            </g>
            <g
               transform="matrix(0.40313754,0,0,0.40313754,594.92981,393.90235)"
               id="g2685">
              <g
                 id="g2683">
                <g
                   id="g2681">
                  <path
                     inkscape:connector-curvature="0"
                     style="fill:#231f20"
                     d="m 265,430 h -50 c -11.028,0 -20,-8.972 -20,-20 v -27.057 c -8.439,-2.644 -16.56,-6 -24.271,-10.03 l -19.158,19.158 c -3.775,3.775 -8.79,5.854 -14.121,5.854 -5.332,0 -10.347,-2.079 -14.122,-5.854 L 87.929,356.672 c -3.774,-3.774 -5.854,-8.789 -5.854,-14.121 0,-5.331 2.078,-10.346 5.854,-14.121 l 19.158,-19.158 c -4.03,-7.711 -7.387,-15.831 -10.03,-24.271 H 70 c -11.028,0 -20,-8.972 -20,-20 v -50 c 0,-11.028 8.972,-20 20,-20 h 27.057 c 2.644,-8.439 6,-16.56 10.03,-24.271 L 87.929,151.572 c -3.775,-3.775 -5.854,-8.79 -5.854,-14.121 0,-5.332 2.079,-10.347 5.854,-14.122 L 123.328,87.93 c 3.774,-3.774 8.789,-5.854 14.121,-5.854 5.331,0 10.346,2.078 14.121,5.854 l 19.158,19.158 c 7.711,-4.03 15.831,-7.387 24.271,-10.03 V 70 c 0,-11.028 8.972,-20 20,-20 h 50 c 11.028,0 20,8.972 20,20 v 27.057 c 8.439,2.644 16.56,6 24.271,10.03 l 19.158,-19.158 c 3.775,-3.775 8.79,-5.854 14.121,-5.854 5.332,0 10.347,2.079 14.122,5.854 l 35.399,35.399 c 3.774,3.774 5.854,8.789 5.854,14.121 0,5.331 -2.078,10.346 -5.854,14.121 l -19.158,19.158 c 4.03,7.711 7.387,15.831 10.03,24.271 H 410 c 11.028,0 20,8.972 20,20 v 50 c 0,11.028 -8.972,20 -20,20 h -27.057 c -2.644,8.439 -6,16.56 -10.03,24.271 l 19.158,19.158 c 3.775,3.775 5.854,8.79 5.854,14.121 0,5.332 -2.079,10.347 -5.854,14.122 l -35.399,35.399 c -3.774,3.774 -8.789,5.854 -14.121,5.854 -5.331,0 -10.346,-2.078 -14.121,-5.854 l -19.158,-19.158 c -7.711,4.03 -15.831,7.387 -24.271,10.03 V 410 C 285,421.028 276.028,430 265,430 Z m -95.997,-79.5 c 1.754,0 3.52,0.46 5.107,1.404 10.254,6.097 21.486,10.744 33.387,13.813 4.417,1.14 7.503,5.122 7.503,9.684 V 410 h 50 v -34.6 c 0,-4.562 3.086,-8.544 7.503,-9.684 11.9,-3.068 23.133,-7.716 33.387,-13.813 3.929,-2.336 8.946,-1.711 12.182,1.524 l 24.5,24.5 35.357,-35.4 -24.5,-24.457 c -3.234,-3.234 -3.861,-8.251 -1.524,-12.182 6.097,-10.254 10.744,-21.486 13.813,-33.387 1.14,-4.417 5.122,-7.503 9.684,-7.503 H 410 v -50 h -34.6 c -4.562,0 -8.544,-3.086 -9.684,-7.503 -3.068,-11.9 -7.716,-23.133 -13.813,-33.387 -2.337,-3.931 -1.71,-8.947 1.524,-12.182 l 24.5,-24.5 -35.4,-35.357 -24.457,24.5 c -3.235,3.233 -8.253,3.861 -12.182,1.524 -10.254,-6.097 -21.486,-10.744 -33.387,-13.813 -4.417,-1.14 -7.503,-5.122 -7.503,-9.684 V 70 h -50 v 34.6 c 0,4.562 -3.086,8.544 -7.503,9.684 -11.9,3.068 -23.133,7.716 -33.387,13.813 -3.929,2.337 -8.946,1.711 -12.182,-1.524 l -24.5,-24.5 -35.357,35.4 24.5,24.457 c 3.234,3.234 3.861,8.251 1.524,12.182 -6.097,10.254 -10.744,21.486 -13.813,33.387 -1.14,4.417 -5.122,7.503 -9.684,7.503 H 70 v 50 h 34.6 c 4.562,0 8.544,3.086 9.684,7.503 3.068,11.9 7.716,23.133 13.813,33.387 2.337,3.931 1.71,8.947 -1.524,12.182 l -24.5,24.5 35.4,35.357 24.457,-24.5 c 1.926,-1.929 4.487,-2.931 7.073,-2.931 z"
                     id="path2679" />
                </g>
              </g>
            </g>
          </g>
          <g
             transform="matrix(0,0.12201588,0.12201588,0,78.090368,144.13488)"
             id="g2695">
            <path
               inkscape:connector-curvature="0"
               id="path2689"
               d="m -410.51006,583.63372 -21.68434,21.68433 21.68434,21.68433"
               style="fill:none;stroke:#000000;stroke-width:8.19565487;stroke-linecap:butt;stroke-linejoin:miter;stroke-miterlimit:4;stroke-dasharray:none;stroke-opacity:1" />
            <path
               sodipodi:nodetypes="cc"
               inkscape:connector-curvature="0"
               id="path2691"
               d="m -401.26671,643.2106 13.19636,-75.51131"
               style="fill:none;stroke:#000000;stroke-width:4.09782743;stroke-linecap:butt;stroke-linejoin:miter;stroke-miterlimit:4;stroke-dasharray:none;stroke-opacity:1" />
            <path
               style="fill:none;stroke:#000000;stroke-width:8.19565487;stroke-linecap:butt;stroke-linejoin:miter;stroke-miterlimit:4;stroke-dasharray:none;stroke-opacity:1"
               d="m -375.81513,583.63372 21.68434,21.68433 -21.68434,21.68433"
               id="path2693"
               inkscape:connector-curvature="0" />
          </g>
          <path
             style="opacity:1;fill:#bc9e9f;fill-opacity:1;fill-rule:nonzero;stroke:#ffffff;stroke-width:1.42857146;stroke-linecap:square;stroke-linejoin:round;stroke-miterlimit:4;stroke-dasharray:none;stroke-dashoffset:0;stroke-opacity:1;paint-order:stroke fill markers"
             d="m 122.24843,79.362553 c -0.19437,-1.456756 -0.7775,-2.661967 -1.83491,-3.792429 -1.02501,-1.095811 -2.15077,-1.731552 -3.61719,-2.042694 -0.69338,-0.147122 -5.60874,-0.212495 -15.97703,-0.212495 -12.915897,0 -15.130206,0.04028 -16.100065,0.292899 -2.071703,0.539613 -3.738644,1.958811 -4.66817,3.974388 l -0.428837,0.929887 v 17.575892 c 0,17.562919 2.64e-4,17.576519 0.404061,18.426339 0.649811,1.36769 1.508641,2.40561 2.572091,3.10845 1.906326,1.25989 1.591321,1.2386 18.27747,1.23532 16.21112,-0.003 16.32011,-0.009 18.01464,-1.00231 1.17987,-0.69145 2.49118,-2.21406 3.00767,-3.49234 l 0.43538,-1.07754 0.0268,-16.441968 c 0.0147,-9.043079 -0.0356,-16.909708 -0.1119,-17.481399 z"
             id="path2703"
             inkscape:connector-curvature="0" />
          <g
             id="g4603"
             transform="translate(1.3056761)">
            <g
               transform="matrix(0,0.12201588,0.12201588,0,-11.289947,63.360216)"
               id="g2433">
              <g
                 transform="matrix(0.40313754,0,0,0.40313754,626.8277,476.86503)"
                 id="XMLID_77_" />
              <g
                 transform="translate(102.9436,4.1093924)"
                 id="g2584">
                <g
                   transform="translate(-955.50313,414.76302)"
                   id="g2519">
                  <g
                     id="g2509"
                     transform="matrix(0.40313754,0,0,0.40313754,594.92982,393.90235)">
                    <g
                       id="g2507">
                      <path
                         id="path2505"
                         d="M 240,480 C 107.664,480 0,372.336 0,240 0,107.664 107.664,0 240,0 372.336,0 480,107.664 480,240 480,372.336 372.336,480 240,480 Z M 240,20 C 118.691,20 20,118.691 20,240 20,361.309 118.691,460 240,460 361.309,460 460,361.309 460,240 460,118.691 361.309,20 240,20 Z"
                         style="fill:#231f20"
                         inkscape:connector-curvature="0" />
                    </g>
                  </g>
                  <g
                     id="g2517"
                     transform="matrix(0.40313754,0,0,0.40313754,594.92981,393.90235)">
                    <g
                       id="g2515">
                      <g
                         id="g2513">
                        <path
                           id="path2511"
                           d="m 265,430 h -50 c -11.028,0 -20,-8.972 -20,-20 v -27.057 c -8.439,-2.644 -16.56,-6 -24.271,-10.03 l -19.158,19.158 c -3.775,3.775 -8.79,5.854 -14.121,5.854 -5.332,0 -10.347,-2.079 -14.122,-5.854 L 87.929,356.672 c -3.774,-3.774 -5.854,-8.789 -5.854,-14.121 0,-5.331 2.078,-10.346 5.854,-14.121 l 19.158,-19.158 c -4.03,-7.711 -7.387,-15.831 -10.03,-24.271 H 70 c -11.028,0 -20,-8.972 -20,-20 v -50 c 0,-11.028 8.972,-20 20,-20 h 27.057 c 2.644,-8.439 6,-16.56 10.03,-24.271 L 87.929,151.572 c -3.775,-3.775 -5.854,-8.79 -5.854,-14.121 0,-5.332 2.079,-10.347 5.854,-14.122 L 123.328,87.93 c 3.774,-3.774 8.789,-5.854 14.121,-5.854 5.331,0 10.346,2.078 14.121,5.854 l 19.158,19.158 c 7.711,-4.03 15.831,-7.387 24.271,-10.03 V 70 c 0,-11.028 8.972,-20 20,-20 h 50 c 11.028,0 20,8.972 20,20 v 27.057 c 8.439,2.644 16.56,6 24.271,10.03 l 19.158,-19.158 c 3.775,-3.775 8.79,-5.854 14.121,-5.854 5.332,0 10.347,2.079 14.122,5.854 l 35.399,35.399 c 3.774,3.774 5.854,8.789 5.854,14.121 0,5.331 -2.078,10.346 -5.854,14.121 l -19.158,19.158 c 4.03,7.711 7.387,15.831 10.03,24.271 H 410 c 11.028,0 20,8.972 20,20 v 50 c 0,11.028 -8.972,20 -20,20 h -27.057 c -2.644,8.439 -6,16.56 -10.03,24.271 l 19.158,19.158 c 3.775,3.775 5.854,8.79 5.854,14.121 0,5.332 -2.079,10.347 -5.854,14.122 l -35.399,35.399 c -3.774,3.774 -8.789,5.854 -14.121,5.854 -5.331,0 -10.346,-2.078 -14.121,-5.854 l -19.158,-19.158 c -7.711,4.03 -15.831,7.387 -24.271,10.03 V 410 C 285,421.028 276.028,430 265,430 Z m -95.997,-79.5 c 1.754,0 3.52,0.46 5.107,1.404 10.254,6.097 21.486,10.744 33.387,13.813 4.417,1.14 7.503,5.122 7.503,9.684 V 410 h 50 v -34.6 c 0,-4.562 3.086,-8.544 7.503,-9.684 11.9,-3.068 23.133,-7.716 33.387,-13.813 3.929,-2.336 8.946,-1.711 12.182,1.524 l 24.5,24.5 35.357,-35.4 -24.5,-24.457 c -3.234,-3.234 -3.861,-8.251 -1.524,-12.182 6.097,-10.254 10.744,-21.486 13.813,-33.387 1.14,-4.417 5.122,-7.503 9.684,-7.503 H 410 v -50 h -34.6 c -4.562,0 -8.544,-3.086 -9.684,-7.503 -3.068,-11.9 -7.716,-23.133 -13.813,-33.387 -2.337,-3.931 -1.71,-8.947 1.524,-12.182 l 24.5,-24.5 -35.4,-35.357 -24.457,24.5 c -3.235,3.233 -8.253,3.861 -12.182,1.524 -10.254,-6.097 -21.486,-10.744 -33.387,-13.813 -4.417,-1.14 -7.503,-5.122 -7.503,-9.684 V 70 h -50 v 34.6 c 0,4.562 -3.086,8.544 -7.503,9.684 -11.9,3.068 -23.133,7.716 -33.387,13.813 -3.929,2.337 -8.946,1.711 -12.182,-1.524 l -24.5,-24.5 -35.357,35.4 24.5,24.457 c 3.234,3.234 3.861,8.251 1.524,12.182 -6.097,10.254 -10.744,21.486 -13.813,33.387 -1.14,4.417 -5.122,7.503 -9.684,7.503 H 70 v 50 h 34.6 c 4.562,0 8.544,3.086 9.684,7.503 3.068,11.9 7.716,23.133 13.813,33.387 2.337,3.931 1.71,8.947 -1.524,12.182 l -24.5,24.5 35.4,35.357 24.457,-24.5 c 1.926,-1.929 4.487,-2.931 7.073,-2.931 z"
                           style="fill:#231f20"
                           inkscape:connector-curvature="0" />
                      </g>
                    </g>
                  </g>
                </g>
                <g
                   id="g2554"
                   transform="translate(129.34229,299.96343)">
                  <path
                     style="fill:none;stroke:#000000;stroke-width:8.19565487;stroke-linecap:butt;stroke-linejoin:miter;stroke-miterlimit:4;stroke-dasharray:none;stroke-opacity:1"
                     d="m -410.51006,583.63372 -21.68434,21.68433 21.68434,21.68433"
                     id="path2548"
                     inkscape:connector-curvature="0" />
                  <path
                     style="fill:none;stroke:#000000;stroke-width:4.09782743;stroke-linecap:butt;stroke-linejoin:miter;stroke-miterlimit:4;stroke-dasharray:none;stroke-opacity:1"
                     d="m -401.26671,643.2106 13.19636,-75.51131"
                     id="path2550"
                     inkscape:connector-curvature="0"
                     sodipodi:nodetypes="cc" />
                  <path
                     inkscape:connector-curvature="0"
                     id="path2552"
                     d="m -375.81513,583.63372 21.68434,21.68433 -21.68434,21.68433"
                     style="fill:none;stroke:#000000;stroke-width:8.19565487;stroke-linecap:butt;stroke-linejoin:miter;stroke-miterlimit:4;stroke-dasharray:none;stroke-opacity:1" />
                </g>
              </g>
            </g>
            <path
               transform="matrix(0,0.26458333,0.26458333,0,3.6934664,-1.8097813)"
               inkscape:connector-curvature="0"
               id="path2705"
               d="m 159.29308,401.06564 c -16.82377,-5.74172 -27.5,-20.5894 -27.5,-38.2449 0,-17.32216 10.69711,-32.27179 27.54846,-38.50008 5.81005,-2.1474 18.67787,-2.28345 24.84014,-0.26262 11.9249,3.9106 21.98568,13.79406 26.2857,25.82241 2.12065,5.93204 2.58195,16.32272 0.99423,22.39443 -2.57144,9.83358 -8.1434,17.9456 -16.22456,23.62078 -10.40217,7.30516 -23.9697,9.25664 -35.94397,5.16998 z m 20.03247,-4.05833 c 1.25975,-1.25974 1.75325,-2.53432 1.75325,-4.5282 0,-2.30939 0.31789,-2.9198 1.8948,-3.63828 1.71482,-0.78133 2.10816,-0.65653 4.14115,1.31392 3.34467,3.24179 5.011,2.87135 10.19483,-2.26641 5.14495,-5.09922 5.47327,-6.52222 2.33062,-10.10149 -1.84123,-2.09705 -2.05059,-2.72104 -1.44625,-4.31057 0.60617,-1.59435 1.13273,-1.85857 3.70378,-1.85857 4.85143,0 5.60964,-1.20996 5.60964,-8.95182 0,-7.57761 -0.36504,-8.16614 -5.41829,-8.73571 -2.53068,-0.28525 -3.44603,-0.74522 -4.02895,-2.02459 -0.64281,-1.41082 -0.42271,-2.03313 1.48933,-4.21082 1.234,-1.40544 2.24362,-3.24059 2.24362,-4.07811 0,-2.03395 -8.53643,-10.57038 -10.57038,-10.57038 -0.83752,0 -2.67267,1.00963 -4.07811,2.24362 -2.23651,1.96368 -2.77434,2.14384 -4.31056,1.44388 -1.41575,-0.64505 -1.75523,-1.32456 -1.75523,-3.51326 0,-1.49243 -0.50037,-3.4279 -1.11193,-4.30102 -1.01475,-1.44876 -1.69791,-1.58751 -7.81664,-1.58751 -6.11873,0 -6.80189,0.13875 -7.81664,1.58751 -0.61157,0.87312 -1.11193,2.80859 -1.11193,4.30102 0,2.1887 -0.33948,2.86821 -1.75523,3.51326 -1.53623,0.69996 -2.07406,0.5198 -4.31057,-1.44388 -1.40544,-1.23399 -3.21484,-2.24362 -4.02088,-2.24362 -0.82332,0 -3.47304,1.92769 -6.04658,4.39893 -5.32725,5.11549 -5.73313,6.84439 -2.41139,10.27156 1.84488,1.90343 2.067,2.50844 1.48394,4.04201 -0.55977,1.47229 -1.2861,1.87119 -3.95496,2.17201 -5.03309,0.5673 -5.41291,1.17153 -5.41291,8.61099 0,7.81752 0.76059,9.07593 5.48553,9.07593 2.70474,0 3.21556,0.24802 3.82789,1.85857 0.60434,1.58953 0.39498,2.21352 -1.44625,4.31057 -1.18408,1.3486 -2.15288,3.15538 -2.15288,4.01506 0,0.95995 1.71464,3.29309 4.44365,6.04658 5.15519,5.20142 6.85293,5.58399 10.23469,2.30626 2.03298,-1.97045 2.42632,-2.09525 4.14115,-1.31392 1.5769,0.71848 1.8948,1.32889 1.8948,3.63828 0,1.99388 0.49349,3.26846 1.75324,4.5282 1.55352,1.55353 2.37093,1.75325 7.17533,1.75325 4.80439,0 5.62181,-0.19972 7.17532,-1.75325 z"
               style="opacity:1;fill:#3f7acd;fill-opacity:1;fill-rule:nonzero;stroke:#000000;stroke-width:5.39932537;stroke-linecap:square;stroke-linejoin:round;stroke-miterlimit:4;stroke-dasharray:none;stroke-dashoffset:0;stroke-opacity:1;paint-order:stroke fill markers" />
            <path
               transform="matrix(0,0.26458333,0.26458333,0,3.6934664,-1.8097813)"
               inkscape:connector-curvature="0"
               id="path2709"
               d="m 167.50737,390.18013 v -3.58044 l -4.01745,-1.7767 c -2.2096,-0.97719 -4.36569,-1.77671 -4.79131,-1.77671 -0.42563,0 -1.92591,1.12494 -3.33396,2.49987 l -2.5601,2.49986 -3.01147,-3.06847 -3.01148,-3.06846 2.50574,-2.42867 c 1.37816,-1.33576 2.50574,-2.80775 2.50574,-3.27109 0,-0.46333 -0.79951,-2.65028 -1.7767,-4.85988 l -1.77671,-4.01745 h -3.58044 -3.58043 v -4.28571 -4.28572 l 3.03571,-0.0109 c 1.66965,-0.006 3.36016,-0.24709 3.7567,-0.53572 0.74485,-0.54215 3.92187,-7.89442 3.92187,-9.076 0,-0.36656 -1.03353,-1.73281 -2.29673,-3.0361 l -2.29673,-2.36963 2.99683,-2.99683 2.99682,-2.99682 2.36963,2.29673 c 1.30329,1.2632 2.64275,2.29673 2.97657,2.29673 0.33382,0 2.48816,-0.68592 4.78742,-1.52428 l 4.18048,-1.52428 v -3.83286 -3.83286 h 4.64286 4.64285 v 3.83286 3.83286 l 4.18048,1.52428 c 2.29927,0.83836 4.45361,1.52428 4.78743,1.52428 0.33382,0 1.67327,-1.03353 2.97657,-2.29673 l 2.36962,-2.29673 2.99683,2.99682 2.99682,2.99683 -2.419,2.49578 -2.41901,2.49578 1.37228,4.06812 c 1.75867,5.21361 2.57127,5.9687 6.42329,5.9687 h 3.16327 v 4.28572 4.28571 h -3.58044 -3.58044 l -1.7767,4.01745 c -0.97719,2.2096 -1.77671,4.36569 -1.77671,4.79132 0,0.42562 1.12494,1.9259 2.49987,3.33395 l 2.49987,2.5601 -3.06847,3.01148 -3.06847,3.01147 -2.42866,-2.50574 c -1.33577,-1.37816 -2.80776,-2.50574 -3.27109,-2.50574 -0.46334,0 -2.65029,0.79952 -4.85989,1.77671 l -4.01745,1.7767 v 3.58044 3.58043 h -4.64285 -4.64286 z m 2.14286,-9.58781 c 0,-0.17111 1.28571,-7.62449 2.85714,-16.56308 3.20299,-18.21923 3.26351,-18.8401 1.83636,-18.8401 -1.14988,0 -1.42009,1.16705 -4.75281,20.52766 -1.23341,7.16522 -2.05616,13.51343 -1.82833,14.10714 0.3664,0.95485 1.88764,1.57408 1.88764,0.76838 z m -4.28572,-9.24318 c 0,-0.41879 -1.76869,-2.54877 -3.93041,-4.7333 l -3.93042,-3.97186 3.93042,-3.88159 c 2.16172,-2.13488 3.93041,-4.1887 3.93041,-4.56404 0,-0.37534 -0.54325,-1.28272 -1.20722,-2.0164 -1.16208,-1.28409 -1.42914,-1.11319 -7.14328,4.57126 l -5.93606,5.90523 5.85834,5.88893 c 5.50839,5.53716 5.93509,5.81947 7.14328,4.72607 0.70672,-0.63957 1.28494,-1.50551 1.28494,-1.9243 z m 21.9951,-14.52282 -5.86289,-5.8935 -1.65541,1.55518 -1.65542,1.55518 4.30517,4.34378 4.30517,4.34378 -4.27576,4.23115 -4.27576,4.23114 1.56046,1.66104 1.56047,1.66103 5.92843,-5.89763 5.92844,-5.89764 z"
               style="opacity:1;fill:#da8f6a;fill-opacity:1;fill-rule:nonzero;stroke:#000000;stroke-width:5.39932537;stroke-linecap:square;stroke-linejoin:round;stroke-miterlimit:4;stroke-dasharray:none;stroke-dashoffset:0;stroke-opacity:1;paint-order:stroke fill markers" />
          </g>
          <path
             style="opacity:1;fill:#3f7acd;fill-opacity:1;fill-rule:nonzero;stroke:#000000;stroke-width:1.42857146;stroke-linecap:square;stroke-linejoin:round;stroke-miterlimit:4;stroke-dasharray:none;stroke-dashoffset:0;stroke-opacity:1;paint-order:stroke fill markers"
             d="m 162.38978,93.637086 c -1.22006,-5.031571 -6.21134,-8.675883 -11.24217,-8.208317 -4.51805,0.419907 -8.23536,3.487478 -9.51908,7.855265 -0.38628,1.31431 -0.39248,4.1207 -0.0123,5.58024 0.45207,1.735596 1.37379,3.287526 2.82319,4.753486 2.13054,2.1549 4.55004,3.16811 7.56526,3.16811 2.93835,0 5.48489,-1.06937 7.55953,-3.17447 2.57816,-2.61602 3.67284,-6.480227 2.82558,-9.974314 z m -1.36127,4.436639 c -0.18209,0.16479 -0.70701,0.326797 -1.16649,0.360021 -0.72088,0.05212 -0.85917,0.132091 -1.00865,0.583285 -0.148,0.44672 -0.0882,0.619715 0.41054,1.187749 0.32107,0.36568 0.58376,0.80846 0.58376,0.98394 0,0.17549 -0.52907,0.85289 -1.17571,1.50533 -1.35978,1.37197 -1.8141,1.47653 -2.69707,0.62072 -0.54256,-0.52586 -0.62606,-0.54947 -1.19018,-0.33654 -0.55778,0.21054 -0.60668,0.29682 -0.60668,1.07038 0,1.31132 -0.31801,1.5326 -2.20265,1.5326 -1.92787,0 -2.33306,-0.27578 -2.33306,-1.58791 0,-0.74793 -0.0553,-0.85125 -0.54752,-1.02283 -0.48389,-0.16868 -0.6088,-0.1269 -1.07479,0.35949 -0.86487,0.90272 -1.51181,0.77066 -2.79015,-0.56955 -1.24817,-1.30858 -1.33357,-1.7775 -0.49721,-2.73006 0.50949,-0.580284 0.54693,-0.703103 0.34764,-1.140504 -0.18814,-0.412922 -0.34692,-0.490189 -1.00734,-0.490189 -1.27866,0 -1.50239,-0.291798 -1.58289,-2.064512 -0.0927,-2.04089 0.16303,-2.471203 1.46848,-2.471203 0.86674,0 0.93471,-0.03617 1.13215,-0.602554 0.19218,-0.55128 0.16159,-0.652563 -0.35949,-1.190172 -0.87398,-0.901719 -0.76513,-1.361335 0.64253,-2.71303 0.66663,-0.640138 1.34675,-1.163886 1.51136,-1.163886 0.16461,0 0.61845,0.282228 1.00854,0.627174 0.62332,0.551182 0.77222,0.604006 1.22897,0.435985 0.45093,-0.16588 0.51972,-0.293349 0.51972,-0.963096 0,-0.424551 0.13239,-0.960925 0.2942,-1.19194 0.26591,-0.37964 0.45323,-0.420026 1.94825,-0.420026 2.01289,0 2.25744,0.147071 2.3323,1.402635 0.0496,0.831501 0.11202,0.94892 0.58868,1.106935 0.42926,0.142301 0.61351,0.103725 0.94494,-0.197845 0.78555,-0.714761 1.20627,-0.83843 1.80284,-0.529931 0.72626,0.375563 2.29414,2.137984 2.29414,2.578796 0,0.193026 -0.26269,0.650152 -0.58376,1.015833 -0.49891,0.568224 -0.55855,0.740881 -0.41027,1.187752 0.15315,0.461552 0.28938,0.534693 1.16149,0.623633 0.56854,0.05798 1.06243,0.218451 1.16333,0.377976 0.0964,0.152471 0.17663,1.008181 0.17823,1.901576 0.002,1.310111 -0.0612,1.682319 -0.32818,1.923968 z"
             id="path2715"
             inkscape:connector-curvature="0" />
          <g
             id="g4607"
             transform="translate(1.3254666)">
            <path
               transform="matrix(0,0.26458333,0.26458333,0,3.6934664,-1.8097813)"
               inkscape:connector-curvature="0"
               id="path2717"
               d="m 555.34975,401.24876 c -16.30249,-5.2517 -27.84238,-20.98515 -27.84238,-37.96025 0,-16.2176 8.63272,-29.97977 23.21429,-37.00791 22.70221,-10.94219 49.99879,2.00186 56.44379,26.76568 1.7602,6.76324 1.16431,17.27995 -1.35084,23.84101 -4.72087,12.31492 -15.12864,21.77978 -27.59836,25.09805 -6.22329,1.65606 -16.46312,1.32621 -22.8665,-0.73658 z m 19.69009,-4.24145 c 1.25974,-1.25974 1.75324,-2.53432 1.75324,-4.5282 0,-2.30939 0.3179,-2.9198 1.8948,-3.63828 1.71483,-0.78133 2.10817,-0.65653 4.14115,1.31392 3.34468,3.24179 5.011,2.87135 10.19484,-2.26641 5.14495,-5.09922 5.47326,-6.52222 2.33062,-10.10149 -1.84123,-2.09705 -2.05059,-2.72104 -1.44625,-4.31057 0.60617,-1.59435 1.13272,-1.85857 3.70378,-1.85857 4.85142,0 5.60964,-1.20996 5.60964,-8.95182 0,-7.57633 -0.36553,-8.16619 -5.41291,-8.7351 -2.64372,-0.29799 -3.39726,-0.70515 -3.9382,-2.12794 -0.55769,-1.46683 -0.3109,-2.16721 1.48394,-4.21143 1.18408,-1.3486 2.15288,-3.19343 2.15288,-4.09963 0,-2.07547 -8.51596,-10.44551 -10.62761,-10.44551 -0.80605,0 -2.61544,1.00963 -4.02088,2.24362 -2.23651,1.96368 -2.77434,2.14384 -4.31057,1.44388 -1.41575,-0.64505 -1.75523,-1.32456 -1.75523,-3.51326 0,-1.49243 -0.50037,-3.4279 -1.11193,-4.30102 -1.01475,-1.44876 -1.69791,-1.58751 -7.81664,-1.58751 -6.11873,0 -6.80189,0.13875 -7.81664,1.58751 -0.61156,0.87312 -1.11193,2.80859 -1.11193,4.30102 0,2.1887 -0.33948,2.86821 -1.75523,3.51326 -1.53622,0.69996 -2.07405,0.5198 -4.31056,-1.44388 -1.40544,-1.23399 -3.24059,-2.24362 -4.07811,-2.24362 -2.03395,0 -10.57038,8.53643 -10.57038,10.57038 0,0.83752 1.00962,2.67267 2.24362,4.07811 1.91204,2.17769 2.13214,2.8 1.48933,4.21082 -0.58292,1.27937 -1.49827,1.73934 -4.02895,2.02459 -5.03895,0.56796 -5.41829,1.17087 -5.41829,8.6116 0,7.81752 0.76058,9.07593 5.48553,9.07593 2.70473,0 3.21555,0.24802 3.82789,1.85857 0.60433,1.58953 0.39498,2.21352 -1.44626,4.31057 -1.18408,1.3486 -2.15287,3.15538 -2.15287,4.01506 0,0.95995 1.71463,3.29309 4.44365,6.04658 5.15519,5.20142 6.85292,5.58399 10.23468,2.30626 2.03298,-1.97045 2.42633,-2.09525 4.14115,-1.31392 1.57691,0.71848 1.8948,1.32889 1.8948,3.63828 0,1.99388 0.4935,3.26846 1.75325,4.5282 1.55351,1.55353 2.37093,1.75325 7.17532,1.75325 4.8044,0 5.62181,-0.19972 7.17533,-1.75325 z"
               style="opacity:1;fill:#3f7acd;fill-opacity:1;fill-rule:nonzero;stroke:#000000;stroke-width:5.39932537;stroke-linecap:square;stroke-linejoin:round;stroke-miterlimit:4;stroke-dasharray:none;stroke-dashoffset:0;stroke-opacity:1;paint-order:stroke fill markers" />
            <path
               transform="matrix(0,0.26458333,0.26458333,0,3.6934664,-1.8097813)"
               inkscape:connector-curvature="0"
               id="path2719"
               d="m 563.22166,390.18013 v -3.58044 l -4.01745,-1.7767 c -2.2096,-0.97719 -4.36569,-1.77671 -4.79132,-1.77671 -0.42562,0 -1.9259,1.12494 -3.33396,2.49987 l -2.56009,2.49986 -3.01148,-3.06847 -3.01147,-3.06846 2.50574,-2.42867 c 1.37816,-1.33576 2.50574,-2.80775 2.50574,-3.27109 0,-0.46333 -0.79952,-2.65028 -1.77671,-4.85988 l -1.7767,-4.01745 h -3.58044 -3.58044 v -4.28571 -4.28572 l 3.03572,-0.0109 c 1.66964,-0.006 3.3724,-0.24709 3.78391,-0.53572 0.79796,-0.55968 3.89466,-7.69891 3.89466,-8.97888 0,-0.41998 -1.03353,-1.82993 -2.29673,-3.13322 l -2.29673,-2.36963 2.99682,-2.99683 2.99683,-2.99682 2.36962,2.29673 c 1.3033,1.2632 2.64275,2.29673 2.97657,2.29673 0.33382,0 2.48816,-0.68592 4.78743,-1.52428 l 4.18048,-1.52428 v -3.83286 -3.83286 h 4.64285 4.64286 v 3.83286 3.83286 l 4.18048,1.52428 c 2.29926,0.83836 4.4536,1.52428 4.78742,1.52428 0.33382,0 1.67328,-1.03353 2.97657,-2.29673 l 2.36963,-2.29673 2.99682,2.99682 2.99683,2.99683 -2.29673,2.36963 c -1.26321,1.30329 -2.29673,2.66954 -2.29673,3.0361 0,1.18158 3.17702,8.53385 3.92187,9.076 0.39654,0.28863 2.08705,0.5297 3.7567,0.53572 l 3.03571,0.0109 v 4.28572 4.28571 h -3.58043 -3.58044 l -1.77671,4.01745 c -0.97719,2.2096 -1.7767,4.36569 -1.7767,4.79132 0,0.42562 1.12494,1.9259 2.49986,3.33395 l 2.49987,2.5601 -3.06847,3.01148 -3.06847,3.01147 -2.42866,-2.50574 c -1.33576,-1.37816 -2.80775,-2.50574 -3.27109,-2.50574 -0.46334,0 -2.65028,0.79952 -4.85988,1.77671 l -4.01745,1.7767 v 3.58044 3.58043 h -4.64286 -4.64285 z m 9.03483,-10.36748 c 0.33697,-0.87814 -3.75982,-26.68025 -5.24226,-33.01637 -0.45954,-1.96413 -2.364,-2.14508 -2.364,-0.22461 0,0.76039 1.28571,8.69592 2.85714,17.6345 1.57143,8.93859 2.85714,16.35217 2.85714,16.47462 0,0.74389 1.54552,0.0347 1.89198,-0.86814 z m -11.17769,-8.46351 c 0,-0.41879 -1.76869,-2.54877 -3.93042,-4.7333 l -3.93042,-3.97186 3.93042,-3.88159 c 2.16173,-2.13488 3.93042,-4.1887 3.93042,-4.56404 0,-0.37534 -0.54325,-1.28272 -1.20722,-2.0164 -1.16208,-1.28409 -1.42915,-1.11319 -7.14328,4.57126 l -5.93607,5.90523 5.85834,5.88893 c 5.50839,5.53716 5.93509,5.81947 7.14328,4.72607 0.70672,-0.63957 1.28495,-1.50551 1.28495,-1.9243 z m 21.99965,-14.51824 c -5.50839,-5.53715 -5.93509,-5.81947 -7.14328,-4.72607 -0.70672,0.63957 -1.28494,1.52581 -1.28494,1.96941 0,0.4436 1.76868,2.55327 3.93041,4.68815 l 3.93042,3.88159 -3.93042,3.97186 c -2.16173,2.18453 -3.93041,4.25866 -3.93041,4.60919 0,0.35053 0.54324,1.23762 1.20721,1.97129 1.16209,1.28409 1.42915,1.11319 7.14329,-4.57126 l 5.93606,-5.90523 z"
               style="opacity:1;fill:#da8f6a;fill-opacity:1;fill-rule:nonzero;stroke:#000000;stroke-width:5.39932537;stroke-linecap:square;stroke-linejoin:round;stroke-miterlimit:4;stroke-dasharray:none;stroke-dashoffset:0;stroke-opacity:1;paint-order:stroke fill markers" />
          </g>
          <path
             style="opacity:1;fill:#da8f6a;fill-opacity:1;fill-rule:nonzero;stroke:#000000;stroke-width:1.42857146;stroke-linecap:square;stroke-linejoin:round;stroke-miterlimit:4;stroke-dasharray:none;stroke-dashoffset:0;stroke-opacity:1;paint-order:stroke fill markers"
             d="M 159.27833,94.952915 H 158.331 l -0.47008,-1.06295 c -0.60336,-1.364295 -0.59325,-1.532318 0.13758,-2.286346 l 0.60768,-0.626965 -0.78485,-0.784855 -0.78486,-0.784857 -0.75203,0.679413 -0.75203,0.679415 -1.00792,-0.413202 c -1.46601,-0.600996 -1.48039,-0.616998 -1.48039,-1.647415 v -0.933786 h -1.13393 -1.13393 v 1.020948 c 0,0.941927 -0.0402,1.035582 -0.51971,1.210035 -0.28585,0.103999 -0.83864,0.326072 -1.22843,0.493495 l -0.70871,0.304409 -0.7087,-0.653103 -0.7087,-0.653106 -0.80317,0.784376 -0.80316,0.784373 0.68554,0.702054 0.68553,0.702053 -0.44756,1.101267 c -0.24616,0.605695 -0.53341,1.163746 -0.63833,1.240113 -0.10491,0.07636 -0.55219,0.140147 -0.99396,0.14174 l -0.80319,0.0029 v 1.12405 1.124054 l 0.9574,0.05712 0.9574,0.05712 0.48088,1.199086 0.48087,1.199084 -0.68229,0.698725 -0.68229,0.69873 0.8083,0.79329 0.80829,0.79328 0.68187,-0.68187 0.68187,-0.68186 1.20288,0.48248 1.20288,0.48249 0.0567,1.05181 0.0567,1.05181 h 1.11462 1.11462 l 0.0571,-0.97272 c 0.0613,-1.04303 0.0454,-1.02549 1.53391,-1.69494 l 0.90982,-0.40918 0.74692,0.72935 0.74692,0.72935 0.79357,-0.79358 0.79357,-0.79357 -0.63218,-0.65225 c -0.67017,-0.691434 -0.68296,-0.854502 -0.17181,-2.190081 0.40768,-1.065223 0.49794,-1.133928 1.48967,-1.133928 h 0.93379 v -1.13393 -1.133927 z m -7.22112,1.267005 c -4.43207,0.769435 -4.85216,0.790549 -4.86885,0.244692 -0.002,-0.05209 1.88935,-0.422441 4.2021,-0.823015 2.31274,-0.400571 4.43886,-0.772549 4.7247,-0.826614 0.41723,-0.07892 0.51962,-0.02843 0.51921,0.25605 -5.3e-4,0.314796 -0.51138,0.443043 -4.57716,1.148887 z m 2.53589,-2.151022 c -0.32036,0.289922 -0.40819,0.240469 -1.45915,-0.821571 l -1.11827,-1.130065 -1.18679,1.176237 -1.18678,1.176234 -0.42178,-0.421775 -0.42178,-0.421777 1.55431,-1.554305 1.5543,-1.554306 1.51341,1.504532 c 0.83238,0.827495 1.51341,1.557134 1.51341,1.62142 0,0.06428 -0.15339,0.255704 -0.34088,0.425376 z m -1.17253,6.082682 -1.51341,1.50454 -1.5543,-1.55431 -1.55431,-1.554302 0.42155,-0.421548 0.42155,-0.421547 1.13426,1.122426 1.13426,1.122428 1.12758,-1.115808 c 1.10893,-1.09736 1.13392,-1.110057 1.5119,-0.767991 0.21138,0.191297 0.38433,0.400413 0.38433,0.464699 0,0.06429 -0.68103,0.793924 -1.51341,1.621413 z"
             id="path2721"
             inkscape:connector-curvature="0" />
          <g
             id="g4584"
             transform="translate(0,-0.06258798)">
            <path
               transform="matrix(0,0.26458333,0.26458333,0,3.6934664,-1.8097813)"
               inkscape:connector-curvature="0"
               id="path2711"
               d="m 361.27576,214.10954 c -11.30127,-2.45561 -22.02597,-11.04419 -27.19397,-21.77755 -7.90251,-16.41263 -4.73515,-34.08937 8.40962,-46.93327 7.25346,-7.08745 17.20976,-11.02591 27.8731,-11.02591 11.36453,0 20.15256,3.66781 28.2934,11.80864 8.15855,8.15855 11.97396,17.28784 11.97396,28.65054 0,15.54819 -8.61807,29.29595 -22.55967,35.98775 -9.02197,4.33045 -17.31911,5.34908 -26.79644,3.2898 z m 16.42831,-5.1717 c 0.62283,-0.6882 1.23514,-2.69117 1.36071,-4.45102 0.19491,-2.73174 0.508,-3.29753 2.14063,-3.86832 1.63408,-0.57131 2.28726,-0.3394 4.48914,1.59388 1.41725,1.24436 3.07559,2.26247 3.68521,2.26247 0.60962,0 3.16987,-1.97952 5.68943,-4.39893 5.31402,-5.10278 5.73037,-6.84726 2.44356,-10.23837 -1.98751,-2.05059 -2.07675,-2.3662 -1.27197,-4.4983 0.79573,-2.10814 1.12183,-2.29297 4.04552,-2.29297 4.9562,0 5.7925,-1.20193 5.7925,-8.32499 0,-7.2495 -1.05203,-8.81787 -5.91483,-8.81787 -2.72377,0 -3.14377,-0.22806 -3.84596,-2.08837 -0.70925,-1.87902 -0.58175,-2.28623 1.27197,-4.06221 3.29955,-3.16117 2.84242,-5.51758 -2.02454,-10.43585 -4.78077,-4.83118 -6.74261,-5.22718 -10.35464,-2.09007 -1.98949,1.72791 -2.64499,1.9361 -4.31057,1.36905 -1.74542,-0.59423 -1.96429,-1.02025 -1.96429,-3.8235 0,-4.89255 -1.56631,-6.01191 -8.41249,-6.01191 -7.29823,0 -8.73037,0.93256 -8.73037,5.68492 0,3.24885 -0.13962,3.50972 -2.27737,4.25495 -2.08358,0.72633 -2.46638,0.61071 -4.49829,-1.3587 -3.40807,-3.30323 -5.1452,-2.89182 -10.25397,2.42844 -2.41942,2.51957 -4.39894,5.09007 -4.39894,5.71223 0,0.62215 1.06669,2.33747 2.37042,3.81182 2.08321,2.35585 2.28286,2.91862 1.64782,4.64492 -0.64113,1.74286 -1.08315,1.96428 -3.92131,1.96428 -5.01085,0 -5.81333,1.17649 -5.80028,8.50356 0.006,3.37662 0.30914,6.61079 0.67361,7.18706 0.38133,0.60293 2.24802,1.20944 4.39682,1.42857 3.31923,0.3385 3.80869,0.60545 4.40504,2.40249 0.56489,1.70222 0.38899,2.32299 -1.11322,3.92857 -3.44816,3.68545 -3.25466,4.64298 2.04833,10.13592 2.64707,2.74189 5.3918,4.98526 6.09939,4.98526 0.70759,0 2.41734,-0.99286 3.79944,-2.20636 2.14762,-1.88564 2.80018,-2.11104 4.48914,-1.55061 1.74445,0.57884 2.02089,1.09371 2.35704,4.3899 0.21913,2.14879 0.82564,4.01548 1.42857,4.39681 0.57627,0.36447 3.81045,0.6676 7.18706,0.67361 4.9516,0.009 6.35837,-0.23114 7.27169,-1.24036 z"
               style="opacity:1;fill:#3f7acd;fill-opacity:1;fill-rule:nonzero;stroke:#000000;stroke-width:5.39932537;stroke-linecap:square;stroke-linejoin:round;stroke-miterlimit:4;stroke-dasharray:none;stroke-dashoffset:0;stroke-opacity:1;paint-order:stroke fill markers" />
            <path
               transform="matrix(0,0.26458333,0.26458333,0,3.6934664,-1.8097813)"
               inkscape:connector-curvature="0"
               id="path2725"
               d="m 366.0788,202.37415 c 0,-3.74826 -0.25967,-4.0894 -4.28572,-5.63025 -5.04786,-1.93191 -5.66418,-1.88356 -8.27747,0.64933 l -2.4652,2.38937 -2.96638,-2.96639 -2.96639,-2.96639 2.56786,-2.84231 2.56787,-2.84232 -1.56171,-3.80946 c -2.27148,-5.54082 -2.33196,-5.59517 -6.22645,-5.59517 h -3.52927 v -4.28571 -4.28571 h 3.8587 c 3.56004,0 3.91401,-0.15204 4.57336,-1.96429 0.39307,-1.08036 1.2324,-3.16965 1.86518,-4.64288 l 1.15052,-2.67859 -2.46842,-2.67855 -2.46843,-2.67855 2.96457,-3.03558 2.96456,-3.03559 2.65343,2.59101 2.65343,2.59101 4.16227,-1.69159 c 2.28924,-0.93037 4.39841,-2.01603 4.68704,-2.41257 0.28862,-0.39654 0.52969,-2.24776 0.53571,-4.11383 l 0.0109,-3.39286 h 4.25007 4.25007 l 0.21421,3.97534 0.21422,3.97535 4.53198,1.8178 4.53197,1.81781 2.64086,-2.57873 2.64087,-2.57874 2.99823,3.05499 2.99824,3.05498 -2.57713,2.57713 -2.57714,2.57714 1.82357,4.54632 1.82357,4.54632 3.97535,0.21422 3.97534,0.21422 v 4.25007 4.25006 h -3.48396 c -3.87037,0 -4.06532,0.16649 -6.50061,5.55154 l -1.70302,3.76583 2.78589,2.85301 2.78589,2.853 -2.99933,2.99933 -2.99933,2.99933 -2.36962,-2.29673 c -2.72934,-2.64538 -3.24837,-2.72031 -7.63488,-1.10231 -4.65921,1.71859 -5.02388,2.15672 -5.02388,6.03589 v 3.48397 h -4.28572 -4.28571 z m 9.06278,-11.6493 c -0.20779,-0.88393 -1.58002,-8.67857 -3.04939,-17.32143 -1.46937,-8.64286 -2.94135,-16.01964 -3.27106,-16.39286 -0.37634,-0.42599 -0.87623,-0.40182 -1.343,0.065 -0.51518,0.51518 0.18197,6.04324 2.27001,18 2.71242,15.53211 3.15133,17.25647 4.39239,17.25647 1.06567,0 1.29304,-0.36503 1.00105,-1.60714 z m -12.25533,-6.27402 c 1.29284,-1.42858 1.24486,-1.52305 -2.90265,-5.71429 l -4.21723,-4.26169 4.24225,-4.28698 4.24225,-4.28698 -1.59325,-1.59325 -1.59325,-1.59325 -5.87454,5.87454 -5.87454,5.87454 5.68642,5.71998 c 3.12754,3.14598 5.88523,5.71997 6.1282,5.71997 0.24297,0 1.03332,-0.65366 1.75634,-1.45259 z m 22.84106,-4.26738 5.68643,-5.71998 -5.87454,-5.87454 -5.87454,-5.87454 -1.59325,1.59325 -1.59325,1.59325 4.24224,4.28698 4.24225,4.28698 -4.21723,4.26169 c -4.1475,4.19124 -4.19549,4.28571 -2.90264,5.71429 0.72301,0.79893 1.51337,1.45259 1.75634,1.45259 0.24297,0 3.00066,-2.57399 6.12819,-5.71997 z"
               style="opacity:1;fill:#da8f6a;fill-opacity:1;fill-rule:nonzero;stroke:#000000;stroke-width:5.39932537;stroke-linecap:square;stroke-linejoin:round;stroke-miterlimit:4;stroke-dasharray:none;stroke-dashoffset:0;stroke-opacity:1;paint-order:stroke fill markers" />
          </g>
          <path
             style="fill:none;stroke:#3f7acd;stroke-width:2;stroke-linecap:butt;stroke-linejoin:miter;stroke-miterlimit:4;stroke-dasharray:2, 2;stroke-dashoffset:0;stroke-opacity:1"
             d="m 124.74555,96.086052 h 15.875"
             id="path2699"
             inkscape:connector-curvature="0"
             sodipodi:nodetypes="cc" />
          <g
             id="g1980"
             transform="translate(0.17174715,0.19541977)">
            <g
               id="g1957"
               transform="matrix(0,0.12201588,0.12201588,0,-10.156018,115.52093)">
              <g
                 id="g1929"
                 transform="matrix(0.40313754,0,0,0.40313754,626.8277,476.86503)" />
              <g
                 id="g1955"
                 transform="translate(102.9436,4.1093924)">
                <g
                   id="g1945"
                   transform="translate(-955.50313,414.76302)">
                  <g
                     transform="matrix(0.40313754,0,0,0.40313754,594.92982,393.90235)"
                     id="g1935">
                    <g
                       id="g1933">
                      <path
                         inkscape:connector-curvature="0"
                         style="fill:#231f20"
                         d="M 240,480 C 107.664,480 0,372.336 0,240 0,107.664 107.664,0 240,0 372.336,0 480,107.664 480,240 480,372.336 372.336,480 240,480 Z M 240,20 C 118.691,20 20,118.691 20,240 20,361.309 118.691,460 240,460 361.309,460 460,361.309 460,240 460,118.691 361.309,20 240,20 Z"
                         id="path1931" />
                    </g>
                  </g>
                  <g
                     transform="matrix(0.40313754,0,0,0.40313754,594.92981,393.90235)"
                     id="g1943">
                    <g
                       id="g1941">
                      <g
                         id="g1939">
                        <path
                           inkscape:connector-curvature="0"
                           style="fill:#231f20"
                           d="m 265,430 h -50 c -11.028,0 -20,-8.972 -20,-20 v -27.057 c -8.439,-2.644 -16.56,-6 -24.271,-10.03 l -19.158,19.158 c -3.775,3.775 -8.79,5.854 -14.121,5.854 -5.332,0 -10.347,-2.079 -14.122,-5.854 L 87.929,356.672 c -3.774,-3.774 -5.854,-8.789 -5.854,-14.121 0,-5.331 2.078,-10.346 5.854,-14.121 l 19.158,-19.158 c -4.03,-7.711 -7.387,-15.831 -10.03,-24.271 H 70 c -11.028,0 -20,-8.972 -20,-20 v -50 c 0,-11.028 8.972,-20 20,-20 h 27.057 c 2.644,-8.439 6,-16.56 10.03,-24.271 L 87.929,151.572 c -3.775,-3.775 -5.854,-8.79 -5.854,-14.121 0,-5.332 2.079,-10.347 5.854,-14.122 L 123.328,87.93 c 3.774,-3.774 8.789,-5.854 14.121,-5.854 5.331,0 10.346,2.078 14.121,5.854 l 19.158,19.158 c 7.711,-4.03 15.831,-7.387 24.271,-10.03 V 70 c 0,-11.028 8.972,-20 20,-20 h 50 c 11.028,0 20,8.972 20,20 v 27.057 c 8.439,2.644 16.56,6 24.271,10.03 l 19.158,-19.158 c 3.775,-3.775 8.79,-5.854 14.121,-5.854 5.332,0 10.347,2.079 14.122,5.854 l 35.399,35.399 c 3.774,3.774 5.854,8.789 5.854,14.121 0,5.331 -2.078,10.346 -5.854,14.121 l -19.158,19.158 c 4.03,7.711 7.387,15.831 10.03,24.271 H 410 c 11.028,0 20,8.972 20,20 v 50 c 0,11.028 -8.972,20 -20,20 h -27.057 c -2.644,8.439 -6,16.56 -10.03,24.271 l 19.158,19.158 c 3.775,3.775 5.854,8.79 5.854,14.121 0,5.332 -2.079,10.347 -5.854,14.122 l -35.399,35.399 c -3.774,3.774 -8.789,5.854 -14.121,5.854 -5.331,0 -10.346,-2.078 -14.121,-5.854 l -19.158,-19.158 c -7.711,4.03 -15.831,7.387 -24.271,10.03 V 410 C 285,421.028 276.028,430 265,430 Z m -95.997,-79.5 c 1.754,0 3.52,0.46 5.107,1.404 10.254,6.097 21.486,10.744 33.387,13.813 4.417,1.14 7.503,5.122 7.503,9.684 V 410 h 50 v -34.6 c 0,-4.562 3.086,-8.544 7.503,-9.684 11.9,-3.068 23.133,-7.716 33.387,-13.813 3.929,-2.336 8.946,-1.711 12.182,1.524 l 24.5,24.5 35.357,-35.4 -24.5,-24.457 c -3.234,-3.234 -3.861,-8.251 -1.524,-12.182 6.097,-10.254 10.744,-21.486 13.813,-33.387 1.14,-4.417 5.122,-7.503 9.684,-7.503 H 410 v -50 h -34.6 c -4.562,0 -8.544,-3.086 -9.684,-7.503 -3.068,-11.9 -7.716,-23.133 -13.813,-33.387 -2.337,-3.931 -1.71,-8.947 1.524,-12.182 l 24.5,-24.5 -35.4,-35.357 -24.457,24.5 c -3.235,3.233 -8.253,3.861 -12.182,1.524 -10.254,-6.097 -21.486,-10.744 -33.387,-13.813 -4.417,-1.14 -7.503,-5.122 -7.503,-9.684 V 70 h -50 v 34.6 c 0,4.562 -3.086,8.544 -7.503,9.684 -11.9,3.068 -23.133,7.716 -33.387,13.813 -3.929,2.337 -8.946,1.711 -12.182,-1.524 l -24.5,-24.5 -35.357,35.4 24.5,24.457 c 3.234,3.234 3.861,8.251 1.524,12.182 -6.097,10.254 -10.744,21.486 -13.813,33.387 -1.14,4.417 -5.122,7.503 -9.684,7.503 H 70 v 50 h 34.6 c 4.562,0 8.544,3.086 9.684,7.503 3.068,11.9 7.716,23.133 13.813,33.387 2.337,3.931 1.71,8.947 -1.524,12.182 l -24.5,24.5 35.4,35.357 24.457,-24.5 c 1.926,-1.929 4.487,-2.931 7.073,-2.931 z"
                           id="path1937" />
                      </g>
                    </g>
                  </g>
                </g>
                <g
                   transform="translate(129.34229,299.96343)"
                   id="g1953">
                  <path
                     inkscape:connector-curvature="0"
                     id="path1947"
                     d="m -410.51006,583.63372 -21.68434,21.68433 21.68434,21.68433"
                     style="fill:none;stroke:#000000;stroke-width:8.19565487;stroke-linecap:butt;stroke-linejoin:miter;stroke-miterlimit:4;stroke-dasharray:none;stroke-opacity:1" />
                  <path
                     sodipodi:nodetypes="cc"
                     inkscape:connector-curvature="0"
                     id="path1949"
                     d="m -401.26671,643.2106 13.19636,-75.51131"
                     style="fill:none;stroke:#000000;stroke-width:4.09782743;stroke-linecap:butt;stroke-linejoin:miter;stroke-miterlimit:4;stroke-dasharray:none;stroke-opacity:1" />
                  <path
                     style="fill:none;stroke:#000000;stroke-width:8.19565487;stroke-linecap:butt;stroke-linejoin:miter;stroke-miterlimit:4;stroke-dasharray:none;stroke-opacity:1"
                     d="m -375.81513,583.63372 21.68434,21.68433 -21.68434,21.68433"
                     id="path1951"
                     inkscape:connector-curvature="0" />
                </g>
              </g>
            </g>
            <path
               style="opacity:1;fill:#3f7acd;fill-opacity:1;fill-rule:nonzero;stroke:#000000;stroke-width:1.42857146;stroke-linecap:square;stroke-linejoin:round;stroke-miterlimit:4;stroke-dasharray:none;stroke-dashoffset:0;stroke-opacity:1;paint-order:stroke fill markers"
               d="m 110.94268,92.497227 c -1.51917,-4.45129 -5.44761,-7.276042 -10.11897,-7.276042 -4.58315,0 -8.538573,2.830277 -10.186475,7.288863 -0.568166,1.537243 -0.604163,4.941853 -0.06949,6.572287 1.03468,3.155125 3.649679,5.817045 6.83218,6.954755 1.569518,0.56109 4.318715,0.68314 5.925185,0.26306 2.6018,-0.68036 4.74811,-2.15461 6.24967,-4.29275 1.93282,-2.752239 2.44915,-6.341981 1.36789,-9.510173 z m -1.07377,5.300257 c -0.33331,0.333309 -0.67054,0.463881 -1.19809,0.463881 -0.61102,0 -0.77253,0.08411 -0.96262,0.501332 -0.20673,0.453713 -0.17371,0.557784 0.34764,1.09568 0.85772,0.884943 0.75971,1.325823 -0.59966,2.697383 -1.34916,1.36127 -1.72567,1.44813 -2.67268,0.61664 -0.55485,-0.48716 -0.71994,-0.54255 -1.14051,-0.38265 -0.42184,0.16038 -0.49174,0.2997 -0.49174,0.97996 0,1.2836 -0.32014,1.48421 -2.36851,1.48421 -2.004905,0 -2.160621,-0.0966 -2.311319,-1.43359 -0.07547,-0.66957 -0.197173,-0.91176 -0.535673,-1.06599 -0.37328,-0.17008 -0.537932,-0.11184 -1.114113,0.39405 -0.371856,0.3265 -0.857406,0.59363 -1.079,0.59363 -0.538149,0 -2.796746,-2.2586 -2.796746,-2.79675 0,-0.22159 0.267131,-0.70714 0.593624,-1.078998 0.519557,-0.591743 0.567225,-0.734044 0.382027,-1.140502 -0.17067,-0.374584 -0.350457,-0.464405 -0.92955,-0.464405 -0.394872,0 -0.906965,-0.13239 -1.137978,-0.294198 -0.383318,-0.268486 -0.420029,-0.449239 -0.420029,-2.068153 0,-1.618914 0.03671,-1.799667 0.420029,-2.068153 0.231013,-0.161811 0.743106,-0.294198 1.137978,-0.294198 0.579093,0 0.75888,-0.08982 0.92955,-0.464404 0.185198,-0.406461 0.13753,-0.548762 -0.382027,-1.140505 -0.326493,-0.371856 -0.593624,-0.850593 -0.593624,-1.063858 0,-0.217837 0.510034,-0.918909 1.163883,-1.599824 1.353474,-1.409502 1.810912,-1.516891 2.717684,-0.638014 0.503616,0.488125 0.663691,0.546894 1.069448,0.392626 0.389544,-0.148106 0.495086,-0.340281 0.574678,-1.046417 0.150098,-1.331671 0.309967,-1.432165 2.278328,-1.432165 2.06838,0 2.40134,0.201239 2.40134,1.451379 0,0.71563 0.0656,0.850784 0.49174,1.012796 0.42057,0.159899 0.58566,0.104505 1.14051,-0.382653 0.35681,-0.313288 0.83486,-0.569616 1.06232,-0.569616 0.25398,0 0.87129,0.453665 1.59982,1.175715 1.37621,1.363978 1.47743,1.813171 0.6102,2.707929 -0.52135,0.537892 -0.55437,0.641963 -0.34764,1.095679 0.19009,0.417221 0.3516,0.501332 0.96262,0.501332 0.52755,0 0.86478,0.13057 1.19809,0.463878 0.41104,0.411036 0.46388,0.627309 0.46388,1.898473 0,1.271162 -0.0528,1.487437 -0.46388,1.89847 z"
               id="path1959"
               inkscape:connector-curvature="0" />
            <path
               style="opacity:1;fill:#da8f6a;fill-opacity:1;fill-rule:nonzero;stroke:#000000;stroke-width:1.42857146;stroke-linecap:square;stroke-linejoin:round;stroke-miterlimit:4;stroke-dasharray:none;stroke-dashoffset:0;stroke-opacity:1;paint-order:stroke fill markers"
               d="m 108.06255,94.670591 h -0.94732 l -0.47009,-1.062951 c -0.25855,-0.584623 -0.47008,-1.155088 -0.47008,-1.2677 0,-0.112615 0.29764,-0.509564 0.66142,-0.882111 l 0.66142,-0.677359 -0.81187,-0.796785 -0.81186,-0.796787 -0.64258,0.662977 c -0.35342,0.364638 -0.74289,0.662977 -0.86548,0.662977 -0.12259,0 -0.70122,-0.211537 -1.28584,-0.470086 l -1.06295,-0.470087 v -0.947325 -0.947322 h -1.13393 -1.133931 l -0.0029,0.803198 c -0.0016,0.441762 -0.06538,0.889042 -0.141743,0.99396 -0.143444,0.197075 -2.088732,1.037662 -2.401358,1.037662 -0.09699,0 -0.458473,-0.273455 -0.803302,-0.607677 l -0.626964,-0.607676 -0.792912,0.792911 -0.792908,0.792909 0.607676,0.626964 c 0.334222,0.344829 0.607677,0.699228 0.607677,0.787551 0,0.08832 -0.181483,0.658326 -0.403299,1.266671 l -0.403299,1.106086 h -1.014111 -1.014111 v 1.228423 1.228421 h 1.014111 1.014111 l 0.403299,1.106085 c 0.221816,0.608349 0.403299,1.178351 0.403299,1.266674 0,0.08832 -0.273455,0.44272 -0.607677,0.787556 l -0.607676,0.62696 0.792908,0.79291 0.792912,0.79291 0.660342,-0.64003 0.660341,-0.64003 1.076357,0.36308 c 1.379434,0.46532 1.579219,0.68032 1.579219,1.6995 V 104.12 h 1.133929 1.13392 v -0.94733 -0.94732 l 1.06295,-0.47009 c 0.58463,-0.25855 1.15509,-0.47009 1.26771,-0.47009 0.11261,0 0.50956,0.29764 0.88211,0.66143 l 0.67736,0.66142 0.79678,-0.81186 0.79679,-0.81187 -0.66298,-0.64258 c -0.36464,-0.353426 -0.66298,-0.74289 -0.66298,-0.865479 0,-0.122592 0.21154,-0.701223 0.47009,-1.285846 l 0.47009,-1.06295 h 0.94732 0.94732 v -1.228421 -1.228423 z m -2.53677,0.566965 c -0.0453,0 -2.01731,0.340177 -4.38232,0.755951 -4.820501,0.847458 -4.984773,0.863471 -4.984773,0.485871 0,-0.304239 0.308782,-0.375732 5.431273,-1.257515 1.8958,-0.326339 3.57543,-0.544025 3.73252,-0.483745 0.25264,0.09694 0.41647,0.499438 0.2033,0.499438 z m -2.44559,-1.13393 c -0.11081,0 -0.67437,-0.467966 -1.25236,-1.039921 l -1.05088,-1.039924 -1.027007,1.039924 c -0.564854,0.571955 -1.10826,1.039921 -1.207569,1.039921 -0.09931,0 -0.339386,-0.143735 -0.533506,-0.319411 -0.339749,-0.307467 -0.294531,-0.378126 1.209479,-1.889992 l 1.562423,-1.570583 1.55812,1.550019 c 1.46504,1.457428 1.53973,1.570326 1.25043,1.889993 -0.16921,0.186986 -0.39833,0.339974 -0.50913,0.339974 z m -3.842499,5.819537 -1.559322,-1.551223 0.411475,-0.437994 0.411475,-0.437997 1.149291,1.139076 1.14929,1.139077 1.11949,-1.131295 1.11949,-1.131295 0.43949,0.412872 0.43948,0.412874 -1.56042,1.568564 -1.56041,1.568568 z"
               id="path1961"
               inkscape:connector-curvature="0" />
          </g>
        </g>
      </g>
    </g>
  </g>
</svg>
