<?xml version="1.0" encoding="UTF-8" standalone="no"?>
<!-- Created with Inkscape (http://www.inkscape.org/) -->

<svg
   xmlns:osb="http://www.openswatchbook.org/uri/2009/osb"
   xmlns:dc="http://purl.org/dc/elements/1.1/"
   xmlns:cc="http://creativecommons.org/ns#"
   xmlns:rdf="http://www.w3.org/1999/02/22-rdf-syntax-ns#"
   xmlns:svg="http://www.w3.org/2000/svg"
   xmlns="http://www.w3.org/2000/svg"
   xmlns:xlink="http://www.w3.org/1999/xlink"
   xmlns:sodipodi="http://sodipodi.sourceforge.net/DTD/sodipodi-0.dtd"
   xmlns:inkscape="http://www.inkscape.org/namespaces/inkscape"
   width="128.3215mm"
   height="125.67567mm"
   viewBox="0 0 128.3215 125.67567"
   version="1.1"
   id="svg8"
   inkscape:version="0.92.5 (2060ec1f9f, 2020-04-08)"
   sodipodi:docname="icon.svg">
  <defs
     id="defs2">
    <linearGradient
       id="linearGradient2291"
       osb:paint="solid">
      <stop
         style="stop-color:#d48b8b;stop-opacity:0;"
         offset="0"
         id="stop2289" />
    </linearGradient>
    <linearGradient
       inkscape:collect="always"
       xlink:href="#linearGradient2291"
       id="linearGradient2293"
       x1="76.729164"
       y1="96.445831"
       x2="119.0625"
       y2="96.445831"
       gradientUnits="userSpaceOnUse"
       gradientTransform="matrix(1.125,0,0,1.075,-12.236973,-6.7042699)" />
    <linearGradient
       inkscape:collect="always"
       xlink:href="#linearGradient2291"
       id="linearGradient2915"
       gradientUnits="userSpaceOnUse"
       gradientTransform="matrix(1.125,0,0,1.075,-12.236973,-6.7042699)"
       x1="76.729164"
       y1="96.445831"
       x2="119.0625"
       y2="96.445831" />
  </defs>
  <sodipodi:namedview
     id="base"
     pagecolor="#ffffff"
     bordercolor="#666666"
     borderopacity="1.0"
     inkscape:pageopacity="0.0"
     inkscape:pageshadow="2"
     inkscape:zoom="0.98994949"
     inkscape:cx="222.50107"
     inkscape:cy="283.86435"
     inkscape:document-units="mm"
     inkscape:current-layer="g2701"
     showgrid="true"
     inkscape:window-width="1920"
     inkscape:window-height="1043"
     inkscape:window-x="0"
     inkscape:window-y="0"
     inkscape:window-maximized="1"
     inkscape:snap-global="false"
     showguides="false">
    <inkscape:grid
       type="xygrid"
       id="grid815"
       originx="-33.735081"
       originy="-136.92258" />
  </sodipodi:namedview>
  <metadata
     id="metadata5">
    <rdf:RDF>
      <cc:Work
         rdf:about="">
        <dc:format>image/svg+xml</dc:format>
        <dc:type
           rdf:resource="http://purl.org/dc/dcmitype/StillImage" />
        <dc:title></dc:title>
      </cc:Work>
    </rdf:RDF>
  </metadata>
  <g
     inkscape:label="Layer 1"
     inkscape:groupmode="layer"
     id="layer1"
     transform="translate(-33.735082,-34.401744)">
    <g
       id="g2701"
       transform="matrix(0,1,1,0,1.8097813,-3.6934667)">
      <g
         id="g2697"
         transform="matrix(-0.12201588,0,0,0.12201588,119.77522,-14.312618)">
        <path
           style="opacity:1;fill:#93da6a;fill-opacity:1;fill-rule:nonzero;stroke:#000000;stroke-width:5.39932537;stroke-linecap:square;stroke-linejoin:round;stroke-miterlimit:4;stroke-dasharray:none;stroke-dashoffset:0;stroke-opacity:1;paint-order:stroke fill markers"
           d=""
           id="path2713"
           inkscape:connector-curvature="0"
           transform="matrix(0,2.1684336,-2.1684336,0,951.36595,102.46893)" />
        <path
           style="opacity:1;fill:#93da6a;fill-opacity:1;fill-rule:nonzero;stroke:#000000;stroke-width:5.39932537;stroke-linecap:square;stroke-linejoin:round;stroke-miterlimit:4;stroke-dasharray:none;stroke-dashoffset:0;stroke-opacity:1;paint-order:stroke fill markers"
           d=""
           id="path2723"
           inkscape:connector-curvature="0"
           transform="matrix(0,2.1684336,-2.1684336,0,951.36595,102.46893)" />
      </g>
      <g
         id="g2913">
        <rect
           ry="7.9639578"
           y="74.75"
           x="74.083336"
           height="44.979164"
           width="47.624996"
           id="rect829"
           style="opacity:1;fill:url(#linearGradient2915);fill-opacity:1;fill-rule:nonzero;stroke:#000000;stroke-width:2;stroke-linecap:square;stroke-linejoin:round;stroke-miterlimit:4;stroke-dasharray:none;stroke-dashoffset:0;stroke-opacity:1;paint-order:stroke fill markers"
           transform="matrix(0,1,1,0,3.6934667,-1.8097813)" />
        <path
           sodipodi:nodetypes="cc"
           inkscape:connector-curvature="0"
           id="path2314"
           d="m 72.760417,95.916667 h -15.875"
           style="fill:none;stroke:#000000;stroke-width:2;stroke-linecap:butt;stroke-linejoin:miter;stroke-miterlimit:4;stroke-dasharray:2, 2;stroke-dashoffset:0;stroke-opacity:1"
           transform="matrix(0,1,1,0,3.6934667,-1.8097813)" />
        <path
           inkscape:connector-curvature="0"
           id="path2322"
           d="m 80.697917,69.458333 h -11.90625 v 11.90625"
           style="fill:none;stroke:#000000;stroke-width:3;stroke-linecap:butt;stroke-linejoin:miter;stroke-miterlimit:4;stroke-dasharray:none;stroke-opacity:1"
           transform="matrix(0,1,1,0,3.6934667,-1.8097813)" />
        <path
           style="fill:none;stroke:#000000;stroke-width:3;stroke-linecap:butt;stroke-linejoin:miter;stroke-miterlimit:4;stroke-dasharray:none;stroke-opacity:1"
           d="M 80.697917,125.02083 H 68.791667 V 113.11458"
           id="path2324"
           inkscape:connector-curvature="0"
           transform="matrix(0,1,1,0,3.6934667,-1.8097813)" />
        <path
           inkscape:connector-curvature="0"
           id="path2326"
           d="M 115.09375,125.02083 H 127 v -11.90625"
           style="fill:none;stroke:#000000;stroke-width:3;stroke-linecap:butt;stroke-linejoin:miter;stroke-miterlimit:4;stroke-dasharray:none;stroke-opacity:1"
           transform="matrix(0,1,1,0,3.6934667,-1.8097813)" />
        <path
           style="fill:none;stroke:#000000;stroke-width:3;stroke-linecap:butt;stroke-linejoin:miter;stroke-miterlimit:4;stroke-dasharray:none;stroke-opacity:1"
           d="M 115.09375,69.458333 H 127 v 11.90625"
           id="path2328"
           inkscape:connector-curvature="0"
           transform="matrix(0,1,1,0,3.6934667,-1.8097813)" />
        <g
           transform="matrix(0,0.12201588,0.12201588,0,-11.289947,63.360216)"
           id="g2433">
	<g
   transform="matrix(0.40313754,0,0,0.40313754,626.8277,476.86503)"
   id="XMLID_77_">
		
		
	</g>

	
	
	
	
<g
   transform="translate(102.9436,4.1093924)"
   id="g2584">
  <g
     transform="translate(-955.50313,414.76302)"
     id="g2519">
    <g
       id="g2509"
       transform="matrix(0.40313754,0,0,0.40313754,594.92982,393.90235)">
			<g
   id="g2507">
				<path
   id="path2505"
   d="M 240,480 C 107.664,480 0,372.336 0,240 0,107.664 107.664,0 240,0 372.336,0 480,107.664 480,240 480,372.336 372.336,480 240,480 Z M 240,20 C 118.691,20 20,118.691 20,240 20,361.309 118.691,460 240,460 361.309,460 460,361.309 460,240 460,118.691 361.309,20 240,20 Z"
   style="fill:#231f20"
   inkscape:connector-curvature="0" />

			</g>

		</g>
    <g
       id="g2517"
       transform="matrix(0.40313754,0,0,0.40313754,594.92981,393.90235)">
		
		<g
   id="g2515">
			<g
   id="g2513">
				<path
   id="path2511"
   d="m 265,430 h -50 c -11.028,0 -20,-8.972 -20,-20 v -27.057 c -8.439,-2.644 -16.56,-6 -24.271,-10.03 l -19.158,19.158 c -3.775,3.775 -8.79,5.854 -14.121,5.854 -5.332,0 -10.347,-2.079 -14.122,-5.854 L 87.929,356.672 c -3.774,-3.774 -5.854,-8.789 -5.854,-14.121 0,-5.331 2.078,-10.346 5.854,-14.121 l 19.158,-19.158 c -4.03,-7.711 -7.387,-15.831 -10.03,-24.271 H 70 c -11.028,0 -20,-8.972 -20,-20 v -50 c 0,-11.028 8.972,-20 20,-20 h 27.057 c 2.644,-8.439 6,-16.56 10.03,-24.271 L 87.929,151.572 c -3.775,-3.775 -5.854,-8.79 -5.854,-14.121 0,-5.332 2.079,-10.347 5.854,-14.122 L 123.328,87.93 c 3.774,-3.774 8.789,-5.854 14.121,-5.854 5.331,0 10.346,2.078 14.121,5.854 l 19.158,19.158 c 7.711,-4.03 15.831,-7.387 24.271,-10.03 V 70 c 0,-11.028 8.972,-20 20,-20 h 50 c 11.028,0 20,8.972 20,20 v 27.057 c 8.439,2.644 16.56,6 24.271,10.03 l 19.158,-19.158 c 3.775,-3.775 8.79,-5.854 14.121,-5.854 5.332,0 10.347,2.079 14.122,5.854 l 35.399,35.399 c 3.774,3.774 5.854,8.789 5.854,14.121 0,5.331 -2.078,10.346 -5.854,14.121 l -19.158,19.158 c 4.03,7.711 7.387,15.831 10.03,24.271 H 410 c 11.028,0 20,8.972 20,20 v 50 c 0,11.028 -8.972,20 -20,20 h -27.057 c -2.644,8.439 -6,16.56 -10.03,24.271 l 19.158,19.158 c 3.775,3.775 5.854,8.79 5.854,14.121 0,5.332 -2.079,10.347 -5.854,14.122 l -35.399,35.399 c -3.774,3.774 -8.789,5.854 -14.121,5.854 -5.331,0 -10.346,-2.078 -14.121,-5.854 l -19.158,-19.158 c -7.711,4.03 -15.831,7.387 -24.271,10.03 V 410 C 285,421.028 276.028,430 265,430 Z m -95.997,-79.5 c 1.754,0 3.52,0.46 5.107,1.404 10.254,6.097 21.486,10.744 33.387,13.813 4.417,1.14 7.503,5.122 7.503,9.684 V 410 h 50 v -34.6 c 0,-4.562 3.086,-8.544 7.503,-9.684 11.9,-3.068 23.133,-7.716 33.387,-13.813 3.929,-2.336 8.946,-1.711 12.182,1.524 l 24.5,24.5 35.357,-35.4 -24.5,-24.457 c -3.234,-3.234 -3.861,-8.251 -1.524,-12.182 6.097,-10.254 10.744,-21.486 13.813,-33.387 1.14,-4.417 5.122,-7.503 9.684,-7.503 H 410 v -50 h -34.6 c -4.562,0 -8.544,-3.086 -9.684,-7.503 -3.068,-11.9 -7.716,-23.133 -13.813,-33.387 -2.337,-3.931 -1.71,-8.947 1.524,-12.182 l 24.5,-24.5 -35.4,-35.357 -24.457,24.5 c -3.235,3.233 -8.253,3.861 -12.182,1.524 -10.254,-6.097 -21.486,-10.744 -33.387,-13.813 -4.417,-1.14 -7.503,-5.122 -7.503,-9.684 V 70 h -50 v 34.6 c 0,4.562 -3.086,8.544 -7.503,9.684 -11.9,3.068 -23.133,7.716 -33.387,13.813 -3.929,2.337 -8.946,1.711 -12.182,-1.524 l -24.5,-24.5 -35.357,35.4 24.5,24.457 c 3.234,3.234 3.861,8.251 1.524,12.182 -6.097,10.254 -10.744,21.486 -13.813,33.387 -1.14,4.417 -5.122,7.503 -9.684,7.503 H 70 v 50 h 34.6 c 4.562,0 8.544,3.086 9.684,7.503 3.068,11.9 7.716,23.133 13.813,33.387 2.337,3.931 1.71,8.947 -1.524,12.182 l -24.5,24.5 35.4,35.357 24.457,-24.5 c 1.926,-1.929 4.487,-2.931 7.073,-2.931 z"
   style="fill:#231f20"
   inkscape:connector-curvature="0" />

			</g>

		</g>

	</g>
  </g>
  <g
     id="g2554"
     transform="translate(129.34229,299.96343)">
    <path
       style="fill:none;stroke:#000000;stroke-width:8.19565487;stroke-linecap:butt;stroke-linejoin:miter;stroke-miterlimit:4;stroke-dasharray:none;stroke-opacity:1"
       d="m -410.51006,583.63372 -21.68434,21.68433 21.68434,21.68433"
       id="path2548"
       inkscape:connector-curvature="0" />
    <path
       style="fill:none;stroke:#000000;stroke-width:4.09782743;stroke-linecap:butt;stroke-linejoin:miter;stroke-miterlimit:4;stroke-dasharray:none;stroke-opacity:1"
       d="m -401.26671,643.2106 13.19636,-75.51131"
       id="path2550"
       inkscape:connector-curvature="0"
       sodipodi:nodetypes="cc" />
    <path
       inkscape:connector-curvature="0"
       id="path2552"
       d="m -375.81513,583.63372 21.68434,21.68433 -21.68434,21.68433"
       style="fill:none;stroke:#000000;stroke-width:8.19565487;stroke-linecap:butt;stroke-linejoin:miter;stroke-miterlimit:4;stroke-dasharray:none;stroke-opacity:1" />
  </g>
</g>
</g>
        <g
           transform="matrix(0,1,1,0,3.5240814,-3.5240813)"
           id="g2641">
          <g
             transform="matrix(-0.12201588,0,0,0.12201588,119.77522,-14.312618)"
             id="g2612">
            <g
               transform="translate(-955.50313,414.76302)"
               id="g2602">
              <g
                 id="g2592"
                 transform="matrix(0.40313754,0,0,0.40313754,594.92982,393.90235)">
			<g
   id="g2590">
				<path
   id="path2588"
   d="M 240,480 C 107.664,480 0,372.336 0,240 0,107.664 107.664,0 240,0 372.336,0 480,107.664 480,240 480,372.336 372.336,480 240,480 Z M 240,20 C 118.691,20 20,118.691 20,240 20,361.309 118.691,460 240,460 361.309,460 460,361.309 460,240 460,118.691 361.309,20 240,20 Z"
   style="fill:#231f20"
   inkscape:connector-curvature="0" />

			</g>

		</g>
              <g
                 id="g2600"
                 transform="matrix(0.40313754,0,0,0.40313754,594.92981,393.90235)">
		
		<g
   id="g2598">
			<g
   id="g2596">
				<path
   id="path2594"
   d="m 265,430 h -50 c -11.028,0 -20,-8.972 -20,-20 v -27.057 c -8.439,-2.644 -16.56,-6 -24.271,-10.03 l -19.158,19.158 c -3.775,3.775 -8.79,5.854 -14.121,5.854 -5.332,0 -10.347,-2.079 -14.122,-5.854 L 87.929,356.672 c -3.774,-3.774 -5.854,-8.789 -5.854,-14.121 0,-5.331 2.078,-10.346 5.854,-14.121 l 19.158,-19.158 c -4.03,-7.711 -7.387,-15.831 -10.03,-24.271 H 70 c -11.028,0 -20,-8.972 -20,-20 v -50 c 0,-11.028 8.972,-20 20,-20 h 27.057 c 2.644,-8.439 6,-16.56 10.03,-24.271 L 87.929,151.572 c -3.775,-3.775 -5.854,-8.79 -5.854,-14.121 0,-5.332 2.079,-10.347 5.854,-14.122 L 123.328,87.93 c 3.774,-3.774 8.789,-5.854 14.121,-5.854 5.331,0 10.346,2.078 14.121,5.854 l 19.158,19.158 c 7.711,-4.03 15.831,-7.387 24.271,-10.03 V 70 c 0,-11.028 8.972,-20 20,-20 h 50 c 11.028,0 20,8.972 20,20 v 27.057 c 8.439,2.644 16.56,6 24.271,10.03 l 19.158,-19.158 c 3.775,-3.775 8.79,-5.854 14.121,-5.854 5.332,0 10.347,2.079 14.122,5.854 l 35.399,35.399 c 3.774,3.774 5.854,8.789 5.854,14.121 0,5.331 -2.078,10.346 -5.854,14.121 l -19.158,19.158 c 4.03,7.711 7.387,15.831 10.03,24.271 H 410 c 11.028,0 20,8.972 20,20 v 50 c 0,11.028 -8.972,20 -20,20 h -27.057 c -2.644,8.439 -6,16.56 -10.03,24.271 l 19.158,19.158 c 3.775,3.775 5.854,8.79 5.854,14.121 0,5.332 -2.079,10.347 -5.854,14.122 l -35.399,35.399 c -3.774,3.774 -8.789,5.854 -14.121,5.854 -5.331,0 -10.346,-2.078 -14.121,-5.854 l -19.158,-19.158 c -7.711,4.03 -15.831,7.387 -24.271,10.03 V 410 C 285,421.028 276.028,430 265,430 Z m -95.997,-79.5 c 1.754,0 3.52,0.46 5.107,1.404 10.254,6.097 21.486,10.744 33.387,13.813 4.417,1.14 7.503,5.122 7.503,9.684 V 410 h 50 v -34.6 c 0,-4.562 3.086,-8.544 7.503,-9.684 11.9,-3.068 23.133,-7.716 33.387,-13.813 3.929,-2.336 8.946,-1.711 12.182,1.524 l 24.5,24.5 35.357,-35.4 -24.5,-24.457 c -3.234,-3.234 -3.861,-8.251 -1.524,-12.182 6.097,-10.254 10.744,-21.486 13.813,-33.387 1.14,-4.417 5.122,-7.503 9.684,-7.503 H 410 v -50 h -34.6 c -4.562,0 -8.544,-3.086 -9.684,-7.503 -3.068,-11.9 -7.716,-23.133 -13.813,-33.387 -2.337,-3.931 -1.71,-8.947 1.524,-12.182 l 24.5,-24.5 -35.4,-35.357 -24.457,24.5 c -3.235,3.233 -8.253,3.861 -12.182,1.524 -10.254,-6.097 -21.486,-10.744 -33.387,-13.813 -4.417,-1.14 -7.503,-5.122 -7.503,-9.684 V 70 h -50 v 34.6 c 0,4.562 -3.086,8.544 -7.503,9.684 -11.9,3.068 -23.133,7.716 -33.387,13.813 -3.929,2.337 -8.946,1.711 -12.182,-1.524 l -24.5,-24.5 -35.357,35.4 24.5,24.457 c 3.234,3.234 3.861,8.251 1.524,12.182 -6.097,10.254 -10.744,21.486 -13.813,33.387 -1.14,4.417 -5.122,7.503 -9.684,7.503 H 70 v 50 h 34.6 c 4.562,0 8.544,3.086 9.684,7.503 3.068,11.9 7.716,23.133 13.813,33.387 2.337,3.931 1.71,8.947 -1.524,12.182 l -24.5,24.5 35.4,35.357 24.457,-24.5 c 1.926,-1.929 4.487,-2.931 7.073,-2.931 z"
   style="fill:#231f20"
   inkscape:connector-curvature="0" />

			</g>

		</g>

	</g>
            </g>
            <g
               id="g2610"
               transform="translate(129.34229,299.96343)">
              <path
                 style="fill:none;stroke:#000000;stroke-width:8.19565487;stroke-linecap:butt;stroke-linejoin:miter;stroke-miterlimit:4;stroke-dasharray:none;stroke-opacity:1"
                 d="m -410.51006,583.63372 -21.68434,21.68433 21.68434,21.68433"
                 id="path2604"
                 inkscape:connector-curvature="0" />
              <path
                 style="fill:none;stroke:#000000;stroke-width:4.09782743;stroke-linecap:butt;stroke-linejoin:miter;stroke-miterlimit:4;stroke-dasharray:none;stroke-opacity:1"
                 d="m -401.26671,643.2106 13.19636,-75.51131"
                 id="path2606"
                 inkscape:connector-curvature="0"
                 sodipodi:nodetypes="cc" />
              <path
                 inkscape:connector-curvature="0"
                 id="path2608"
                 d="m -375.81513,583.63372 21.68434,21.68433 -21.68434,21.68433"
                 style="fill:none;stroke:#000000;stroke-width:8.19565487;stroke-linecap:butt;stroke-linejoin:miter;stroke-miterlimit:4;stroke-dasharray:none;stroke-opacity:1" />
            </g>
          </g>
          <path
             sodipodi:nodetypes="cc"
             inkscape:connector-curvature="0"
             id="path2586"
             d="m 124.74555,96.086052 h 15.875"
             style="fill:none;stroke:#000000;stroke-width:2;stroke-linecap:butt;stroke-linejoin:miter;stroke-miterlimit:4;stroke-dasharray:2, 2;stroke-dashoffset:0;stroke-opacity:1" />
        </g>
        <g
           id="g2671"
           transform="matrix(-1,0,0,1,201.8661,-2.9083333e-7)">
          <g
             id="g2667"
             transform="matrix(-0.12201588,0,0,0.12201588,119.77522,-14.312618)">
            <g
               id="g2657"
               transform="translate(-955.50313,414.76302)">
              <g
                 transform="matrix(0.40313754,0,0,0.40313754,594.92982,393.90235)"
                 id="g2647">
			<g
   id="g2645">
				<path
   inkscape:connector-curvature="0"
   style="fill:#231f20"
   d="M 240,480 C 107.664,480 0,372.336 0,240 0,107.664 107.664,0 240,0 372.336,0 480,107.664 480,240 480,372.336 372.336,480 240,480 Z M 240,20 C 118.691,20 20,118.691 20,240 20,361.309 118.691,460 240,460 361.309,460 460,361.309 460,240 460,118.691 361.309,20 240,20 Z"
   id="path2643" />

			</g>

		</g>
              <g
                 transform="matrix(0.40313754,0,0,0.40313754,594.92981,393.90235)"
                 id="g2655">
		
		<g
   id="g2653">
			<g
   id="g2651">
				<path
   inkscape:connector-curvature="0"
   style="fill:#231f20"
   d="m 265,430 h -50 c -11.028,0 -20,-8.972 -20,-20 v -27.057 c -8.439,-2.644 -16.56,-6 -24.271,-10.03 l -19.158,19.158 c -3.775,3.775 -8.79,5.854 -14.121,5.854 -5.332,0 -10.347,-2.079 -14.122,-5.854 L 87.929,356.672 c -3.774,-3.774 -5.854,-8.789 -5.854,-14.121 0,-5.331 2.078,-10.346 5.854,-14.121 l 19.158,-19.158 c -4.03,-7.711 -7.387,-15.831 -10.03,-24.271 H 70 c -11.028,0 -20,-8.972 -20,-20 v -50 c 0,-11.028 8.972,-20 20,-20 h 27.057 c 2.644,-8.439 6,-16.56 10.03,-24.271 L 87.929,151.572 c -3.775,-3.775 -5.854,-8.79 -5.854,-14.121 0,-5.332 2.079,-10.347 5.854,-14.122 L 123.328,87.93 c 3.774,-3.774 8.789,-5.854 14.121,-5.854 5.331,0 10.346,2.078 14.121,5.854 l 19.158,19.158 c 7.711,-4.03 15.831,-7.387 24.271,-10.03 V 70 c 0,-11.028 8.972,-20 20,-20 h 50 c 11.028,0 20,8.972 20,20 v 27.057 c 8.439,2.644 16.56,6 24.271,10.03 l 19.158,-19.158 c 3.775,-3.775 8.79,-5.854 14.121,-5.854 5.332,0 10.347,2.079 14.122,5.854 l 35.399,35.399 c 3.774,3.774 5.854,8.789 5.854,14.121 0,5.331 -2.078,10.346 -5.854,14.121 l -19.158,19.158 c 4.03,7.711 7.387,15.831 10.03,24.271 H 410 c 11.028,0 20,8.972 20,20 v 50 c 0,11.028 -8.972,20 -20,20 h -27.057 c -2.644,8.439 -6,16.56 -10.03,24.271 l 19.158,19.158 c 3.775,3.775 5.854,8.79 5.854,14.121 0,5.332 -2.079,10.347 -5.854,14.122 l -35.399,35.399 c -3.774,3.774 -8.789,5.854 -14.121,5.854 -5.331,0 -10.346,-2.078 -14.121,-5.854 l -19.158,-19.158 c -7.711,4.03 -15.831,7.387 -24.271,10.03 V 410 C 285,421.028 276.028,430 265,430 Z m -95.997,-79.5 c 1.754,0 3.52,0.46 5.107,1.404 10.254,6.097 21.486,10.744 33.387,13.813 4.417,1.14 7.503,5.122 7.503,9.684 V 410 h 50 v -34.6 c 0,-4.562 3.086,-8.544 7.503,-9.684 11.9,-3.068 23.133,-7.716 33.387,-13.813 3.929,-2.336 8.946,-1.711 12.182,1.524 l 24.5,24.5 35.357,-35.4 -24.5,-24.457 c -3.234,-3.234 -3.861,-8.251 -1.524,-12.182 6.097,-10.254 10.744,-21.486 13.813,-33.387 1.14,-4.417 5.122,-7.503 9.684,-7.503 H 410 v -50 h -34.6 c -4.562,0 -8.544,-3.086 -9.684,-7.503 -3.068,-11.9 -7.716,-23.133 -13.813,-33.387 -2.337,-3.931 -1.71,-8.947 1.524,-12.182 l 24.5,-24.5 -35.4,-35.357 -24.457,24.5 c -3.235,3.233 -8.253,3.861 -12.182,1.524 -10.254,-6.097 -21.486,-10.744 -33.387,-13.813 -4.417,-1.14 -7.503,-5.122 -7.503,-9.684 V 70 h -50 v 34.6 c 0,4.562 -3.086,8.544 -7.503,9.684 -11.9,3.068 -23.133,7.716 -33.387,13.813 -3.929,2.337 -8.946,1.711 -12.182,-1.524 l -24.5,-24.5 -35.357,35.4 24.5,24.457 c 3.234,3.234 3.861,8.251 1.524,12.182 -6.097,10.254 -10.744,21.486 -13.813,33.387 -1.14,4.417 -5.122,7.503 -9.684,7.503 H 70 v 50 h 34.6 c 4.562,0 8.544,3.086 9.684,7.503 3.068,11.9 7.716,23.133 13.813,33.387 2.337,3.931 1.71,8.947 -1.524,12.182 l -24.5,24.5 35.4,35.357 24.457,-24.5 c 1.926,-1.929 4.487,-2.931 7.073,-2.931 z"
   id="path2649" />

			</g>

		</g>

	</g>
            </g>
            <g
               transform="rotate(-90,-178.50974,690.76552)"
               id="g2665">
              <path
                 inkscape:connector-curvature="0"
                 id="path2659"
                 d="m -410.51006,583.63372 -21.68434,21.68433 21.68434,21.68433"
                 style="fill:none;stroke:#000000;stroke-width:8.19565487;stroke-linecap:butt;stroke-linejoin:miter;stroke-miterlimit:4;stroke-dasharray:none;stroke-opacity:1" />
              <path
                 sodipodi:nodetypes="cc"
                 inkscape:connector-curvature="0"
                 id="path2661"
                 d="m -401.26671,643.2106 13.19636,-75.51131"
                 style="fill:none;stroke:#000000;stroke-width:4.09782743;stroke-linecap:butt;stroke-linejoin:miter;stroke-miterlimit:4;stroke-dasharray:none;stroke-opacity:1" />
              <path
                 style="fill:none;stroke:#000000;stroke-width:8.19565487;stroke-linecap:butt;stroke-linejoin:miter;stroke-miterlimit:4;stroke-dasharray:none;stroke-opacity:1"
                 d="m -375.81513,583.63372 21.68434,21.68433 -21.68434,21.68433"
                 id="path2663"
                 inkscape:connector-curvature="0" />
            </g>
          </g>
          <path
             style="fill:none;stroke:#000000;stroke-width:2;stroke-linecap:butt;stroke-linejoin:miter;stroke-miterlimit:4;stroke-dasharray:2, 2;stroke-dashoffset:0;stroke-opacity:1"
             d="m 124.74555,96.086052 h 15.875"
             id="path2669"
             inkscape:connector-curvature="0"
             sodipodi:nodetypes="cc" />
        </g>
        <circle
           r="425.97995"
           cx="902.74774"
           cy="-153.20755"
           transform="matrix(0,0.12201588,0.12201588,0,119.77522,-14.312618)"
           id="path2727"
           style="opacity:1;fill:none;fill-opacity:1;fill-rule:nonzero;stroke:#000000;stroke-width:14.13856602;stroke-linecap:square;stroke-linejoin:round;stroke-miterlimit:4;stroke-dasharray:none;stroke-dashoffset:0;stroke-opacity:1;paint-order:stroke fill markers" />
        <g
           transform="matrix(-0.12201588,0,0,0.12201588,236.36177,36.295058)"
           id="g2687">
          <g
             id="g2677"
             transform="matrix(0.40313754,0,0,0.40313754,594.92982,393.90235)">
			<g
   id="g2675">
				<path
   id="path2673"
   d="M 240,480 C 107.664,480 0,372.336 0,240 0,107.664 107.664,0 240,0 372.336,0 480,107.664 480,240 480,372.336 372.336,480 240,480 Z M 240,20 C 118.691,20 20,118.691 20,240 20,361.309 118.691,460 240,460 361.309,460 460,361.309 460,240 460,118.691 361.309,20 240,20 Z"
   style="fill:#231f20"
   inkscape:connector-curvature="0" />

			</g>

		</g>
          <g
             id="g2685"
             transform="matrix(0.40313754,0,0,0.40313754,594.92981,393.90235)">
		
		<g
   id="g2683">
			<g
   id="g2681">
				<path
   id="path2679"
   d="m 265,430 h -50 c -11.028,0 -20,-8.972 -20,-20 v -27.057 c -8.439,-2.644 -16.56,-6 -24.271,-10.03 l -19.158,19.158 c -3.775,3.775 -8.79,5.854 -14.121,5.854 -5.332,0 -10.347,-2.079 -14.122,-5.854 L 87.929,356.672 c -3.774,-3.774 -5.854,-8.789 -5.854,-14.121 0,-5.331 2.078,-10.346 5.854,-14.121 l 19.158,-19.158 c -4.03,-7.711 -7.387,-15.831 -10.03,-24.271 H 70 c -11.028,0 -20,-8.972 -20,-20 v -50 c 0,-11.028 8.972,-20 20,-20 h 27.057 c 2.644,-8.439 6,-16.56 10.03,-24.271 L 87.929,151.572 c -3.775,-3.775 -5.854,-8.79 -5.854,-14.121 0,-5.332 2.079,-10.347 5.854,-14.122 L 123.328,87.93 c 3.774,-3.774 8.789,-5.854 14.121,-5.854 5.331,0 10.346,2.078 14.121,5.854 l 19.158,19.158 c 7.711,-4.03 15.831,-7.387 24.271,-10.03 V 70 c 0,-11.028 8.972,-20 20,-20 h 50 c 11.028,0 20,8.972 20,20 v 27.057 c 8.439,2.644 16.56,6 24.271,10.03 l 19.158,-19.158 c 3.775,-3.775 8.79,-5.854 14.121,-5.854 5.332,0 10.347,2.079 14.122,5.854 l 35.399,35.399 c 3.774,3.774 5.854,8.789 5.854,14.121 0,5.331 -2.078,10.346 -5.854,14.121 l -19.158,19.158 c 4.03,7.711 7.387,15.831 10.03,24.271 H 410 c 11.028,0 20,8.972 20,20 v 50 c 0,11.028 -8.972,20 -20,20 h -27.057 c -2.644,8.439 -6,16.56 -10.03,24.271 l 19.158,19.158 c 3.775,3.775 5.854,8.79 5.854,14.121 0,5.332 -2.079,10.347 -5.854,14.122 l -35.399,35.399 c -3.774,3.774 -8.789,5.854 -14.121,5.854 -5.331,0 -10.346,-2.078 -14.121,-5.854 l -19.158,-19.158 c -7.711,4.03 -15.831,7.387 -24.271,10.03 V 410 C 285,421.028 276.028,430 265,430 Z m -95.997,-79.5 c 1.754,0 3.52,0.46 5.107,1.404 10.254,6.097 21.486,10.744 33.387,13.813 4.417,1.14 7.503,5.122 7.503,9.684 V 410 h 50 v -34.6 c 0,-4.562 3.086,-8.544 7.503,-9.684 11.9,-3.068 23.133,-7.716 33.387,-13.813 3.929,-2.336 8.946,-1.711 12.182,1.524 l 24.5,24.5 35.357,-35.4 -24.5,-24.457 c -3.234,-3.234 -3.861,-8.251 -1.524,-12.182 6.097,-10.254 10.744,-21.486 13.813,-33.387 1.14,-4.417 5.122,-7.503 9.684,-7.503 H 410 v -50 h -34.6 c -4.562,0 -8.544,-3.086 -9.684,-7.503 -3.068,-11.9 -7.716,-23.133 -13.813,-33.387 -2.337,-3.931 -1.71,-8.947 1.524,-12.182 l 24.5,-24.5 -35.4,-35.357 -24.457,24.5 c -3.235,3.233 -8.253,3.861 -12.182,1.524 -10.254,-6.097 -21.486,-10.744 -33.387,-13.813 -4.417,-1.14 -7.503,-5.122 -7.503,-9.684 V 70 h -50 v 34.6 c 0,4.562 -3.086,8.544 -7.503,9.684 -11.9,3.068 -23.133,7.716 -33.387,13.813 -3.929,2.337 -8.946,1.711 -12.182,-1.524 l -24.5,-24.5 -35.357,35.4 24.5,24.457 c 3.234,3.234 3.861,8.251 1.524,12.182 -6.097,10.254 -10.744,21.486 -13.813,33.387 -1.14,4.417 -5.122,7.503 -9.684,7.503 H 70 v 50 h 34.6 c 4.562,0 8.544,3.086 9.684,7.503 3.068,11.9 7.716,23.133 13.813,33.387 2.337,3.931 1.71,8.947 -1.524,12.182 l -24.5,24.5 35.4,35.357 24.457,-24.5 c 1.926,-1.929 4.487,-2.931 7.073,-2.931 z"
   style="fill:#231f20"
   inkscape:connector-curvature="0" />

			</g>

		</g>

	</g>
        </g>
        <g
           id="g2695"
           transform="matrix(0,0.12201588,0.12201588,0,78.090368,144.13488)">
          <path
             style="fill:none;stroke:#000000;stroke-width:8.19565487;stroke-linecap:butt;stroke-linejoin:miter;stroke-miterlimit:4;stroke-dasharray:none;stroke-opacity:1"
             d="m -410.51006,583.63372 -21.68434,21.68433 21.68434,21.68433"
             id="path2689"
             inkscape:connector-curvature="0" />
          <path
             style="fill:none;stroke:#000000;stroke-width:4.09782743;stroke-linecap:butt;stroke-linejoin:miter;stroke-miterlimit:4;stroke-dasharray:none;stroke-opacity:1"
             d="m -401.26671,643.2106 13.19636,-75.51131"
             id="path2691"
             inkscape:connector-curvature="0"
             sodipodi:nodetypes="cc" />
          <path
             inkscape:connector-curvature="0"
             id="path2693"
             d="m -375.81513,583.63372 21.68434,21.68433 -21.68434,21.68433"
             style="fill:none;stroke:#000000;stroke-width:8.19565487;stroke-linecap:butt;stroke-linejoin:miter;stroke-miterlimit:4;stroke-dasharray:none;stroke-opacity:1" />
        </g>
        <path
           transform="matrix(0,0.26458333,0.26458333,0,3.6934664,-1.8097813)"
           inkscape:connector-curvature="0"
           id="path2703"
           d="m 306.79308,448.08176 c -5.50585,-0.73464 -10.06098,-2.93857 -14.33359,-6.9351 -4.14165,-3.87403 -6.54445,-8.12889 -7.72042,-13.67125 -0.55605,-2.62065 -0.80313,-21.19839 -0.80313,-60.38565 0,-48.81598 0.15225,-57.18502 1.10702,-60.85063 2.03948,-7.83006 7.40338,-14.13031 15.02131,-17.64348 l 3.51453,-1.6208 h 66.42857 c 66.37954,0 66.43094,10e-4 69.64286,1.52716 5.16923,2.45598 9.09208,5.70195 11.74846,9.72129 4.7618,7.20501 4.68134,6.01444 4.66895,69.08019 -0.012,61.27037 -0.0349,61.68231 -3.78826,68.08685 -2.61336,4.45935 -8.36813,9.41546 -13.19942,11.36755 l -4.07259,1.64553 -62.14286,0.10127 c -34.17857,0.0557 -63.91071,-0.13462 -66.07143,-0.42293 z"
           style="opacity:1;fill:#bc9e9f;fill-opacity:1;fill-rule:nonzero;stroke:#000000;stroke-width:5.39932537;stroke-linecap:square;stroke-linejoin:round;stroke-miterlimit:4;stroke-dasharray:none;stroke-dashoffset:0;stroke-opacity:1;paint-order:stroke fill markers" />
        <path
           transform="matrix(0,0.26458333,0.26458333,0,3.6934664,-1.8097813)"
           inkscape:connector-curvature="0"
           id="path2705"
           d="m 159.29308,401.06564 c -16.82377,-5.74172 -27.5,-20.5894 -27.5,-38.2449 0,-17.32216 10.69711,-32.27179 27.54846,-38.50008 5.81005,-2.1474 18.67787,-2.28345 24.84014,-0.26262 11.9249,3.9106 21.98568,13.79406 26.2857,25.82241 2.12065,5.93204 2.58195,16.32272 0.99423,22.39443 -2.57144,9.83358 -8.1434,17.9456 -16.22456,23.62078 -10.40217,7.30516 -23.9697,9.25664 -35.94397,5.16998 z m 20.03247,-4.05833 c 1.25975,-1.25974 1.75325,-2.53432 1.75325,-4.5282 0,-2.30939 0.31789,-2.9198 1.8948,-3.63828 1.71482,-0.78133 2.10816,-0.65653 4.14115,1.31392 3.34467,3.24179 5.011,2.87135 10.19483,-2.26641 5.14495,-5.09922 5.47327,-6.52222 2.33062,-10.10149 -1.84123,-2.09705 -2.05059,-2.72104 -1.44625,-4.31057 0.60617,-1.59435 1.13273,-1.85857 3.70378,-1.85857 4.85143,0 5.60964,-1.20996 5.60964,-8.95182 0,-7.57761 -0.36504,-8.16614 -5.41829,-8.73571 -2.53068,-0.28525 -3.44603,-0.74522 -4.02895,-2.02459 -0.64281,-1.41082 -0.42271,-2.03313 1.48933,-4.21082 1.234,-1.40544 2.24362,-3.24059 2.24362,-4.07811 0,-2.03395 -8.53643,-10.57038 -10.57038,-10.57038 -0.83752,0 -2.67267,1.00963 -4.07811,2.24362 -2.23651,1.96368 -2.77434,2.14384 -4.31056,1.44388 -1.41575,-0.64505 -1.75523,-1.32456 -1.75523,-3.51326 0,-1.49243 -0.50037,-3.4279 -1.11193,-4.30102 -1.01475,-1.44876 -1.69791,-1.58751 -7.81664,-1.58751 -6.11873,0 -6.80189,0.13875 -7.81664,1.58751 -0.61157,0.87312 -1.11193,2.80859 -1.11193,4.30102 0,2.1887 -0.33948,2.86821 -1.75523,3.51326 -1.53623,0.69996 -2.07406,0.5198 -4.31057,-1.44388 -1.40544,-1.23399 -3.21484,-2.24362 -4.02088,-2.24362 -0.82332,0 -3.47304,1.92769 -6.04658,4.39893 -5.32725,5.11549 -5.73313,6.84439 -2.41139,10.27156 1.84488,1.90343 2.067,2.50844 1.48394,4.04201 -0.55977,1.47229 -1.2861,1.87119 -3.95496,2.17201 -5.03309,0.5673 -5.41291,1.17153 -5.41291,8.61099 0,7.81752 0.76059,9.07593 5.48553,9.07593 2.70474,0 3.21556,0.24802 3.82789,1.85857 0.60434,1.58953 0.39498,2.21352 -1.44625,4.31057 -1.18408,1.3486 -2.15288,3.15538 -2.15288,4.01506 0,0.95995 1.71464,3.29309 4.44365,6.04658 5.15519,5.20142 6.85293,5.58399 10.23469,2.30626 2.03298,-1.97045 2.42632,-2.09525 4.14115,-1.31392 1.5769,0.71848 1.8948,1.32889 1.8948,3.63828 0,1.99388 0.49349,3.26846 1.75324,4.5282 1.55352,1.55353 2.37093,1.75325 7.17533,1.75325 4.80439,0 5.62181,-0.19972 7.17532,-1.75325 z"
           style="opacity:1;fill:#3f7acd;fill-opacity:1;fill-rule:nonzero;stroke:#000000;stroke-width:5.39932537;stroke-linecap:square;stroke-linejoin:round;stroke-miterlimit:4;stroke-dasharray:none;stroke-dashoffset:0;stroke-opacity:1;paint-order:stroke fill markers" />
        <path
           transform="matrix(0,0.26458333,0.26458333,0,3.6934664,-1.8097813)"
           inkscape:connector-curvature="0"
           id="path2709"
           d="m 167.50737,390.18013 v -3.58044 l -4.01745,-1.7767 c -2.2096,-0.97719 -4.36569,-1.77671 -4.79131,-1.77671 -0.42563,0 -1.92591,1.12494 -3.33396,2.49987 l -2.5601,2.49986 -3.01147,-3.06847 -3.01148,-3.06846 2.50574,-2.42867 c 1.37816,-1.33576 2.50574,-2.80775 2.50574,-3.27109 0,-0.46333 -0.79951,-2.65028 -1.7767,-4.85988 l -1.77671,-4.01745 h -3.58044 -3.58043 v -4.28571 -4.28572 l 3.03571,-0.0109 c 1.66965,-0.006 3.36016,-0.24709 3.7567,-0.53572 0.74485,-0.54215 3.92187,-7.89442 3.92187,-9.076 0,-0.36656 -1.03353,-1.73281 -2.29673,-3.0361 l -2.29673,-2.36963 2.99683,-2.99683 2.99682,-2.99682 2.36963,2.29673 c 1.30329,1.2632 2.64275,2.29673 2.97657,2.29673 0.33382,0 2.48816,-0.68592 4.78742,-1.52428 l 4.18048,-1.52428 v -3.83286 -3.83286 h 4.64286 4.64285 v 3.83286 3.83286 l 4.18048,1.52428 c 2.29927,0.83836 4.45361,1.52428 4.78743,1.52428 0.33382,0 1.67327,-1.03353 2.97657,-2.29673 l 2.36962,-2.29673 2.99683,2.99682 2.99682,2.99683 -2.419,2.49578 -2.41901,2.49578 1.37228,4.06812 c 1.75867,5.21361 2.57127,5.9687 6.42329,5.9687 h 3.16327 v 4.28572 4.28571 h -3.58044 -3.58044 l -1.7767,4.01745 c -0.97719,2.2096 -1.77671,4.36569 -1.77671,4.79132 0,0.42562 1.12494,1.9259 2.49987,3.33395 l 2.49987,2.5601 -3.06847,3.01148 -3.06847,3.01147 -2.42866,-2.50574 c -1.33577,-1.37816 -2.80776,-2.50574 -3.27109,-2.50574 -0.46334,0 -2.65029,0.79952 -4.85989,1.77671 l -4.01745,1.7767 v 3.58044 3.58043 h -4.64285 -4.64286 z m 2.14286,-9.58781 c 0,-0.17111 1.28571,-7.62449 2.85714,-16.56308 3.20299,-18.21923 3.26351,-18.8401 1.83636,-18.8401 -1.14988,0 -1.42009,1.16705 -4.75281,20.52766 -1.23341,7.16522 -2.05616,13.51343 -1.82833,14.10714 0.3664,0.95485 1.88764,1.57408 1.88764,0.76838 z m -4.28572,-9.24318 c 0,-0.41879 -1.76869,-2.54877 -3.93041,-4.7333 l -3.93042,-3.97186 3.93042,-3.88159 c 2.16172,-2.13488 3.93041,-4.1887 3.93041,-4.56404 0,-0.37534 -0.54325,-1.28272 -1.20722,-2.0164 -1.16208,-1.28409 -1.42914,-1.11319 -7.14328,4.57126 l -5.93606,5.90523 5.85834,5.88893 c 5.50839,5.53716 5.93509,5.81947 7.14328,4.72607 0.70672,-0.63957 1.28494,-1.50551 1.28494,-1.9243 z m 21.9951,-14.52282 -5.86289,-5.8935 -1.65541,1.55518 -1.65542,1.55518 4.30517,4.34378 4.30517,4.34378 -4.27576,4.23115 -4.27576,4.23114 1.56046,1.66104 1.56047,1.66103 5.92843,-5.89763 5.92844,-5.89764 z"
           style="opacity:1;fill:#da8f6a;fill-opacity:1;fill-rule:nonzero;stroke:#000000;stroke-width:5.39932537;stroke-linecap:square;stroke-linejoin:round;stroke-miterlimit:4;stroke-dasharray:none;stroke-dashoffset:0;stroke-opacity:1;paint-order:stroke fill markers" />
        <path
           transform="matrix(0,0.26458333,0.26458333,0,3.6934664,-1.8097813)"
           inkscape:connector-curvature="0"
           id="path2711"
           d="m 361.27576,214.10954 c -11.30127,-2.45561 -22.02597,-11.04419 -27.19397,-21.77755 -7.90251,-16.41263 -4.73515,-34.08937 8.40962,-46.93327 7.25346,-7.08745 17.20976,-11.02591 27.8731,-11.02591 11.36453,0 20.15256,3.66781 28.2934,11.80864 8.15855,8.15855 11.97396,17.28784 11.97396,28.65054 0,15.54819 -8.61807,29.29595 -22.55967,35.98775 -9.02197,4.33045 -17.31911,5.34908 -26.79644,3.2898 z m 16.42831,-5.1717 c 0.62283,-0.6882 1.23514,-2.69117 1.36071,-4.45102 0.19491,-2.73174 0.508,-3.29753 2.14063,-3.86832 1.63408,-0.57131 2.28726,-0.3394 4.48914,1.59388 1.41725,1.24436 3.07559,2.26247 3.68521,2.26247 0.60962,0 3.16987,-1.97952 5.68943,-4.39893 5.31402,-5.10278 5.73037,-6.84726 2.44356,-10.23837 -1.98751,-2.05059 -2.07675,-2.3662 -1.27197,-4.4983 0.79573,-2.10814 1.12183,-2.29297 4.04552,-2.29297 4.9562,0 5.7925,-1.20193 5.7925,-8.32499 0,-7.2495 -1.05203,-8.81787 -5.91483,-8.81787 -2.72377,0 -3.14377,-0.22806 -3.84596,-2.08837 -0.70925,-1.87902 -0.58175,-2.28623 1.27197,-4.06221 3.29955,-3.16117 2.84242,-5.51758 -2.02454,-10.43585 -4.78077,-4.83118 -6.74261,-5.22718 -10.35464,-2.09007 -1.98949,1.72791 -2.64499,1.9361 -4.31057,1.36905 -1.74542,-0.59423 -1.96429,-1.02025 -1.96429,-3.8235 0,-4.89255 -1.56631,-6.01191 -8.41249,-6.01191 -7.29823,0 -8.73037,0.93256 -8.73037,5.68492 0,3.24885 -0.13962,3.50972 -2.27737,4.25495 -2.08358,0.72633 -2.46638,0.61071 -4.49829,-1.3587 -3.40807,-3.30323 -5.1452,-2.89182 -10.25397,2.42844 -2.41942,2.51957 -4.39894,5.09007 -4.39894,5.71223 0,0.62215 1.06669,2.33747 2.37042,3.81182 2.08321,2.35585 2.28286,2.91862 1.64782,4.64492 -0.64113,1.74286 -1.08315,1.96428 -3.92131,1.96428 -5.01085,0 -5.81333,1.17649 -5.80028,8.50356 0.006,3.37662 0.30914,6.61079 0.67361,7.18706 0.38133,0.60293 2.24802,1.20944 4.39682,1.42857 3.31923,0.3385 3.80869,0.60545 4.40504,2.40249 0.56489,1.70222 0.38899,2.32299 -1.11322,3.92857 -3.44816,3.68545 -3.25466,4.64298 2.04833,10.13592 2.64707,2.74189 5.3918,4.98526 6.09939,4.98526 0.70759,0 2.41734,-0.99286 3.79944,-2.20636 2.14762,-1.88564 2.80018,-2.11104 4.48914,-1.55061 1.74445,0.57884 2.02089,1.09371 2.35704,4.3899 0.21913,2.14879 0.82564,4.01548 1.42857,4.39681 0.57627,0.36447 3.81045,0.6676 7.18706,0.67361 4.9516,0.009 6.35837,-0.23114 7.27169,-1.24036 z"
           style="opacity:1;fill:#3f7acd;fill-opacity:1;fill-rule:nonzero;stroke:#000000;stroke-width:5.39932537;stroke-linecap:square;stroke-linejoin:round;stroke-miterlimit:4;stroke-dasharray:none;stroke-dashoffset:0;stroke-opacity:1;paint-order:stroke fill markers" />
        <path
           transform="matrix(0,0.26458333,0.26458333,0,3.6934664,-1.8097813)"
           inkscape:connector-curvature="0"
           id="path2715"
           d="m 360.93567,599.79709 c -19.01696,-4.61125 -32.79074,-23.47591 -31.02356,-42.49007 1.58705,-17.07612 13.18102,-31.12579 29.68919,-35.97763 4.96747,-1.45997 15.5743,-1.48338 21.09067,-0.0466 6.55972,1.70859 12.42529,5.19226 17.96594,10.6703 8.1445,8.05246 11.97396,17.197 11.97396,28.59314 0,11.10554 -4.04171,20.73026 -11.99801,28.57143 -9.88731,9.74423 -24.49219,13.88159 -37.69819,10.67938 z m 16.7684,-5.14496 c 0.62283,-0.68821 1.23514,-2.67215 1.36071,-4.40877 0.197,-2.7246 0.49924,-3.24724 2.20454,-3.81222 1.68839,-0.55937 2.34223,-0.33338 4.48914,1.55163 1.3821,1.2135 3.05557,2.20637 3.71883,2.20637 0.66326,0 3.22351,-1.99965 5.68943,-4.44366 5.18541,-5.13931 5.5806,-6.85642 2.34603,-10.19365 -1.98751,-2.05059 -2.07675,-2.36619 -1.27197,-4.49829 0.79573,-2.10814 1.12183,-2.29298 4.04552,-2.29298 4.9562,0 5.7925,-1.20193 5.7925,-8.32499 0,-7.28644 -1.04231,-8.81786 -6.00155,-8.81786 -2.82679,0 -3.21729,-0.20904 -3.8658,-2.06937 -0.63754,-1.82885 -0.47963,-2.30098 1.3587,-4.0622 3.41185,-3.26877 2.91273,-5.7139 -2.15261,-10.54542 -4.94582,-4.71751 -6.71811,-5.04029 -10.31835,-1.87924 -2.1932,1.92565 -2.6574,2.06715 -4.31057,1.31391 -1.56065,-0.71108 -1.85268,-1.31119 -1.85268,-3.80724 0,-4.83275 -1.10286,-5.67834 -7.80288,-5.9826 -7.7136,-0.35029 -9.33998,0.61617 -9.33998,5.55018 0,3.27587 -0.13671,3.53274 -2.27737,4.27898 -2.08358,0.72634 -2.46638,0.61072 -4.49829,-1.35869 -3.40807,-3.30323 -5.1452,-2.89183 -10.25397,2.42843 -2.41942,2.51957 -4.39894,5.09008 -4.39894,5.71223 0,0.62216 1.06669,2.33748 2.37042,3.81183 2.08321,2.35584 2.28286,2.91862 1.64782,4.64491 -0.62695,1.70431 -1.10872,1.96429 -3.64005,1.96429 -1.6046,0 -3.63184,0.50037 -4.50497,1.11193 -1.43486,1.00502 -1.5875,1.71303 -1.5875,7.36348 0,7.60777 0.55586,8.53207 5.3013,8.81499 3.14268,0.18736 3.58647,0.42337 4.18369,2.22494 0.53783,1.62239 0.39203,2.31876 -0.74776,3.57143 -2.70146,2.96902 -3.16887,4.55914 -2.00289,6.81389 1.41945,2.74492 8.08057,8.67077 9.74663,8.67077 0.72955,0 2.45727,-0.99287 3.83937,-2.20637 2.14762,-1.88564 2.80018,-2.11104 4.48914,-1.55061 1.74445,0.57885 2.02089,1.09372 2.35704,4.3899 0.21913,2.1488 0.82564,4.01548 1.42857,4.39682 0.57627,0.36446 3.81045,0.66759 7.18706,0.67361 4.9516,0.009 6.35837,-0.23114 7.27169,-1.24036 z"
           style="opacity:1;fill:#3f7acd;fill-opacity:1;fill-rule:nonzero;stroke:#000000;stroke-width:5.39932537;stroke-linecap:square;stroke-linejoin:round;stroke-miterlimit:4;stroke-dasharray:none;stroke-dashoffset:0;stroke-opacity:1;paint-order:stroke fill markers" />
        <path
           transform="matrix(0,0.26458333,0.26458333,0,3.6934664,-1.8097813)"
           inkscape:connector-curvature="0"
           id="path2717"
           d="m 555.34975,401.24876 c -16.30249,-5.2517 -27.84238,-20.98515 -27.84238,-37.96025 0,-16.2176 8.63272,-29.97977 23.21429,-37.00791 22.70221,-10.94219 49.99879,2.00186 56.44379,26.76568 1.7602,6.76324 1.16431,17.27995 -1.35084,23.84101 -4.72087,12.31492 -15.12864,21.77978 -27.59836,25.09805 -6.22329,1.65606 -16.46312,1.32621 -22.8665,-0.73658 z m 19.69009,-4.24145 c 1.25974,-1.25974 1.75324,-2.53432 1.75324,-4.5282 0,-2.30939 0.3179,-2.9198 1.8948,-3.63828 1.71483,-0.78133 2.10817,-0.65653 4.14115,1.31392 3.34468,3.24179 5.011,2.87135 10.19484,-2.26641 5.14495,-5.09922 5.47326,-6.52222 2.33062,-10.10149 -1.84123,-2.09705 -2.05059,-2.72104 -1.44625,-4.31057 0.60617,-1.59435 1.13272,-1.85857 3.70378,-1.85857 4.85142,0 5.60964,-1.20996 5.60964,-8.95182 0,-7.57633 -0.36553,-8.16619 -5.41291,-8.7351 -2.64372,-0.29799 -3.39726,-0.70515 -3.9382,-2.12794 -0.55769,-1.46683 -0.3109,-2.16721 1.48394,-4.21143 1.18408,-1.3486 2.15288,-3.19343 2.15288,-4.09963 0,-2.07547 -8.51596,-10.44551 -10.62761,-10.44551 -0.80605,0 -2.61544,1.00963 -4.02088,2.24362 -2.23651,1.96368 -2.77434,2.14384 -4.31057,1.44388 -1.41575,-0.64505 -1.75523,-1.32456 -1.75523,-3.51326 0,-1.49243 -0.50037,-3.4279 -1.11193,-4.30102 -1.01475,-1.44876 -1.69791,-1.58751 -7.81664,-1.58751 -6.11873,0 -6.80189,0.13875 -7.81664,1.58751 -0.61156,0.87312 -1.11193,2.80859 -1.11193,4.30102 0,2.1887 -0.33948,2.86821 -1.75523,3.51326 -1.53622,0.69996 -2.07405,0.5198 -4.31056,-1.44388 -1.40544,-1.23399 -3.24059,-2.24362 -4.07811,-2.24362 -2.03395,0 -10.57038,8.53643 -10.57038,10.57038 0,0.83752 1.00962,2.67267 2.24362,4.07811 1.91204,2.17769 2.13214,2.8 1.48933,4.21082 -0.58292,1.27937 -1.49827,1.73934 -4.02895,2.02459 -5.03895,0.56796 -5.41829,1.17087 -5.41829,8.6116 0,7.81752 0.76058,9.07593 5.48553,9.07593 2.70473,0 3.21555,0.24802 3.82789,1.85857 0.60433,1.58953 0.39498,2.21352 -1.44626,4.31057 -1.18408,1.3486 -2.15287,3.15538 -2.15287,4.01506 0,0.95995 1.71463,3.29309 4.44365,6.04658 5.15519,5.20142 6.85292,5.58399 10.23468,2.30626 2.03298,-1.97045 2.42633,-2.09525 4.14115,-1.31392 1.57691,0.71848 1.8948,1.32889 1.8948,3.63828 0,1.99388 0.4935,3.26846 1.75325,4.5282 1.55351,1.55353 2.37093,1.75325 7.17532,1.75325 4.8044,0 5.62181,-0.19972 7.17533,-1.75325 z"
           style="opacity:1;fill:#3f7acd;fill-opacity:1;fill-rule:nonzero;stroke:#000000;stroke-width:5.39932537;stroke-linecap:square;stroke-linejoin:round;stroke-miterlimit:4;stroke-dasharray:none;stroke-dashoffset:0;stroke-opacity:1;paint-order:stroke fill markers" />
        <path
           transform="matrix(0,0.26458333,0.26458333,0,3.6934664,-1.8097813)"
           inkscape:connector-curvature="0"
           id="path2719"
           d="m 563.22166,390.18013 v -3.58044 l -4.01745,-1.7767 c -2.2096,-0.97719 -4.36569,-1.77671 -4.79132,-1.77671 -0.42562,0 -1.9259,1.12494 -3.33396,2.49987 l -2.56009,2.49986 -3.01148,-3.06847 -3.01147,-3.06846 2.50574,-2.42867 c 1.37816,-1.33576 2.50574,-2.80775 2.50574,-3.27109 0,-0.46333 -0.79952,-2.65028 -1.77671,-4.85988 l -1.7767,-4.01745 h -3.58044 -3.58044 v -4.28571 -4.28572 l 3.03572,-0.0109 c 1.66964,-0.006 3.3724,-0.24709 3.78391,-0.53572 0.79796,-0.55968 3.89466,-7.69891 3.89466,-8.97888 0,-0.41998 -1.03353,-1.82993 -2.29673,-3.13322 l -2.29673,-2.36963 2.99682,-2.99683 2.99683,-2.99682 2.36962,2.29673 c 1.3033,1.2632 2.64275,2.29673 2.97657,2.29673 0.33382,0 2.48816,-0.68592 4.78743,-1.52428 l 4.18048,-1.52428 v -3.83286 -3.83286 h 4.64285 4.64286 v 3.83286 3.83286 l 4.18048,1.52428 c 2.29926,0.83836 4.4536,1.52428 4.78742,1.52428 0.33382,0 1.67328,-1.03353 2.97657,-2.29673 l 2.36963,-2.29673 2.99682,2.99682 2.99683,2.99683 -2.29673,2.36963 c -1.26321,1.30329 -2.29673,2.66954 -2.29673,3.0361 0,1.18158 3.17702,8.53385 3.92187,9.076 0.39654,0.28863 2.08705,0.5297 3.7567,0.53572 l 3.03571,0.0109 v 4.28572 4.28571 h -3.58043 -3.58044 l -1.77671,4.01745 c -0.97719,2.2096 -1.7767,4.36569 -1.7767,4.79132 0,0.42562 1.12494,1.9259 2.49986,3.33395 l 2.49987,2.5601 -3.06847,3.01148 -3.06847,3.01147 -2.42866,-2.50574 c -1.33576,-1.37816 -2.80775,-2.50574 -3.27109,-2.50574 -0.46334,0 -2.65028,0.79952 -4.85988,1.77671 l -4.01745,1.7767 v 3.58044 3.58043 h -4.64286 -4.64285 z m 9.03483,-10.36748 c 0.33697,-0.87814 -3.75982,-26.68025 -5.24226,-33.01637 -0.45954,-1.96413 -2.364,-2.14508 -2.364,-0.22461 0,0.76039 1.28571,8.69592 2.85714,17.6345 1.57143,8.93859 2.85714,16.35217 2.85714,16.47462 0,0.74389 1.54552,0.0347 1.89198,-0.86814 z m -11.17769,-8.46351 c 0,-0.41879 -1.76869,-2.54877 -3.93042,-4.7333 l -3.93042,-3.97186 3.93042,-3.88159 c 2.16173,-2.13488 3.93042,-4.1887 3.93042,-4.56404 0,-0.37534 -0.54325,-1.28272 -1.20722,-2.0164 -1.16208,-1.28409 -1.42915,-1.11319 -7.14328,4.57126 l -5.93607,5.90523 5.85834,5.88893 c 5.50839,5.53716 5.93509,5.81947 7.14328,4.72607 0.70672,-0.63957 1.28495,-1.50551 1.28495,-1.9243 z m 21.99965,-14.51824 c -5.50839,-5.53715 -5.93509,-5.81947 -7.14328,-4.72607 -0.70672,0.63957 -1.28494,1.52581 -1.28494,1.96941 0,0.4436 1.76868,2.55327 3.93041,4.68815 l 3.93042,3.88159 -3.93042,3.97186 c -2.16173,2.18453 -3.93041,4.25866 -3.93041,4.60919 0,0.35053 0.54324,1.23762 1.20721,1.97129 1.16209,1.28409 1.42915,1.11319 7.14329,-4.57126 l 5.93606,-5.90523 z"
           style="opacity:1;fill:#da8f6a;fill-opacity:1;fill-rule:nonzero;stroke:#000000;stroke-width:5.39932537;stroke-linecap:square;stroke-linejoin:round;stroke-miterlimit:4;stroke-dasharray:none;stroke-dashoffset:0;stroke-opacity:1;paint-order:stroke fill markers" />
        <path
           transform="matrix(0,0.26458333,0.26458333,0,3.6934664,-1.8097813)"
           inkscape:connector-curvature="0"
           id="path2721"
           d="m 366.0788,588.03727 v -3.58043 l -4.01745,-1.77671 c -5.15639,-2.2804 -5.79144,-2.24218 -8.64131,0.52002 l -2.36963,2.29674 -2.96638,-2.96639 -2.96639,-2.96639 2.56786,-2.84232 2.56787,-2.84231 -1.56171,-3.80946 c -2.27148,-5.54083 -2.33196,-5.59517 -6.22645,-5.59517 h -3.52927 v -4.28571 -4.28572 h 3.8587 c 3.56004,0 3.91401,-0.15203 4.57336,-1.96428 0.39307,-1.08036 1.2324,-3.16966 1.86518,-4.64288 l 1.15052,-2.67859 -2.46842,-2.67855 -2.46843,-2.67856 2.96457,-3.03558 2.96456,-3.03558 2.65343,2.59101 2.65343,2.591 4.16227,-1.69158 c 2.28924,-0.93038 4.39841,-2.01603 4.68704,-2.41257 0.28862,-0.39654 0.52969,-2.08705 0.53571,-3.7567 l 0.0109,-3.03571 h 4.24838 4.24839 l 0.2159,3.61853 0.2159,3.61853 4.53198,1.81748 4.53197,1.81748 2.64086,-2.57874 2.64087,-2.57873 2.99823,3.05498 2.99824,3.05498 -2.57713,2.57714 -2.57714,2.57713 1.82357,4.54633 1.82357,4.54632 3.97535,0.21422 3.97534,0.21421 v 4.21274 4.21274 l -3.67643,0.2159 c -3.94215,0.23151 -3.87587,0.17153 -6.40605,5.79745 l -1.5465,3.43869 2.75658,2.823 2.75659,2.823 -2.99933,2.99933 -2.99933,2.99933 -2.4652,-2.38937 c -2.61329,-2.5329 -3.22961,-2.58125 -8.27747,-0.64933 -4.02604,1.54084 -4.28571,1.88198 -4.28571,5.63024 v 3.52928 h -4.28572 -4.28571 z m 4.78868,-27.2924 c 2.9081,-16.75112 2.9879,-18.33889 0.92482,-18.40194 -0.19686,-0.006 -1.59663,7.14085 -3.11061,15.88192 -1.51397,8.74107 -2.91987,16.77679 -3.12421,17.85714 -0.29827,1.57694 -0.10744,1.96391 0.96775,1.96239 1.18978,-0.002 1.67449,-1.93277 4.34225,-17.29951 z m -8.12985,9.58447 c 1.09577,-1.21081 0.90886,-1.54279 -3.10515,-5.51491 l -4.27111,-4.22654 4.44562,-4.48549 4.44561,-4.48549 -1.59411,-1.59412 -1.59412,-1.59412 -5.87454,5.87455 -5.87454,5.87454 5.68642,5.71997 c 3.12754,3.14599 5.88523,5.71998 6.1282,5.71998 0.24297,0 0.96644,-0.57977 1.60772,-1.28837 z m 22.98968,-4.43161 5.68643,-5.71997 -5.87454,-5.87454 -5.87454,-5.87455 -1.59325,1.59326 -1.59325,1.59325 4.24224,4.28698 4.24225,4.28698 -4.21723,4.26169 c -4.1475,4.19124 -4.19549,4.28571 -2.90264,5.71429 0.72301,0.79892 1.51337,1.45259 1.75634,1.45259 0.24297,0 3.00066,-2.57399 6.12819,-5.71998 z"
           style="opacity:1;fill:#da8f6a;fill-opacity:1;fill-rule:nonzero;stroke:#000000;stroke-width:5.39932537;stroke-linecap:square;stroke-linejoin:round;stroke-miterlimit:4;stroke-dasharray:none;stroke-dashoffset:0;stroke-opacity:1;paint-order:stroke fill markers" />
        <path
           transform="matrix(0,0.26458333,0.26458333,0,3.6934664,-1.8097813)"
           inkscape:connector-curvature="0"
           id="path2725"
           d="m 366.0788,202.37415 c 0,-3.74826 -0.25967,-4.0894 -4.28572,-5.63025 -5.04786,-1.93191 -5.66418,-1.88356 -8.27747,0.64933 l -2.4652,2.38937 -2.96638,-2.96639 -2.96639,-2.96639 2.56786,-2.84231 2.56787,-2.84232 -1.56171,-3.80946 c -2.27148,-5.54082 -2.33196,-5.59517 -6.22645,-5.59517 h -3.52927 v -4.28571 -4.28571 h 3.8587 c 3.56004,0 3.91401,-0.15204 4.57336,-1.96429 0.39307,-1.08036 1.2324,-3.16965 1.86518,-4.64288 l 1.15052,-2.67859 -2.46842,-2.67855 -2.46843,-2.67855 2.96457,-3.03558 2.96456,-3.03559 2.65343,2.59101 2.65343,2.59101 4.16227,-1.69159 c 2.28924,-0.93037 4.39841,-2.01603 4.68704,-2.41257 0.28862,-0.39654 0.52969,-2.24776 0.53571,-4.11383 l 0.0109,-3.39286 h 4.25007 4.25007 l 0.21421,3.97534 0.21422,3.97535 4.53198,1.8178 4.53197,1.81781 2.64086,-2.57873 2.64087,-2.57874 2.99823,3.05499 2.99824,3.05498 -2.57713,2.57713 -2.57714,2.57714 1.82357,4.54632 1.82357,4.54632 3.97535,0.21422 3.97534,0.21422 v 4.25007 4.25006 h -3.48396 c -3.87037,0 -4.06532,0.16649 -6.50061,5.55154 l -1.70302,3.76583 2.78589,2.85301 2.78589,2.853 -2.99933,2.99933 -2.99933,2.99933 -2.36962,-2.29673 c -2.72934,-2.64538 -3.24837,-2.72031 -7.63488,-1.10231 -4.65921,1.71859 -5.02388,2.15672 -5.02388,6.03589 v 3.48397 h -4.28572 -4.28571 z m 9.06278,-11.6493 c -0.20779,-0.88393 -1.58002,-8.67857 -3.04939,-17.32143 -1.46937,-8.64286 -2.94135,-16.01964 -3.27106,-16.39286 -0.37634,-0.42599 -0.87623,-0.40182 -1.343,0.065 -0.51518,0.51518 0.18197,6.04324 2.27001,18 2.71242,15.53211 3.15133,17.25647 4.39239,17.25647 1.06567,0 1.29304,-0.36503 1.00105,-1.60714 z m -12.25533,-6.27402 c 1.29284,-1.42858 1.24486,-1.52305 -2.90265,-5.71429 l -4.21723,-4.26169 4.24225,-4.28698 4.24225,-4.28698 -1.59325,-1.59325 -1.59325,-1.59325 -5.87454,5.87454 -5.87454,5.87454 5.68642,5.71998 c 3.12754,3.14598 5.88523,5.71997 6.1282,5.71997 0.24297,0 1.03332,-0.65366 1.75634,-1.45259 z m 22.84106,-4.26738 5.68643,-5.71998 -5.87454,-5.87454 -5.87454,-5.87454 -1.59325,1.59325 -1.59325,1.59325 4.24224,4.28698 4.24225,4.28698 -4.21723,4.26169 c -4.1475,4.19124 -4.19549,4.28571 -2.90264,5.71429 0.72301,0.79893 1.51337,1.45259 1.75634,1.45259 0.24297,0 3.00066,-2.57399 6.12819,-5.71997 z"
           style="opacity:1;fill:#da8f6a;fill-opacity:1;fill-rule:nonzero;stroke:#000000;stroke-width:5.39932537;stroke-linecap:square;stroke-linejoin:round;stroke-miterlimit:4;stroke-dasharray:none;stroke-dashoffset:0;stroke-opacity:1;paint-order:stroke fill markers" />
        <path
           sodipodi:nodetypes="ccc"
           inkscape:connector-curvature="0"
           id="path2732"
           d="M 312.97138,534.28303 269.6027,490.91436 323.81355,469.23002"
           style="fill:none;stroke:#000000;stroke-width:12.29348183;stroke-linecap:butt;stroke-linejoin:miter;stroke-miterlimit:4;stroke-dasharray:none;stroke-opacity:1"
           transform="matrix(-0.12201588,0,0,0.12201588,119.77522,-14.312618)" />
        <path
           style="fill:none;stroke:#000000;stroke-width:12.29348183;stroke-linecap:butt;stroke-linejoin:miter;stroke-miterlimit:4;stroke-dasharray:none;stroke-opacity:1"
           d="m 316.06914,1267.8808 -43.36868,43.3686 54.21085,21.6844"
           id="path2734"
           inkscape:connector-curvature="0"
           sodipodi:nodetypes="ccc"
           transform="matrix(-0.12201588,0,0,0.12201588,119.77522,-14.312618)" />
        <path
           sodipodi:nodetypes="ccc"
           inkscape:connector-curvature="0"
           id="path2736"
           d="m 14.544191,1272.9032 43.36868,43.3686 -54.2108502,21.6844"
           style="fill:none;stroke:#000000;stroke-width:12.29348183;stroke-linecap:butt;stroke-linejoin:miter;stroke-miterlimit:4;stroke-dasharray:none;stroke-opacity:1"
           transform="matrix(-0.12201588,0,0,0.12201588,119.77522,-14.312618)" />
        <path
           style="fill:none;stroke:#000000;stroke-width:12.29348183;stroke-linecap:butt;stroke-linejoin:miter;stroke-miterlimit:4;stroke-dasharray:none;stroke-opacity:1"
           d="m 18.881058,529.85808 43.36868,-43.3686 -54.21085,-21.6844"
           id="path2738"
           inkscape:connector-curvature="0"
           sodipodi:nodetypes="ccc"
           transform="matrix(-0.12201588,0,0,0.12201588,119.77522,-14.312618)" />
        <path
           sodipodi:nodetypes="ccc"
           inkscape:connector-curvature="0"
           id="path2740"
           d="m 524.35073,760.46396 42.21438,44.49298 23.10098,-53.62252"
           style="fill:none;stroke:#000000;stroke-width:12.29348183;stroke-linecap:butt;stroke-linejoin:miter;stroke-miterlimit:4;stroke-dasharray:none;stroke-opacity:1"
           transform="matrix(-0.12201588,0,0,0.12201588,119.77522,-14.312618)" />
        <path
           style="fill:none;stroke:#000000;stroke-width:12.29348183;stroke-linecap:butt;stroke-linejoin:miter;stroke-miterlimit:4;stroke-dasharray:none;stroke-opacity:1"
           d="m 524.35073,1051.8652 42.21438,-44.493 23.10098,53.6225"
           id="path2744"
           inkscape:connector-curvature="0"
           sodipodi:nodetypes="ccc"
           transform="matrix(-0.12201588,0,0,0.12201588,119.77522,-14.312618)" />
        <path
           sodipodi:nodetypes="ccc"
           inkscape:connector-curvature="0"
           id="path2746"
           d="m -217.46744,1059.4437 -42.21438,-44.493 -23.10098,53.6225"
           style="fill:none;stroke:#000000;stroke-width:12.29348183;stroke-linecap:butt;stroke-linejoin:miter;stroke-miterlimit:4;stroke-dasharray:none;stroke-opacity:1"
           transform="matrix(-0.12201588,0,0,0.12201588,119.77522,-14.312618)" />
        <path
           style="fill:none;stroke:#000000;stroke-width:12.29348183;stroke-linecap:butt;stroke-linejoin:miter;stroke-miterlimit:4;stroke-dasharray:none;stroke-opacity:1"
           d="m -217.46744,750.65088 -42.21438,44.493 -23.10098,-53.6225"
           id="path2748"
           inkscape:connector-curvature="0"
           sodipodi:nodetypes="ccc"
           transform="matrix(-0.12201588,0,0,0.12201588,119.77522,-14.312618)" />
        <path
           sodipodi:nodetypes="cc"
           inkscape:connector-curvature="0"
           id="path2699"
           d="m 124.74555,96.086052 h 15.875"
           style="fill:none;stroke:#000000;stroke-width:2;stroke-linecap:butt;stroke-linejoin:miter;stroke-miterlimit:4;stroke-dasharray:2, 2;stroke-dashoffset:0;stroke-opacity:1" />
      </g>
    </g>
  </g>
</svg>
